<svg id="Capa_1" xmlns="http://www.w3.org/2000/svg" viewBox="0 0 512 512"><style>.st0{fill:#004c99}</style><path class="st0" d="M496.6 0H26.2c-5.5 0-10 4.5-10 10v376.8C9.4 399 5.4 413 5.4 428v5c0 43.6 35.4 79 79 79h407c5.5 0 10-4.5 10-10v-98.5c0-21.8-17.7-39.5-39.5-39.5s-39.5 17.7-39.5 39.5V438h-21.2v-34.5c0-21.8-17.7-39.5-39.5-39.5s-39.5 17.7-39.5 39.5V438H301v-34.5c0-21.8-17.7-39.5-39.5-39.5S222 381.7 222 403.5V438h-48.5v-10c0-46.3-37.7-84-84-84-20.2 0-38.7 7.1-53.2 19V97.1H205v113c0 5.5 4.5 10 10 10h2.2v50.7c0 .3 0 .7.1 1L195 299c-2.8 3.4-3 8.3-.5 12l27.6 40c1.9 2.8 5.1 4.3 8.2 4.3 2 0 3.9-.6 5.7-1.8 4.5-3.1 5.7-9.4 2.5-13.9l-23.4-33.8 20.4-25h51.4l20.4 25-23.4 33.8c-3.1 4.5-2 10.8 2.5 13.9 1.7 1.2 3.7 1.8 5.7 1.8 3.2 0 6.3-1.5 8.2-4.3l27.6-40c2.5-3.7 2.3-8.6-.5-12l-22.2-27.2c0-.3.1-.7.1-1v-50.7h2.2c5.5 0 10-4.5 10-10v-113h168.7V199c0 5.5 4.5 10 10 10s10-4.5 10-10V10c.4-5.5-4.1-10-9.6-10zm-15.2 492h-51.3l34-34h17.3v34zm-39.1-88.5c0-10.8 8.8-19.5 19.5-19.5s19.5 8.8 19.5 19.5V438h-39.1v-34.5zm-6.4 54.5l-34 34h-68.4l34-34h68.4zm-93.8-54.5c0-10.8 8.8-19.5 19.5-19.5s19.5 8.8 19.5 19.5V438H342l.1-34.5zm-2.9 54.5l-34 34h-68.4l34-34h68.4zm-97.3-54.5c0-10.8 8.8-19.5 19.5-19.5s19.5 8.8 19.5 19.5V438h-39.1l.1-34.5zM89.4 364c35.3 0 64 28.7 64 64v20c0 5.5 4.5 10 10 10h79.1l-34 34H84.4c-32.5 0-59-26.5-59-59v-5c0-35.3 28.7-64 64-64zm196.3-103.2h-48.5v-40.7h48.5v40.7zm12.2-60.7h-26.4v-54.4h8.7c5.5 0 10-4.5 10-10s-4.5-10-10-10h-37.3c-5.5 0-10 4.5-10 10s4.5 10 10 10h8.7v54.4h-26.4v-103h73v103zM486.6 75v2.1H36.2V58.6h375c5.5 0 10-4.5 10-10s-4.5-10-10-10h-375V20h450.4v55z"/><path class="st0" d="M89.4 384c-24.3 0-44 19.7-44 44s19.7 44 44 44 44-19.7 44-44-19.7-44-44-44zm0 68c-13.2 0-24-10.8-24-24s10.8-24 24-24 24 10.8 24 24-10.8 24-24 24zM456.6 46.6c-.1-.6-.3-1.3-.6-1.9s-.6-1.2-.9-1.7c-.4-.5-.8-1.1-1.2-1.5s-1-.9-1.5-1.2c-.5-.4-1.1-.7-1.7-.9-.6-.3-1.2-.4-1.9-.6-3.3-.7-6.7.4-9 2.7-1.9 1.9-2.9 4.4-2.9 7.1 0 .7.1 1.3.2 2 .1.6.3 1.3.6 1.9s.6 1.2.9 1.7c.4.5.8 1 1.3 1.5s1 .9 1.5 1.2c.5.4 1.1.7 1.7.9.6.3 1.2.4 1.9.6.6.1 1.3.2 2 .2.6 0 1.3-.1 2-.2.6-.1 1.3-.3 1.9-.6s1.2-.6 1.7-.9c.5-.4 1.1-.8 1.5-1.2.5-.5.9-1 1.2-1.5.4-.5.7-1.1.9-1.7s.4-1.2.6-1.9c.1-.7.2-1.3.2-2-.2-.7-.2-1.3-.4-2z"/></svg>