<svg xmlns="http://www.w3.org/2000/svg" viewBox="0 232.7 595.3 376.6"><path fill="#FFF" d="M553.6 392.3l-15.4-61.7c4.2-.9 7.4-4.6 7.4-9.1v-9.9c0-21.6-17.6-39.1-39.1-39.1h-70.2V252c0-10.6-8.6-19.3-19.3-19.3H59c-10.6 0-19.3 8.6-19.3 19.3v169c0 5.1 4.2 9.3 9.3 9.3 5.1 0 9.3-4.2 9.3-9.3V252c0-.3.3-.6.6-.6h357.9c.3 0 .6.3.6.6v169c0 5.1 4.2 9.3 9.3 9.3 5.1 0 9.3-4.2 9.3-9.3v-10.6h110c13.5 0 25 8.9 29 21.1h-29c-5.1 0-9.3 4.2-9.3 9.3v19.9c0 16.1 13.1 29.2 29.2 29.2h10.6v41h-24.4c-8-23.1-30-39.8-55.8-39.8-25.8 0-47.8 16.7-55.8 39.8H436v-70.2c0-5.1-4.2-9.3-9.3-9.3-5.1 0-9.3 4.2-9.3 9.3v70.2H224.2c-8-23.1-30-39.8-55.8-39.8s-47.8 16.7-55.8 39.8H59c-.3 0-.6-.3-.6-.6v-20.5h40.4c5.1 0 9.3-4.2 9.3-9.3s-4.2-9.3-9.3-9.3H9.3c-5.1 0-9.3 4.2-9.3 9.3s4.2 9.3 9.3 9.3h30.4v20.5c0 10.6 8.6 19.3 19.3 19.3h50.3v.6c0 32.5 26.5 59 59 59s59-26.5 59-59v-.6h210.1v.6c0 32.5 26.5 59 59 59s59-26.5 59-59v-.6H586c5.1 0 9.3-4.2 9.3-9.3v-99.4c0-24.6-18.1-45-41.7-48.6zM436.2 291.1h70.2c11.3 0 20.5 9.2 20.5 20.5v.6h-90.7v-21.1zm0 100.6v-60.9H519l15.2 60.9h-98zM168.4 590.6c-22.3 0-40.4-18.1-40.4-40.4s18.1-40.4 40.4-40.4 40.4 18.1 40.4 40.4-18.1 40.4-40.4 40.4zm328.1 0c-22.3 0-40.4-18.1-40.4-40.4s18.1-40.4 40.4-40.4c22.3 0 40.4 18.1 40.4 40.4s-18.1 40.4-40.4 40.4zm80.1-119.3H566c-5.8 0-10.6-4.7-10.6-10.6v-10.6h21.1l.1 21.2z"/><path fill="#FFF" d="M168.4 530.9c-10.6 0-19.3 8.6-19.3 19.3s8.6 19.3 19.3 19.3c10.6 0 19.3-8.6 19.3-19.3 0-10.6-8.7-19.3-19.3-19.3zm328.1 0c-10.6 0-19.3 8.6-19.3 19.3s8.6 19.3 19.3 19.3 19.3-8.6 19.3-19.3-8.7-19.3-19.3-19.3zm-109.4-39.7H247.9c-5.1 0-9.3 4.2-9.3 9.3s4.2 9.3 9.3 9.3h139.2c5.1 0 9.3-4.2 9.3-9.3s-4.1-9.3-9.3-9.3zm-238.6-39.8H29.2c-5.1 0-9.3 4.2-9.3 9.3s4.2 9.3 9.3 9.3h119.3c5.1 0 9.3-4.2 9.3-9.3s-4.1-9.3-9.3-9.3zm175.6-126.5c-3.6-3.6-9.5-3.6-13.2 0L228 407.8l-43.1-43.1c-3.6-3.6-9.5-3.6-13.2 0-3.6 3.6-3.6 9.5 0 13.2l49.7 49.7c1.8 1.8 4.2 2.7 6.6 2.7s4.8-.9 6.6-2.7l89.5-89.5c3.7-3.7 3.7-9.6 0-13.2z"/></svg>