<svg xmlns="http://www.w3.org/2000/svg" viewBox="0 0 84.01 84.01"><defs><style>.cls-1{fill:#194c9b}.cls-2{fill:#dc001b}</style></defs><title>Рподвал 2</title><g id="Слой_2" data-name="Слой 2"><g id="Слой_1-2" data-name="Слой 1"><path class="cls-1" d="M42 84a42 42 0 1 1 42-42 42.05 42.05 0 0 1-42 42zm0-78a36 36 0 1 0 36 36A36 36 0 0 0 42 6z"/><path id="Facebook_Places" data-name="Facebook Places" class="cls-2" d="M59.2 29a16.13 16.13 0 0 0-.85-2.08 17.62 17.62 0 0 0-16.59-10.86A17.59 17.59 0 0 0 24 32.19v2.22c0 .09 0 .92.08 1.34.65 5.18 4.77 10.68 7.84 15.85 3.31 5.55 6.74 11 10.14 16.46 2.1-3.56 4.18-7.16 6.23-10.63.56-1 1.21-2 1.77-3 .37-.65 1.08-1.29 1.41-1.89 3.31-6 8.63-12.06 8.63-18v-2.49a18.34 18.34 0 0 0-.9-3.05zM41.91 40.14a6.4 6.4 0 0 1-6.13-4.34 6 6 0 0 1-.17-1.62v-1.43c0-4.07 3.48-5.92 6.51-5.92a6.57 6.57 0 0 1 6.61 6.66 6.74 6.74 0 0 1-6.82 6.65z"/></g></g></svg>