<svg xmlns="http://www.w3.org/2000/svg" viewBox="0 0 46.39 46.39"><defs><style>.cls-1{fill:#fff}.cls-2{fill:#abbed3;fill-rule:evenodd}</style></defs><title>консультация 2</title><g id="Слой_2" data-name="Слой 2"><g id="Слой_1-2" data-name="Слой 1"><path class="cls-1" d="M23.19 46.39a23.19 23.19 0 1 1 23.2-23.2 23.22 23.22 0 0 1-23.2 23.2zm0-43.39a20.19 20.19 0 1 0 20.2 20.19A20.22 20.22 0 0 0 23.19 3z"/><path class="cls-2" d="M25.38 31.46l-2.14 2.13L14.66 25l2.14-2.14-5.36-5.36s-2.56 2.37-2.74 4.24c-.24 2.51 2.41 7.06 6.59 11.23s8.71 6.81 11.23 6.59c1.86-.17 4.23-2.74 4.23-2.74z"/><path class="cls-2" d="M23.78 12.25h7.9V10H22l-1.4 10 2 .11a4.27 4.27 0 0 1 3.45-1.78 3.89 3.89 0 0 1 4.13 4.13 4 4 0 0 1-3.93 4.27c-2.1 0-3.7-1-3.94-3.12h-2.36c.44 4.15 3.56 5.14 6 5.14 5.83 0 6.76-4.48 6.76-6.56a5.92 5.92 0 0 0-6.12-6A5.68 5.68 0 0 0 23 17.36z"/></g></g></svg>