<svg xmlns="http://www.w3.org/2000/svg" viewBox="0 0 108.2 112"><defs><style>.cls-1{fill:#004c99}</style></defs><title>преимущества3</title><g id="Слой_2" data-name="Слой 2"><g id="Слой_1-2" data-name="Слой 1"><path class="cls-1" d="M73 89.76l-13-3.9L58.06 83a3.69 3.69 0 0 0-3-1.64h-.12v-5.19l1-.81a9.39 9.39 0 0 0 3.26-5.73l.22-1.39h1.37a5.59 5.59 0 0 0 5.59-5.59v-3.8a5.6 5.6 0 0 0-4.58-5.49l1.7-10.85a17 17 0 0 0-16.79-19.68H32.95a17 17 0 0 0-16.79 19.68l1.73 10.84a5.6 5.6 0 0 0-4.58 5.49v3.8a5.59 5.59 0 0 0 5.59 5.59h1.37l.22 1.39a9.39 9.39 0 0 0 3.26 5.73l1 .81v5.17h-.12a3.69 3.69 0 0 0-3 1.64l-1.92 2.88-13 3.9a9.34 9.34 0 0 0-6.69 9v7.65a5.59 5.59 0 0 0 5.57 5.6h68.48a5.59 5.59 0 0 0 5.59-5.59v-7.65a9.34 9.34 0 0 0-6.66-9zm-18-4.85a.11.11 0 0 1 .1.05l1.74 2.61-4.37 10.2a.12.12 0 0 1-.18 0L48 94.62 54.9 85a.11.11 0 0 1 .1-.09zm7.78-26.06v3.8a2 2 0 0 1-2 2H60l1.25-7.8a2 2 0 0 1 1.53 2zM60 42l-1.67 10.29-1.5-9.61a33.6 33.6 0 0 0 3.3-2.1A13.43 13.43 0 0 1 60 42zM18.91 64.68a2 2 0 0 1-2-2v-3.8a2 2 0 0 1 1.57-2l1.25 7.8h-.8zM20.32 46l-.64-4a13.44 13.44 0 0 1 13.27-15.61h13.76a13.43 13.43 0 0 1 13 10c-4.81 4.12-11.84 7-20.89 8.46A97.67 97.67 0 0 1 20.32 46zm1.17 7.3l-.6-3.73h2.59l-1.87 3.69h-.12zM24 69.07l-2-12.24h.65a1.78 1.78 0 0 0 1.59-1l3.21-6.35c7.66-.26 17.56-1.44 26-5.16l1.71 11A1.78 1.78 0 0 0 57 56.83h.65l-1.42 8.57c-.42.47-4.75 5-16.4 5a1.78 1.78 0 1 0 0 3.57c7.48 0 12.37-1.71 15.35-3.37a5.83 5.83 0 0 1-1.56 2L46 79a3.93 3.93 0 0 1-2.51.91h-7.3a3.93 3.93 0 0 1-2.51-.91L26 72.63a5.83 5.83 0 0 1-2-3.56zM24.57 85a.12.12 0 0 1 .2 0l6.9 9.66-4.28 3.21a.11.11 0 0 1-.1 0 .11.11 0 0 1-.08-.07l-4.37-10.2zm-11.25 23.43H5.59a2 2 0 0 1-2-2v-7.67a5.83 5.83 0 0 1 .73-2.83l7.61 6.34a3.91 3.91 0 0 1 1.41 3zm3.57 0v-3.15a7.47 7.47 0 0 0-2.7-5.75l-7.26-6a5.93 5.93 0 0 1 .79-.3l12.08-3.68 4.13 9.63a3.66 3.66 0 0 0 2.44 2.11 3.71 3.71 0 0 0 1 .13 3.66 3.66 0 0 0 2.2-.74l3.77-2.83 4 10.58H16.88zm18.9-14.06v-.25L35.6 94l-7.29-10.2v-4.65l3.1 2.58a7.51 7.51 0 0 0 4.8 1.74h7.28a7.51 7.51 0 0 0 4.8-1.74l3.1-2.58v4.44a1.76 1.76 0 0 0 0 .18L44.09 94l-.06.09v.25l-4 10.77zm27 10.91v3.15H42.41l4-10.58 3.77 2.83a3.66 3.66 0 0 0 2.2.74 3.71 3.71 0 0 0 1-.13 3.66 3.66 0 0 0 2.44-2.11l4.13-9.63 12.08 3.62a6 6 0 0 1 .79.3l-7.26 6a7.47 7.47 0 0 0-2.78 5.81zm13.32 1.13a2 2 0 0 1-2 2h-7.76v-3.15a3.91 3.91 0 0 1 1.41-3l7.61-6.34a5.83 5.83 0 0 1 .73 2.83v7.66zM101.27 5.3A20.81 20.81 0 1 0 77 38.81a2 2 0 0 1 1 1.74v6.89A5.59 5.59 0 0 0 83.59 53h2v.12a1.78 1.78 0 0 0 3.57 0V53h2a5.59 5.59 0 0 0 5.59-5.59v-6.86a2 2 0 0 1 1-1.75 20.8 20.8 0 0 0 3.52-33.5zm-8 42.14a2 2 0 0 1-2 2h-7.68a2 2 0 0 1-2-2v-2h11.63v2zM96 35.72a5.62 5.62 0 0 0-2.81 4.83v1.3H81.57v-1.3a5.6 5.6 0 0 0-2.79-4.82 17.24 17.24 0 0 1 6.64-32.06 18.13 18.13 0 0 1 2-.11A17 17 0 0 1 98.89 8 17.23 17.23 0 0 1 96 35.72z"/><path class="cls-1" d="M87.39 9.51a1.78 1.78 0 0 0-1.78 1.78v13.32a1.78 1.78 0 0 0 3.57 0V11.29a1.78 1.78 0 0 0-1.79-1.78zm0 20.93a1.78 1.78 0 0 0 0 3.57 1.78 1.78 0 1 0 0-3.57z"/></g></g></svg>