<svg xmlns="http://www.w3.org/2000/svg" viewBox="0 0 117.52 83"><defs><style>.cls-1{fill:#004c99}</style></defs><title>преимущества1</title><g id="Слой_2" data-name="Слой 2"><g id="Слой_1-2" data-name="Слой 1"><path class="cls-1" d="M107.49 62.95h-.13v-6.22a1.9 1.9 0 0 0-1.9-1.9h-2.16V41a8 8 0 0 0-5.8-7.69l-6.38-1.82v-2.91a6 6 0 0 0 2-4.48V18h2.16a1.9 1.9 0 1 0 0-3.81h-.13v-.13A12.07 12.07 0 0 0 85 2.18V1.9a1.9 1.9 0 0 0-3.81 0v.28a12.07 12.07 0 0 0-10.15 11.9v.13h-.13a1.9 1.9 0 1 0 0 3.81h2.19v6.08a6 6 0 0 0 2 4.48v2.93l-6.38 1.82A8 8 0 0 0 62.95 41v21.95h-2.29V52.67a1.9 1.9 0 0 0-1.9-1.9h-4.19V41a8 8 0 0 0-5.8-7.69l-6.38-1.82v-2.91a6 6 0 0 0 2-4.48V18h2.16a1.9 1.9 0 0 0 0-3.81h-.13v-.13A12.07 12.07 0 0 0 36.3 2.18V1.9a1.9 1.9 0 1 0-3.81 0v.28a12.07 12.07 0 0 0-10.15 11.9v.13h-.13a1.9 1.9 0 0 0 0 3.81h2.16v6.08a6 6 0 0 0 2 4.48v2.93L20 33.33A8 8 0 0 0 14.21 41v21.95H10A10 10 0 0 0 10 83h97.47a10 10 0 1 0 0-20.05zm-3.93 0H83v-4.32h20.56zm-28.68 0v-18.4a.13.13 0 0 1 .13-.13h16.24a.13.13 0 0 1 .13.13v10.28H81.1a1.9 1.9 0 0 0-1.9 1.9v6.22zM79 31.23a6 6 0 0 0 3.31 1h1.6a6 6 0 0 0 3.31-1l.08-.05v2.32a7 7 0 0 1-4.19 1 7 7 0 0 1-4.19-1v-2.32zm-2.11 9.38v-3.86a11 11 0 0 0 6.22 1.58 11 11 0 0 0 6.22-1.58v3.86zM99.5 41v13.83h-4.32V44.55a3.94 3.94 0 0 0-2-3.44V36l3.31.94A4.21 4.21 0 0 1 99.5 41zm-8.12-26.91v.13H85V6.06a8.26 8.26 0 0 1 6.38 8.03zm-16.5 0a8.26 8.26 0 0 1 6.35-8v8.15h-6.35zM89.35 18v6.1a2.15 2.15 0 0 1-1 1.8l-3.26 2.17a2.15 2.15 0 0 1-1.2.36h-1.6a2.15 2.15 0 0 1-1.2-.36l-3.26-2.17a2.15 2.15 0 0 1-1-1.8V18zM66.76 41a4.21 4.21 0 0 1 3-4l3.34-1v5.06a3.94 3.94 0 0 0-2 3.44v18.4h-4.34zm-9.9 21.93H36.3v-8.36h20.56zm-30.71 0V44.55a.13.13 0 0 1 .13-.13h16.24a.13.13 0 0 1 .13.13v6.22h-8.26a1.9 1.9 0 0 0-1.9 1.9v10.28zm4.14-31.71a6 6 0 0 0 3.31 1h1.6a6 6 0 0 0 3.31-1l.08-.05v2.32a7 7 0 0 1-4.19 1 7 7 0 0 1-4.19-1v-2.31zm-2.11 9.38v-3.85a11 11 0 0 0 6.22 1.58 11 11 0 0 0 6.22-1.58v3.86zm22.58.4v9.75h-4.31v-6.2a3.94 3.94 0 0 0-2-3.44V36l3.31.94a4.21 4.21 0 0 1 3 4.06zm-8.12-26.91v.13H36.3V6.06a8.26 8.26 0 0 1 6.34 8.03zm-16.5 0a8.26 8.26 0 0 1 6.35-8v8.15h-6.35zM40.61 18v6.1a2.15 2.15 0 0 1-1 1.8l-3.26 2.17a2.15 2.15 0 0 1-1.2.36h-1.6a2.15 2.15 0 0 1-1.2-.36l-3.26-2.17a2.15 2.15 0 0 1-1-1.8V18zM18 41a4.21 4.21 0 0 1 3-4l3.37-1v5.06a3.94 3.94 0 0 0-2 3.44v18.4H18zm89.47 38.17H10a6.22 6.22 0 0 1 0-12.44h97.47a6.22 6.22 0 0 1 0 12.44z"/><path class="cls-1" d="M58.76 69.29A3.68 3.68 0 1 0 62.44 73a3.68 3.68 0 0 0-3.68-3.71zm-12.18 0A3.68 3.68 0 1 0 50.26 73a3.68 3.68 0 0 0-3.68-3.71zm-12.19 0A3.68 3.68 0 1 0 38.07 73a3.68 3.68 0 0 0-3.68-3.71zm-24.39 0A3.68 3.68 0 1 0 13.71 73 3.68 3.68 0 0 0 10 69.29zm12.21 0A3.68 3.68 0 1 0 25.89 73a3.68 3.68 0 0 0-3.68-3.71zm85.28 0a3.68 3.68 0 1 0 3.68 3.71 3.68 3.68 0 0 0-3.68-3.71zm-12.18 0A3.68 3.68 0 1 0 99 73a3.68 3.68 0 0 0-3.69-3.71zm-24.37 0A3.68 3.68 0 1 0 74.62 73a3.68 3.68 0 0 0-3.68-3.71zm12.19 0A3.68 3.68 0 1 0 86.81 73a3.68 3.68 0 0 0-3.68-3.71z"/></g></g></svg>