<svg xmlns="http://www.w3.org/2000/svg" viewBox="0 0 46.39 46.39"><defs><style>.cls-1{fill:#fff}.cls-2{fill:#abbed3;fill-rule:evenodd}</style></defs><title>консультация 1</title><g id="Слой_2" data-name="Слой 2"><g id="Слой_1-2" data-name="Слой 1"><path class="cls-1" d="M23.19 46.39a23.19 23.19 0 1 1 23.2-23.2 23.22 23.22 0 0 1-23.2 23.2zm0-43.39a20.19 20.19 0 1 0 20.2 20.19A20.22 20.22 0 0 0 23.19 3z"/><path class="cls-2" d="M26.94 27.57L24.8 29.7l-8.58-8.56L18.36 19 13 13.63s-2.57 2.37-2.74 4.23c-.24 2.51 2.41 7.06 6.59 11.23s8.72 6.81 11.23 6.59c1.86-.17 4.23-2.74 4.23-2.74z"/><circle class="cls-1" cx="23.26" cy="15.28" r="1.29"/><circle class="cls-1" cx="28.26" cy="15.28" r="1.29"/><circle class="cls-1" cx="33.26" cy="15.28" r="1.29"/></g></g></svg>