<svg xmlns="http://www.w3.org/2000/svg" width="61.864" height="61.864" viewBox="0 0 471 471" shape-rendering="geometricPrecision" text-rendering="geometricPrecision" image-rendering="optimizeQuality" fill-rule="evenodd" clip-rule="evenodd"><defs><style>.fil0{fill:#004c99}.fil1{fill:#dc001b}</style></defs><g id="Слой_x0020_1"><path class="fil0" d="M236 471C106 471 0 366 0 236S106 0 236 0s235 106 235 236-105 235-235 235zm0-441C123 30 30 123 30 236c0 112 93 205 206 205 112 0 205-93 205-205 0-113-91-206-205-206z" id="_1612413484800"/><path class="fil1" d="M323 146H149c-16 0-29 14-29 29v121c0 15 13 28 29 28h174c16 0 30-13 30-28V175c0-17-14-29-30-29zm1 150s-1 1-2 1H146V197l74 63c3 2 6 3 8 3h13c3 0 5-1 7-3l74-63 2 99zm-88-63l-69-59h139l-70 59z"/></g></svg>