<svg xmlns="http://www.w3.org/2000/svg" viewBox="0 0 95.54 100"><defs><style>.cls-1{fill:#004c99}</style></defs><title>преимущества2</title><g id="Слой_2" data-name="Слой 2"><g id="Слой_1-2" data-name="Слой 1"><path class="cls-1" d="M85.54 21.59l10-10L84 0 72 12A21.05 21.05 0 0 1 69.22.25V.07H21.88v.18a19.15 19.15 0 0 1-5.1 14.91c-3.87 4.22-9.64 7-14.68 7A12.55 12.55 0 0 1 .19 22H0v8.63c0 26.75 17.22 60.86 45 69.22l.52.15.52-.15c27.82-8.35 45-42.47 45-69.28V22h-.16s-3.3-.14-5.34-.41zM74.38 51C70.84 62 63 77.08 45.54 86.06c-19-8-31.32-33.12-32.3-52.95A33.24 33.24 0 0 0 33 13.26h25a28.77 28.77 0 0 0 4.15 8.56L46.06 38l-9.55-9.55L24.93 40l21 21 .12.12 31.88-31.9A74.26 74.26 0 0 1 74.38 51zm-49-47.34h40.36a23.29 23.29 0 0 0 3.67 10.95l-4.71 4.67c-2-2.62-4-9.39-4-9.46V9.7H30.5v.1c-.11.24-.24.59-.4 1A30.09 30.09 0 0 1 9.74 30.52h-.12v1.32c.53 21.75 13.86 49.28 35.26 57.71l.65.26.65-.26C68 81 81.46 52.25 81.46 30.54v-4.89l1.14-1.14a23 23 0 0 0 4.94.89v5.32c-.07 25.36-16.93 57.69-42 65.57-25.13-7.9-42-40.35-42-65.73v-5.11A23.74 23.74 0 0 0 25.38 3.62zM46 43L84 5l6.57 6.57L46 56.09 29.93 40l6.57-6.57z"/><path class="cls-1" d="M43.78 64.27h3.55v3.55h-3.55zm0 6.43h3.55v3.55h-3.55zm0 6.41h3.55v3.55h-3.55z"/></g></g></svg>