<svg id="Layer_1" xmlns="http://www.w3.org/2000/svg" viewBox="0 0 512 512"><style>.st0{fill:#004c99}</style><path class="st0" d="M512 306.4v-3.3c0-11.9-9.7-21.6-21.6-21.6h-7.8l-6.7-142.2c-.2-4.5-3.9-7.9-8.5-7.7-4.5.2-7.9 4-7.7 8.5l6.7 141.4h-66l9.4-199.3h47.1l1.4 29.6c.2 4.5 4 7.9 8.5 7.7 4.5-.2 7.9-4 7.7-8.5l-1.7-36.5v-.8l-1.5-30.3v-.5L470 16.2h2.2c4.5 0 8.1-3.6 8.1-8.1S476.7 0 472.2 0h-77.7c-4.5 0-8.1 3.6-8.1 8.1s3.6 8.1 8.1 8.1h2.2l-1.3 26.7v.5L394 73.7v.8l-9.8 207h-10.6l-9.8-207v-.8l-1.5-30.3v-.5L361 16.2h2.2c4.5 0 8.1-3.6 8.1-8.1S367.6 0 363.1 0h-77.7c-4.5 0-8.1 3.6-8.1 8.1s3.6 8.1 8.1 8.1h2.2l-1.3 26.7v.5l-1.5 30.3v.8l-9.8 207h-12.2v-18c0-3-1.6-5.7-4.3-7.1-2.6-1.4-5.8-1.3-8.3.4l-64.9 42.8v-36c0-3-1.6-5.7-4.3-7.1-2.6-1.4-5.8-1.3-8.3.4l-64.9 42.8v-36c0-3-1.6-5.7-4.3-7.1-2.6-1.4-5.8-1.3-8.3.4l-77.4 51c-2.3 1.5-3.6 4-3.6 6.8V467C6.1 469.6 0 477.6 0 487.1v3.3C0 502.3 9.7 512 21.6 512h468.8c11.9 0 21.6-9.7 21.6-21.6v-3.3c0-9.8-6.6-18.1-15.6-20.7V327.1c9-2.6 15.6-10.9 15.6-20.7zM412.9 16.2h40.9l.9 19.5H412l.9-19.5zm-1.7 35.6h44.3l.7 14.2h-45.6l.6-14.2zM303.9 16.2h40.9l.9 19.5H303l.9-19.5zm-1.7 35.6h44.3l.7 14.2h-45.6l.6-14.2zm-1.5 30.3h47.1l9.4 199.3h-66l9.5-199.3zM262.9 328h138.6c4.5 0 8.1-3.6 8.1-8.1s-3.6-8.1-8.1-8.1H262.9v-14.2h227.5c3 0 5.4 2.4 5.4 5.4v3.3c0 3-2.4 5.4-5.4 5.4h-61.2c-4.5 0-8.1 3.6-8.1 8.1s3.6 8.1 8.1 8.1h51v137.5H262.9V328zm-77.4-9.2l61.2-40.4v187h-61.2V318.8zm-77.4 0l61.2-40.4v187h-61.2V318.8zm-77.4 0l61.2-40.4v187H30.7V318.8zm465.1 171.6c0 3-2.4 5.4-5.4 5.4H21.6c-3 0-5.4-2.4-5.4-5.4v-3.3c0-3 2.4-5.4 5.4-5.4h468.8c3 0 5.4 2.4 5.4 5.4v3.3z"/><path class="st0" d="M457.9 342.5H286c-4.5 0-8.1 3.6-8.1 8.1v92.2c0 4.5 3.6 8.1 8.1 8.1h171.9c4.5 0 8.1-3.6 8.1-8.1v-92.2c0-4.4-3.6-8.1-8.1-8.1zm-122.7 92.3h-41.1v-29.9h41.1v29.9zm0-46.1h-41.1v-29.9h41.1v29.9zm57.3 46.1h-41.1v-29.9h41.1v29.9zm0-46.1h-41.1v-29.9h41.1v29.9zm57.3 46.1h-41.1v-29.9h41.1v29.9zm0-46.1h-41.1v-29.9h41.1v29.9zm-221.1-46.2h-25.2c-4.5 0-8.1 3.6-8.1 8.1s3.6 8.1 8.1 8.1h25.2c4.5 0 8.1-3.6 8.1-8.1 0-4.4-3.6-8.1-8.1-8.1zm0 26.3h-25.2c-4.5 0-8.1 3.6-8.1 8.1s3.6 8.1 8.1 8.1h25.2c4.5 0 8.1-3.6 8.1-8.1s-3.6-8.1-8.1-8.1zm-77.4-26.3h-25.1c-4.5 0-8.1 3.6-8.1 8.1s3.6 8.1 8.1 8.1h25.1c4.5 0 8.1-3.6 8.1-8.1 0-4.4-3.6-8.1-8.1-8.1zm0 26.3h-25.1c-4.5 0-8.1 3.6-8.1 8.1s3.6 8.1 8.1 8.1h25.1c4.5 0 8.1-3.6 8.1-8.1s-3.6-8.1-8.1-8.1zm-77.4-26.3H48.8c-4.5 0-8.1 3.6-8.1 8.1s3.6 8.1 8.1 8.1H74c4.5 0 8.1-3.6 8.1-8.1-.1-4.4-3.7-8.1-8.2-8.1zm0 26.3H48.8c-4.5 0-8.1 3.6-8.1 8.1s3.6 8.1 8.1 8.1H74c4.5 0 8.1-3.6 8.1-8.1s-3.7-8.1-8.2-8.1z"/></svg>