<svg xmlns="http://www.w3.org/2000/svg" width="189.859" height="189.859" viewBox="0 0 3461 3461" shape-rendering="geometricPrecision" text-rendering="geometricPrecision" image-rendering="optimizeQuality" fill-rule="evenodd" clip-rule="evenodd"><defs><style>.fil0{fill:#194c9b}.fil1{fill:#dc001b}</style></defs><g id="Слой_x0020_1"><g id="_1612413459296"><path class="fil0" d="M2411 2639h216c109 0 199-85 199-187v-773c0-102-90-187-199-187h-216V702c0-68-61-124-134-124H1181c-73 0-134 56-134 124v51c-165 30-291 163-291 326s126 299 291 326v85H831c-109 0-199 85-199 187v773c0 102 90 187 199 187h216l1364 2zM851 992h65c15 0 27 0 34 2 10 2 20 7 27 15 7 7 12 17 17 26 5 10 5 25 5 39 0 15-3 27-5 37-5 12-12 21-19 29-8 5-15 10-25 14-7 3-19 3-31 3h-68V992zm36 26v112h27c9 0 17 0 22-2 5-3 9-5 14-8 5-2 8-9 10-17 2-7 5-17 5-31 0-15 0-22-5-29-2-8-5-13-10-17-5-5-9-8-17-8-5 0-14-2-29-2h-17v2zm139 56c0-17 2-31 7-44 5-7 10-17 17-21 7-8 14-13 24-15 12-5 24-7 39-7 27 0 49 7 63 22 17 14 25 36 25 63 0 26-8 48-25 63s-36 22-63 22-49-7-63-22c-17-12-24-34-24-61zm36 0c0 20 5 34 15 44 9 10 21 15 36 15s27-5 37-15c9-10 14-24 14-44 0-19-5-34-14-44-10-9-22-14-37-14s-27 5-36 14c-10 10-15 25-15 44zm282 22l36 10c-4 19-14 31-26 41-13 10-30 15-49 15-24 0-44-8-58-22-15-15-25-37-25-63 0-27 8-49 25-66 14-15 36-24 60-24 22 0 39 5 54 17 7 7 15 17 19 31l-36 8c-2-10-7-15-12-20-8-5-15-7-25-7-12 0-24 5-31 12-7 10-12 24-12 44 0 22 5 36 12 46s19 15 31 15c10 0 17-3 25-10 2-5 9-15 12-27zm-182-343c175 22 308 161 308 328 0 168-133 307-308 329v82h1135V702c0-9-8-17-20-17H1181c-10 0-19 8-19 17v51zm1249 1495c0 68-59 124-131 124H1184c-73 0-134-56-134-124l2-44-2-138c0-29 24-54 56-54h1249c29 0 53 20 56 44v192zm216 284c46 0 88-36 88-80v-773c0-43-39-80-88-80H834c-47 0-88 37-88 80v773c0 44 39 80 88 80h1793zm-330-301c0 10-8 34-20 34H1181c-10 0-19-7-19-17v-129h1135v112z"/><path class="fil0" d="M926 1769c-10 10-17 25-17 37 0 14 7 26 17 36s24 15 41 15c15 0 29-5 39-15s17-24 17-36c0-15-5-27-17-37-22-19-58-19-80 0zm1179-724h-489c-31 0-56 24-56 53 0 30 25 54 56 54h489c31 0 55-24 55-54 0-29-24-53-55-53zm0 204h-489c-31 0-56 24-56 54 0 29 25 53 56 53h489c31 0 55-24 55-53 0-32-24-54-55-54zm0-420h-489c-31 0-56 24-56 53s25 54 56 54h489c31 0 55-25 55-54s-24-53-55-53z"/></g><path class="fil1" d="M1730 3461C778 3461 0 2685 0 1730S775 0 1730 0c953 0 1731 775 1731 1730s-778 1731-1731 1731zm0-3288C872 173 173 870 173 1730c0 858 697 1558 1557 1558 861 0 1558-697 1558-1558-2-858-700-1557-1558-1557z"/></g></svg>