<svg xmlns="http://www.w3.org/2000/svg" width="61.864" height="61.864" viewBox="0 0 471 471" shape-rendering="geometricPrecision" text-rendering="geometricPrecision" image-rendering="optimizeQuality" fill-rule="evenodd" clip-rule="evenodd"><defs><style>.fil0{fill:#004c99}.fil1{fill:#dc001b}</style></defs><g id="Слой_x0020_1"><path class="fil0" d="M236 471C106 471 0 366 0 236S106 0 236 0s235 106 235 236-105 235-235 235zm0-441C123 30 30 123 30 236c0 112 93 205 206 205 112 0 205-93 205-205 0-113-91-206-205-206z" id="_1612413485984"/><path class="fil1" d="M274 279l-21 22-87-88 21-21-55-55s-26 24-27 43c-2 25 24 72 67 114 42 42 88 69 113 67 20-2 43-28 43-28l-54-54z"/><circle class="fil0" cx="237" cy="154" r="13"/><circle class="fil0" cx="288" cy="154" r="13"/><circle class="fil0" cx="338" cy="154" r="13"/></g></svg>