<svg id="Layer_1" xmlns="http://www.w3.org/2000/svg" viewBox="0 0 512 512"><style>.st0{fill:#004c99}</style><path class="st0" d="M366.9 476.4H128c-5.5 0-10 4.5-10 10v17.1c0 5.5 4.5 10 10 10s10-4.5 10-10v-7h228.9c5.5 0 10-4.5 10-10 .1-5.6-4.4-10.1-10-10.1zM186.2 213.3c0 5.5 4.5 10 10 10h34.1c5.5 0 10-4.5 10-10v-51.2c0-5.5-4.5-10-10-10h-34.1c-5.5 0-10 4.5-10 10v51.2zm34.2-41.1v31.1h-14.1v-31.1h14.1zM121 110.9c0-5.5-4.5-10-10-10H8.5c-5.5 0-10 4.5-10 10v170.7c0 5.5 4.5 10 10 10s10-4.5 10-10V121h92.4c5.6 0 10.1-4.5 10.1-10.1zm287.1 307.2c0 5.5 4.5 10 10 10h34.1c5.5 0 10-4.5 10-10v-51.2c0-5.5-4.5-10-10-10h-34.1c-5.5 0-10 4.5-10 10v51.2zm20.1-10V377h14.1v31.1h-14.1zM42.7 305.7c-18.3 0-31.3 18.9-38.6 56.3-5.5 28-5.5 55.9-5.5 56.2 0 20.5 14.3 38.4 34.1 43v42.3c0 5.5 4.5 10 10 10s10-4.5 10-10v-42.3c19.9-4.6 34.1-22.5 34.1-43 0-.3-.1-28.5-5.5-56.2-7.3-37.4-20.3-56.3-38.6-56.3zm0 20.1c11.9 0 24.1 46.6 24.1 92.4 0 13.3-10.8 24.1-24.1 24.1s-24.1-10.8-24.1-24.1c0-45.8 12.1-92.4 24.1-92.4zm51.2-71.3H59.7c-5.5 0-10 4.5-10 10v17.1c0 5.5 4.5 10 10 10s10-4.5 10-10v-7h14.1v41.2c0 5.5 4.5 10 10 10s10-4.5 10-10v-51.2c0-2.7-1-5.2-2.9-7.1-1.8-2-4.4-3-7-3zm324.2-31.1h34.1c5.5 0 10-4.5 10-10v-51.2c0-5.5-4.5-10-10-10h-34.1c-5.5 0-10 4.5-10 10v51.2c0 5.5 4.5 10 10 10zm10.1-20.1v-31.1h14.1v31.1h-14.1z"/><path class="st0" d="M93.9 152.1H59.7c-5.5 0-10 4.5-10 10v51.2c0 5.5 4.5 10 10 10h34.1c5.5 0 10-4.5 10-10v-51.2c0-2.7-1-5.2-2.9-7.1s-4.4-2.9-7-2.9zm-10.1 20.1v31.1h-14v-31.1h14zm187.8 41.1c0 5.5 4.5 10 10 10h34.1c5.5 0 10-4.5 10-10v-51.2c0-5.5-4.5-10-10-10h-34.1c-5.5 0-10 4.5-10 10v51.2zm20-10v-31.1h14.1v31.1h-14.1zm211.9-102.4H401.1c-5.5 0-10 4.5-10 10s4.5 10 10 10h92.4v339.3c-3.6-1-7.2-1.2-10.6-.8-6.4-10.7-18-17.3-30.5-17.3-12.6 0-24.2 6.6-30.5 17.3-1.2-.2-2.4-.2-3.6-.2-14.9 0-27.1 12.2-27.1 27.1 0 14.9 12.2 27.1 27.1 27.1h68.3c14.9 0 27.1-12.2 27.1-27.1V110.9c-.2-5.5-4.7-10-10.2-10zm-66.3 373.4c1.6-7.1 7.9-12 15.1-12 7.3 0 13.5 5 15.1 12 .7 3.2 3 5.8 6 7 3 1.2 6.5.9 9.2-.9 2.1-1.4 4.7-1.4 7.1-.1 2.3 1.3 3.8 3.6 3.8 6 0 3.9-3.2 7-7 7h-68.3c-3.9 0-7-3.2-7-7s3.2-7 7-7c1.3 0 2.6.4 3.8 1.2 2.7 1.8 6.2 2.1 9.2.9 3-1.2 5.2-3.9 6-7.1zM281.6 121h34.1c5.5 0 10-4.5 10-10V59.7c0-5.5-4.5-10-10-10h-34.1c-5.5 0-10 4.5-10 10v51.2c0 5.6 4.5 10.1 10 10.1zm10-20.1V69.8h14.1v31.1h-14.1zm-20 214.8c0 5.5 4.5 10 10 10h34.1c5.5 0 10-4.5 10-10v-51.2c0-5.5-4.5-10-10-10h-34.1c-5.5 0-10 4.5-10 10v51.2zm20-10v-31.1h14.1v31.1h-14.1zM230.4 121c5.5 0 10-4.5 10-10V59.7c0-5.5-4.5-10-10-10h-34.1c-5.5 0-10 4.5-10 10v51.2c0 2.7 1 5.2 2.9 7.1 1.9 1.9 4.4 2.9 7.1 2.9h34.1zm-10-51.2v31.1h-14.1V69.8h14.1zM248.9 411c-1.9 2-2.9 4.6-2.9 7.1 0 2.6 1.1 5.2 2.9 7.1 1.9 1.8 4.5 2.9 7.1 2.9 2.6 0 5.2-1.1 7.1-2.9 1.8-1.9 2.9-4.5 2.9-7.1 0-2.6-1.1-5.2-2.9-7.1-3.8-3.8-10.4-3.8-14.2 0zm-52.6-85.2h34.1c5.5 0 10-4.5 10-10v-51.2c0-5.5-4.5-10-10-10h-34.1c-5.5 0-10 4.5-10 10v51.2c-.1 5.5 4.4 10 10 10zm24.1-51.2v31.1h-14.1v-31.1h14.1z"/><path class="st0" d="M169.2 366.9c0 5.5 4.5 10 10 10h24.1v75.3c0 5.5 4.5 10 10 10s10-4.5 10-10V377h65.3v75.3c0 5.5 4.5 10 10 10s10-4.5 10-10V377h24.1c5.5 0 10-4.5 10-10s-4.5-10-10-10H179.2c-5.5-.1-10 4.4-10 9.9zm238.9-51.2c0 5.5 4.5 10 10 10h34.1c5.5 0 10-4.5 10-10v-51.2c0-5.5-4.5-10-10-10h-34.1c-5.5 0-10 4.5-10 10v51.2zm20.1-10v-31.1h14.1v31.1h-14.1z"/><path class="st0" d="M366.9-1.5H145.1c-5.5 0-10 4.5-10 10v443.7c0 5.5 4.5 10 10 10s10-4.5 10-10V18.6h201.8v433.7c0 5.5 4.5 10 10 10s10-4.5 10-10V8.5c0-2.7-1-5.2-2.9-7.1-1.9-1.9-4.4-2.9-7.1-2.9z"/></svg>