<svg xmlns="http://www.w3.org/2000/svg" width="113.328" height="113.328" viewBox="0 0 6654 6654" shape-rendering="geometricPrecision" text-rendering="geometricPrecision" image-rendering="optimizeQuality" fill-rule="evenodd" clip-rule="evenodd"><defs><style>.fil0{fill:#194c9b}.fil1{fill:#d30017}</style></defs><g id="Слой_x0020_1"><path class="fil0" d="M3327 6654C1487 6654 0 5159 0 3327S1495 0 3327 0s3327 1495 3327 3327-1487 3327-3327 3327zm0-6106C1793 548 548 1793 548 3327c0 1535 1245 2779 2779 2779 1535 0 2779-1244 2779-2779 0-1534-1244-2779-2779-2779z"/><path class="fil1" d="M2717 2576c0-243 23-877 736-877 540 0 673 399 673 634 0 313-79 391-446 767-392 399-525 564-525 1198h485c-7-548 133-673 486-1018 376-360 524-548 524-916 0-712-556-1088-1174-1088-298 0-587 86-806 258-408 314-423 666-439 1042h486zm970 2168h-540v572h540v-572z"/></g></svg>