<svg xmlns="http://www.w3.org/2000/svg" viewBox="25.9 122.3 543.4 597.3"><g fill="#FCFCFC"><path d="M566.3 611L444.7 489.4l48.2-17.5c4.7-1.7 7.5-6.5 6.6-11.4l-13.2-75.1 38.1-66c2.5-4.3 1.5-9.8-2.3-13l-58.4-49-13.2-75.1c-.9-4.9-5.1-8.5-10.1-8.5h-76.2l-58.4-49c-1.8-1.6-4.2-2.4-6.6-2.4-2.4 0-4.8.9-6.6 2.4l-58.4 49H158c-5 0-9.3 3.6-10.1 8.5l-13.2 75.1-58.4 49c-3.8 3.2-4.8 8.7-2.3 13l38.1 66-13.2 75.1c-.9 4.9 1.9 9.7 6.6 11.4l46.1 16.8L28.9 611c-2.8 2.8-3.8 7.1-2.4 10.8 1.4 3.7 4.8 6.4 8.8 6.7l75.3 6.3 6.3 75.3c.3 4 3 7.4 6.7 8.8 1.1.4 2.3.6 3.5.6 2.7 0 5.3-1.1 7.3-3l163.2-163.2 163.2 163.2c1.9 1.9 4.5 3 7.3 3 1.2 0 2.4-.2 3.5-.6 3.7-1.4 6.4-4.8 6.7-8.8l6.3-75.3 75.3-6.3c4-.3 7.4-3 8.8-6.7 1.4-3.7.5-8-2.4-10.8zm-195.6-42.6c1.1.4 2.3.6 3.5.6 3.7 0 7.1-2 8.9-5.1l38.1-66 2.1-.8 112.8 112.8-61.9 5.2c-5 .4-9 4.4-9.4 9.4l-5.2 61.9-134.4-134.5 45.5 16.5zm-198-72l4.2 1.5 38.1 66c1.8 3.2 5.2 5.1 8.9 5.1 1.2 0 2.4-.2 3.5-.6l41-14.9-132.8 132.9-5.2-61.9c-.4-5-4.4-9-9.4-9.4l-61.9-5.2 113.6-113.5zm14.8-16.5l-67-24.4 12.4-70.3c.4-2.4 0-4.8-1.2-6.9L96 316.5l54.7-45.9c1.9-1.6 3.1-3.7 3.5-6.1l12.4-70.3h71.3c2.4 0 4.8-.9 6.6-2.4l54.7-45.9 54.7 45.9c1.8 1.6 4.2 2.4 6.6 2.4h71.3l12.4 70.3c.4 2.4 1.7 4.5 3.5 6.1l54.7 45.9-35.7 61.8c-1.2 2.1-1.6 4.5-1.2 6.9l12.4 70.3-67 24.4c-2.3.8-4.2 2.4-5.4 4.5l-35.7 61.8-67-24.4c-2.3-.8-4.8-.8-7 0l-67 24.4-35.7-61.8c-1.5-2.1-3.4-3.7-5.6-4.5z"/><path d="M299.1 492.8c76.9 0 139.4-62.5 139.4-139.4S376 214 299.1 214s-139.4 62.5-139.4 139.4c0 76.8 62.6 139.4 139.4 139.4zm-120-139.4c0-66.2 53.8-120 120-120s120 53.8 120 120-53.8 120-120 120-120-53.9-120-120z"/><path d="M222.6 334l40.4 29.4-15.4 47.6c-1.1 3.3.1 6.8 2.9 8.8 1.4 1 3 1.5 4.6 1.5 1.7 0 3.3-.5 4.6-1.5l40.4-29.4 40.4 29.4c2.7 2 6.5 2 9.3 0 2.8-2 3.9-5.5 2.9-8.8l-15.4-47.5 40.4-29.4c2.8-2 3.9-5.5 2.9-8.8-1.1-3.3-4.1-5.4-7.5-5.4h-50l-15.4-47.5c-1.1-3.3-4.1-5.4-7.5-5.4-3.4 0-6.4 2.2-7.5 5.4l-15.4 47.5h-50c-3.4 0-6.4 2.2-7.5 5.4-1.1 3.2 0 6.7 2.8 8.7zm97.9 28.8l9.7 29.9-25.5-18.5c-2.7-2-6.5-2-9.3 0L270 392.8l9.7-29.9c1.1-3.3-.1-6.8-2.9-8.8l-25.5-18.5h31.5c3.4 0 6.4-2.2 7.5-5.4l9.7-29.9 9.7 29.9c1.1 3.3 4.1 5.4 7.5 5.4h31.5L323.4 354c-2.8 2.1-4 5.6-2.9 8.8z"/></g></svg>