<svg xmlns="http://www.w3.org/2000/svg" viewBox="0 0 79.31 95"><defs><style>.cls-1{fill:#004c99}</style></defs><title>преимущества 4</title><g id="Слой_2" data-name="Слой 2"><g id="Слой_1-2" data-name="Слой 1"><path class="cls-1" d="M25.32 21.95h-9.84a1.86 1.86 0 1 0 0 3.71h9.83a1.86 1.86 0 0 0 0-3.71z"/><path class="cls-1" d="M77.46 55.4H58.12a1.85 1.85 0 0 0-1.37.61l-3.22-2.48a8.92 8.92 0 0 1-3.45-7v-8.46A6.09 6.09 0 0 0 44 32a9.79 9.79 0 0 0-9.78 9.78v9.39h-3.79V36.25A20.4 20.4 0 0 0 29.4.19a1.86 1.86 0 0 0-2.68 1.66v12.37H14.08V1.86A1.86 1.86 0 0 0 11.4.19a20.4 20.4 0 0 0-1 36.06v14.9H8.5a5.69 5.69 0 0 0-5.7 5.69v32.47A5.7 5.7 0 0 0 8.5 95H46a12.65 12.65 0 0 0 7.58-2.54l2.74-2.07a1.85 1.85 0 0 0 1.85 1.72h19.29a1.86 1.86 0 0 0 1.86-1.86v-33a1.86 1.86 0 0 0-1.86-1.85zM3.71 18.5a16.57 16.57 0 0 1 6.65-13.34v10.91a1.86 1.86 0 0 0 1.86 1.86h16.36a1.86 1.86 0 0 0 1.86-1.86V5.16a16.69 16.69 0 0 1-8.33 29.94h-3.39A16.71 16.71 0 0 1 3.71 18.5zm10.37 19.4a20 20 0 0 0 2.69.67h.06l.87.14h5.4l.88-.14H24a20 20 0 0 0 2.69-.67v13.25H14.08zM6.52 56.84a2 2 0 0 1 2-2h21.31a3.23 3.23 0 0 1 3.09 3.07 3.18 3.18 0 0 1 0 .32v.74l-.06.17-.05.12-.07.16-.07.12-.08.15-.08.11-.1.14-.09.1-.11.13-.1.1-.12.11-.11.09-.13.1-.12.08-.14.09-.12.07-.14.08-.13.06-.15.06h-.91a3.17 3.17 0 0 1-3-3.25A1.86 1.86 0 0 0 25.12 56h-.05a1.86 1.86 0 0 0-1.85 1.8 6.84 6.84 0 0 0 .78 3.38h-7.17a1.86 1.86 0 0 0 0 3.71h13a3.16 3.16 0 0 1 3.06 3.16v1.05l-.06.16-.06.12-.07.15-.07.12-.08.14-.08.11-.09.13-.09.1-.1.12-.1.1-.11.11-.11.09-.12.09-.12.08-.13.08-.13.07-.14.07L31 71l-.15.06h-.9a3.14 3.14 0 0 1-3-3.16 1.86 1.86 0 0 0-3.71 0 6.9 6.9 0 0 0 .76 3.32H6.52zM32.9 88.5v.59l-.05.14v.13l-.08.16-.05.1-.1.17v.08l-.13.18v.05l-.16.18-.2.18-.23.18a3.31 3.31 0 0 1-.78.41l-.27.08-.24.05h-.37a3.22 3.22 0 0 1-3-3.09 1.86 1.86 0 0 0-1.85-1.82 1.86 1.86 0 0 0-1.82 1.89 6.72 6.72 0 0 0 .79 3H8.5a2 2 0 0 1-.95-.16 2 2 0 0 1-1-1.74V85h23.32a3.15 3.15 0 0 1 3 2.9 3.24 3.24 0 0 1 0 .32c.05.07.05.18.03.28zm0-10.09v.73l-.06.16-.06.12-.07.15-.07.12-.08.14-.08.11-.09.13-.09.11-.1.12-.1.1-.11.11-.11.09-.12.1-.12.08-.13.08-.13.07-.14.07H31l-.15.06h-.89a3.14 3.14 0 0 1-3-3.15 1.86 1.86 0 0 0-3.71 0 6.89 6.89 0 0 0 .75 3.34H6.52v-6.32h23.35a3.14 3.14 0 0 1 3.06 3.16q0 .16-.02.32zm23.35-8.8a12.75 12.75 0 0 1-12.62-7.37 1.86 1.86 0 0 0-3.38 1.54 16.37 16.37 0 0 0 14.92 9.59h1.07v12.37l-5 3.76A8.92 8.92 0 0 1 46 91.29H35.85a6.78 6.78 0 0 0 .36-.78q.11-.3.2-.61t.14-.64a6.73 6.73 0 0 0 .09-1v-.35a6.82 6.82 0 0 0-2-4.65l-.15-.15.24-.23.06-.07.16-.18.08-.1.13-.16.09-.11.12-.15.08-.12.11-.16.08-.13.1-.16.07-.13.09-.16.07-.14.08-.17.06-.14.07-.17.06-.14.06-.18v-.15l.05-.18v-3.8l-.03-.18v-.15l-.06-.17-.06-.15-.07-.17-.13-.12-.08-.16-.07-.14-.08-.16-.08-.14-.09-.16-.08-.13-.1-.15-.09-.12-.11-.15-.09-.12-.13-.15-.09-.1-.15-.16-.08-.08-.23-.23.24-.23.08-.08.15-.16.09-.1.13-.15.09-.12.11-.15.09-.12.1-.15.08-.13.09-.16.08-.14.08-.16.07-.14.08-.16.06-.14.07-.17.06-.15.06-.17v-.15l.05-.18v-1.89a6.84 6.84 0 0 0-2-4.86l.15-.23.14-.14.11-.11.14-.15.15-.1.14-.17.08-.09.2-.27v-.07l.14-.22.07-.12.11-.18.07-.13.09-.17.07-.14.08-.18.06-.15.07-.18.05-.15.06-.18v-.15l.05-.19v-2.25c0-.11 0-.42-.08-.62 0-.08 0-.17-.05-.25v-.07c0-.1 0-.2-.08-.3l.18-.27v-.05l-.09-.24v-.06l-.1-.25-.12-.33-.09-.17h.21a1.86 1.86 0 0 0 1.79-1.9V41.76A6.08 6.08 0 0 1 44 35.69a2.38 2.38 0 0 1 2.38 2.38v8.45a12.66 12.66 0 0 0 4.9 10l5 3.85v9.23zM69.64 88.4V71.93a1.86 1.86 0 1 0-3.71 0V88.4H60V59.11h15.6V88.4z"/><path class="cls-1" d="M12.22 62.67a2 2 0 0 0-.11-.35 1.9 1.9 0 0 0-.17-.32 1.79 1.79 0 0 0-.23-.28 1.85 1.85 0 0 0-.6-.4 1.92 1.92 0 0 0-.35-.11 1.84 1.84 0 0 0-.73 0 1.87 1.87 0 0 0-.35.11 1.83 1.83 0 0 0-.6.4 1.76 1.76 0 0 0-.23.28 1.88 1.88 0 0 0-.17.32 2 2 0 0 0-.11.35 1.86 1.86 0 0 0 0 .36 1.83 1.83 0 0 0 0 .36 1.87 1.87 0 0 0 .11.35 1.83 1.83 0 0 0 .17.32 1.8 1.8 0 0 0 .51.51 1.91 1.91 0 0 0 .32.17 1.88 1.88 0 0 0 .35.11 1.79 1.79 0 0 0 .73 0 1.92 1.92 0 0 0 .35-.11 1.88 1.88 0 0 0 .32-.17 1.84 1.84 0 0 0 .51-.51 1.84 1.84 0 0 0 .17-.32 1.87 1.87 0 0 0 .11-.35 1.81 1.81 0 0 0 0-.36 1.86 1.86 0 0 0 0-.36zm57.39 1.48a1.74 1.74 0 0 0-.11-.35 1.86 1.86 0 0 0-.4-.6 1.88 1.88 0 0 0-.6-.4 1.93 1.93 0 0 0-.35-.11 1.83 1.83 0 0 0-.72 0 1.93 1.93 0 0 0-.35.11 1.88 1.88 0 0 0-.6.4 1.86 1.86 0 0 0-.4.6 1.74 1.74 0 0 0-.11.35 1.79 1.79 0 0 0 0 .73 1.74 1.74 0 0 0 .11.35 2 2 0 0 0 .17.32 1.86 1.86 0 0 0 .23.28 1.78 1.78 0 0 0 .28.23 1.88 1.88 0 0 0 .32.17 1.93 1.93 0 0 0 .35.11 1.87 1.87 0 0 0 .72 0 1.93 1.93 0 0 0 .35-.11 1.88 1.88 0 0 0 .32-.17 1.78 1.78 0 0 0 .28-.23 1.86 1.86 0 0 0 .23-.28 2 2 0 0 0 .17-.32 1.74 1.74 0 0 0 .11-.35 1.8 1.8 0 0 0 0-.73z"/></g></g></svg>