<svg xmlns="http://www.w3.org/2000/svg" viewBox="0 0 5547.5 1128.3"><path fill="#194C9B" d="M4000.8 507.1c-1.2 15.4-1.9 31.2-1.9 47.4 0 131.4 57.9 252.9 148.6 341.9 91.9 90.2 217.4 146.9 350.4 146.9h11.4c112.4-2.7 213.3-45.8 290.7-115.5h116.5c-8.6 10.6-17.5 20.9-26.8 30.8-95.2 101.5-228.1 165.7-378.4 169.3-8.7.2-13.2.3-13.4.3-155.8 0-302.6-66.2-409.9-171.5-106.3-104.3-174.2-247.2-174.2-402.3 0-16.2.6-32 1.6-47.4h85.4zm65.5-344.8c8.2-8.2 16.6-16.1 25.3-23.6C4197.5 46.2 4338 0 4478 0c81.1 0 162.3 15.5 237 46.5 75.1 31.2 143.4 78 198.1 140.7 79 90.6 129 213.1 129 367.3h-.1c.2 8.4.3 12.9.3 13.4 0 16.8-.7 33.4-2.1 49.9h-85.4c1.6-16.4 2.4-33 2.4-49.9v-12.4l-.2-1c0-132.1-41.8-235.9-107.8-311.5-45.7-52.4-103.2-91.8-166.8-118.1-63.9-26.6-134-39.9-204.4-39.9-97.9 0-195.5 25.7-276.8 77.2h-134.9z"/><path fill-rule="evenodd" clip-rule="evenodd" fill="#D10009" d="M3610.8 93.8l-218.9 241.1 221.5 241 1.1-111.7 500.4.7 171.5 424.8h265.7l-252.3-687.6-684.9 1.6z"/><path fill-rule="evenodd" clip-rule="evenodd" fill="#194C9B" d="M4355.1 202.1l277.7-.7 171.5 456.3h511.2v-92.8l232 220.6L5316.9 997l-.4-103.9-687.1-3.4z"/><path fill-rule="evenodd" clip-rule="evenodd" fill="#004C99" d="M1.3 920L141 204l.9-4.6h477.9l-1.3 6.7-23.3 120-.9 4.6H264.6l-31 159.6h322.9l-1.3 6.7-23.3 120-.9 4.6H208L149.5 922l-.9 4.6H0l1.3-6.6zm722.3-720.6H867l-1.4 6.8-79.1 389.5v.1l-20 95.2c-1.1 8.4-2.6 19.2-4.3 30.7.1 12 2.5 23 7.3 32.8 4.8 10 12.2 19 22 26.9 9.9 7.9 22.1 13.9 36.5 17.9 14.7 4.1 31.7 6.1 51.2 6.1 17.5 0 33.5-1.6 47.8-4.9 14.3-3.2 27-8.1 38.2-14.5 11.1-6.3 21.1-14.3 29.7-23.8 8.8-9.6 16.2-20.7 22.5-33.4 6.2-13 12.6-30.6 19-52.8 6.4-22.3 12.9-49.2 19.5-80.6l76.3-391.3.9-4.6h148.4l-1.3 6.7-79 405.5v.1c-8.3 39.7-17.3 74.7-26.9 105-9.7 30.6-20 56.7-31 78.1-11.1 21.5-25.1 40.9-41.9 58.4-16.8 17.4-36.4 32.8-58.8 46.2-22.5 13.5-47.9 23.6-76.3 30.3-28.3 6.7-59.4 10-93.4 10-40.8 0-76.8-5.2-108.3-15.7-31.6-10.5-58.4-26.3-80.3-47.4-22-21.1-38.4-45.1-49.4-72.2-11-27-16.4-57-16.4-89.9v-.3c.3-6.6.9-13.5 1.6-20.7.8-7.6 1.8-15.3 2.9-23 .7-5.4 2.5-15.9 5.4-31.4 2.9-15.4 6.5-34.6 11.1-57.7v-.1L718 203.9l.9-4.5h4.7zm1058.5 727.3h-131.3l-1.4-3.7-173.1-462.2-89.9 461.3-.9 4.6h-139l1.3-6.7 139.7-716 .9-4.6h136l1.4 3.7 173.6 460.3 89.4-459.4.9-4.6h138.9l-1.3 6.8-139.6 716-.9 4.6h-4.7zm133.5-6.7l139.7-716 .9-4.6h148.5l-1.3 6.7-55.8 286.4L2442.2 201l1.6-1.6h200l-10.4 9.8-295.3 277.9 217.3 431.4 4.1 8.2h-168l-1.6-3.2-160.5-334-123.5 116.1-42.2 216.5-.9 4.6h-148.5l1.3-6.7zm673.2 0l139.7-716 .9-4.6h505l-1.3 6.7-23.3 120-.9 4.6h-356.8l-30.4 150.7h345.7l-1.3 6.7-23.3 120-.9 4.6H2795l-37.1 182.7H3145l-1.3 6.7-23.3 120-.9 4.6h-531.9l1.2-6.7z"/></svg>