<svg xmlns="http://www.w3.org/2000/svg" viewBox="0 0 56 56"><defs><style>.cls-1{fill:#d80027}</style></defs><title>10 раз легче</title><g id="Слой_2" data-name="Слой 2"><g id="Слой_1-2" data-name="Слой 1"><path class="cls-1" d="M56 0a109.86 109.86 0 0 0-18.71 10.68c-18.38 13.7-24.63 31.37-24.63 31.37l6.6-3.05s-.35-2.39 3.13-6.45c3.94-4.6 8 1.64 12.71-1a48.62 48.62 0 0 0 5.1-3.32 15.83 15.83 0 0 1-6-3.09 41.5 41.5 0 0 0 10.32-.62 37.89 37.89 0 0 0 5.15-6.24A15.83 15.83 0 0 1 42.25 17a42.64 42.64 0 0 0 10.17-3.76C56.11 5 56 0 56 0z"/><path class="cls-1" d="M42.88 49.85H6.13V13.34h20.7l7.08-6.25H0V56h48.91V25.74l-6.03 5.8v18.31z"/></g></g></svg>