<?xml version="1.0" encoding="utf-8"?>
<!-- Generator: Adobe Illustrator 22.0.0, SVG Export Plug-In . SVG Version: 6.00 Build 0)  -->
<svg version="1.1" id="Слой_1" xmlns="http://www.w3.org/2000/svg" xmlns:xlink="http://www.w3.org/1999/xlink" x="0px" y="0px"
	 viewBox="0 0 14.9 16" style="enable-background:new 0 0 14.9 16;" xml:space="preserve">
<g>
	<path style="fill:#443125;" d="M14.9,5.8V3.6V3.4c0-1.2-1.1-2.3-2.5-2.3v0v0.6v0v0.6v0v0.3C12.5,3.3,11.8,4,11,4
		c-0.8,0-1.5-0.7-1.5-1.5V2.2V1.6V1.1H5.4v0.6v0.6v0.3C5.4,3.3,4.7,4,3.9,4C3.1,4,2.4,3.3,2.4,2.5V2.2v0V1.6v0V1.1v0
		C1.1,1.1,0,2.1,0,3.4v0.2v2.2v7.7C0,14.9,1.1,16,2.5,16h9.9c1.4,0,2.5-1.1,2.5-2.5L14.9,5.8L14.9,5.8z M13.8,13.5
		c0,0.8-0.6,1.4-1.4,1.4H2.5c-0.8,0-1.4-0.6-1.4-1.4V5.8h12.7V13.5z"/>
	<path style="fill:#443125;" d="M3.3,0.6v0.4v0.6v0.6v0.3c0,0.4,0.3,0.6,0.6,0.6c0.4,0,0.6-0.3,0.6-0.6V2.2V1.6V1.1V0.6
		C4.5,0.3,4.2,0,3.9,0C3.5,0,3.3,0.3,3.3,0.6z"/>
	<path style="fill:#443125;" d="M11,0c-0.4,0-0.6,0.3-0.6,0.6v0.4v0.6v0.6v0.3c0,0.4,0.3,0.6,0.6,0.6c0.4,0,0.6-0.3,0.6-0.6V2.2V1.6
		V1.1V0.6C11.6,0.3,11.4,0,11,0z"/>
</g>
</svg>
