<svg xmlns="http://www.w3.org/2000/svg" viewBox="0 0 47 34.24"><title>Ресурс 19</title><g id="Слой_2" data-name="Слой 2"><g id="Слой_1-2" data-name="Слой 1"><path d="M39.63,14.27,38.14,7.63a.7.7,0,0,0-.68-.55H32.57a.7.7,0,0,0,0,1.4h1.49v5.24H28.2V8.48h1.12a.7.7,0,0,0,0-1.4H20.53a.7.7,0,0,0-.67.49l-2.05,6.63a.7.7,0,0,0,.26.77.72.72,0,0,0,.43.13H38.93a.72.72,0,0,0,.38-.1A.7.7,0,0,0,39.63,14.27ZM26.8,13.72H19.43L21,8.48H26.8v5.24Zm8.66,0V8.48H36.9l1.18,5.24Z" fill="#727278"/><path d="M29.46,16.58H26.85a.7.7,0,1,0,0,1.4h2.61a.7.7,0,1,0,0-1.4Z" fill="#727278"/><path d="M11.2,24.93a3.15,3.15,0,1,0,3.15,3.15A3.15,3.15,0,0,0,11.2,24.93Zm0,4.9a1.75,1.75,0,1,1,1.75-1.75A1.75,1.75,0,0,1,11.2,29.83Z" fill="#727278"/><path d="M35.35,24.93a3.15,3.15,0,1,0,3.15,3.15A3.15,3.15,0,0,0,35.35,24.93Zm0,4.9a1.75,1.75,0,1,1,1.75-1.75A1.75,1.75,0,0,1,35.35,29.83Z" fill="#727278"/><path d="M27.69,25h-8a.7.7,0,0,0,0,1.4h8a.7.7,0,0,0,0-1.4Z" fill="#727278"/><path d="M46.3,8.38h-4l-1-3.56a.7.7,0,0,0-.67-.52H38.35V3h1.93A.72.72,0,0,0,41,2.3a.7.7,0,0,0-.7-.72h-2V.73A.72.72,0,0,0,37.68,0,.7.7,0,0,0,37,.7v.88H21.74V.73A.72.72,0,0,0,21.06,0a.7.7,0,0,0-.72.7v.88H18.84a.72.72,0,0,0-.73.68.7.7,0,0,0,.7.72h1.54V4.3H18.47a.7.7,0,0,0-.64.42l-3.19,7.44-10,1A2.63,2.63,0,0,0,2.3,15.57L1.64,24A3,3,0,0,0,0,26.7a3,3,0,0,0,3,2.87h2.2a6.16,6.16,0,0,0,12,0h1.35a.7.7,0,0,0,0-1.4H17.36s0-.06,0-.1a6.16,6.16,0,0,0-10.5-4.37v-.06H3.06l.63-8A1.24,1.24,0,0,1,4.8,14.54l10.4-1a.7.7,0,0,0,.57-.42l3.17-7.39H40.19L42,12.4l.73,11.26h-3v.06a6.16,6.16,0,0,0-10.5,4.37s0,.06,0,.1H21.78a.7.7,0,1,0,0,1.4h7.59a6.16,6.16,0,0,0,12,0h1.26a3,3,0,0,0,3-2.91,3,3,0,0,0-1.47-2.61L44,22.34H46.3a.7.7,0,0,0,.7-.7V9.07A.7.7,0,0,0,46.3,8.38ZM11.2,23.32a4.76,4.76,0,1,1-4.76,4.76A4.77,4.77,0,0,1,11.2,23.32ZM5.84,25a6.12,6.12,0,0,0-.8,3s0,.06,0,.1H3A1.56,1.56,0,1,1,3,25ZM37,4.3H21.74V3H37ZM35.35,32.84a4.76,4.76,0,1,1,4.76-4.76A4.77,4.77,0,0,1,35.35,32.84Zm8.86-6.23a1.57,1.57,0,0,1-1.56,1.56H41.5s0-.06,0-.1a6.12,6.12,0,0,0-.8-3h1.94A1.57,1.57,0,0,1,44.21,26.61Zm1.4-5.67H43.93l-.56-8.7a.69.69,0,0,0,0-.13l-.62-2.33H45.6Z" fill="#727278"/><path d="M8.25,16.15H5.73a.7.7,0,0,0-.7.7v3.91a.7.7,0,0,0,.7.7H8.25a.7.7,0,0,0,.7-.7V16.84A.7.7,0,0,0,8.25,16.15Zm-.7,3.91H6.43V17.54H7.55Z" fill="#727278"/></g></g></svg>