<svg xmlns="http://www.w3.org/2000/svg" viewBox="0 0 137 143.47"><title>Ресурс 23</title><g id="Слой_2" data-name="Слой 2"><g id="Слой_1-2" data-name="Слой 1"><path d="M48.08,111.39H23.65a2.3,2.3,0,0,0,0,4.59H48a2.31,2.31,0,0,0,2.3-2.3A2.28,2.28,0,0,0,48.08,111.39Z" fill="#634831"/><path d="M48.08,102.23H23.65a2.3,2.3,0,0,0,0,4.59H48a2.31,2.31,0,0,0,2.3-2.3A2.28,2.28,0,0,0,48.08,102.23Z" fill="#634831"/><path d="M48.08,93.1H23.65a2.3,2.3,0,0,0,0,4.59H48a2.31,2.31,0,0,0,2.3-2.3A2.28,2.28,0,0,0,48.08,93.1Z" fill="#634831"/><path d="M49.06,44.94l-.34-.14c-1-.36-1.93-.7-2.94-1V35.55a2.31,2.31,0,0,0-2.3-2.3h-.76V6.86A6.86,6.86,0,0,0,29,6.86V33.26h-.76a2.31,2.31,0,0,0-2.3,2.3v8.26c-1,.28-2,.62-2.94,1a1.71,1.71,0,0,0-.34.14A35.94,35.94,0,0,0,0,78.28V135a8.4,8.4,0,1,0,16.81,0V119.77a8.41,8.41,0,0,0-8.4-8.4,8.32,8.32,0,0,0-3.81.92v-34A31.3,31.3,0,0,1,21.38,50.57v6.36a8.41,8.41,0,0,0,8.4,8.4H42a8.41,8.41,0,0,0,8.4-8.4V50.57A31.3,31.3,0,0,1,67.18,78.28v34a8.32,8.32,0,0,0-3.81-.92,8.41,8.41,0,0,0-8.4,8.4v9.92H23.65a2.3,2.3,0,0,0,0,4.59H54.94v.76a8.4,8.4,0,1,0,16.81,0V78.28A36,36,0,0,0,49.06,44.94ZM8.4,116a3.81,3.81,0,0,1,3.81,3.81V135a3.81,3.81,0,1,1-7.62,0V119.77A3.79,3.79,0,0,1,8.4,116ZM33.56,6.86a2.3,2.3,0,1,1,4.59,0V33.26H33.59V6.86Zm-3.05,31H41.18v5a36.7,36.7,0,0,0-10.7,0v-5ZM45.78,56.93A3.81,3.81,0,0,1,42,60.74H29.75a3.81,3.81,0,0,1-3.81-3.81V48.64A31.32,31.32,0,0,1,35.86,47a30.55,30.55,0,0,1,9.92,1.62v8.29ZM67.16,135a3.81,3.81,0,1,1-7.62,0V119.77a3.81,3.81,0,1,1,7.62,0Z" fill="#634831"/><path d="M134.67,129.72h-9.22A11.45,11.45,0,0,0,115,120.58V44.71a2.29,2.29,0,0,0-1.51-2.16V27.76a27.76,27.76,0,0,0-55.53,0V43.2a2.3,2.3,0,1,0,4.59,0V27.76a23.2,23.2,0,1,1,46.4,0V42.42h-4.57V27.76a18.63,18.63,0,1,0-37.26,0V51.83a2.3,2.3,0,1,0,4.59,0V27.76a14,14,0,0,1,28.07,0V42.56a2.25,2.25,0,0,0-1.51,2.16v75.87a11.45,11.45,0,0,0-10.45,9.13H78.61a2.31,2.31,0,0,0-2.3,2.3v9.16a2.31,2.31,0,0,0,2.3,2.3H134.7a2.31,2.31,0,0,0,2.3-2.3V132A2.33,2.33,0,0,0,134.67,129.72ZM102.82,47h7.62v73.54h-7.62ZM99,125.12h15.27a6.86,6.86,0,0,1,6.47,4.57H92.54A6.9,6.9,0,0,1,99,125.12Zm33.4,13.76H80.88v-4.57h51.52Z" fill="#634831"/></g></g></svg>