<svg xmlns="http://www.w3.org/2000/svg" viewBox="0 0 74 74"><title>Ресурс 5</title><g id="Слой_2" data-name="Слой 2"><g id="Слой_1-2" data-name="Слой 1"><path d="M37,64.17a7.52,7.52,0,0,0,7.52-7.52V53a6.29,6.29,0,0,0-6.29-6.29H35.77A6.29,6.29,0,0,0,29.48,53v3.69A7.52,7.52,0,0,0,37,64.17Zm4.77-7.52a4.77,4.77,0,0,1-9.54,0V53a3.55,3.55,0,0,1,3.54-3.54h2.46A3.55,3.55,0,0,1,41.77,53Z" fill="#634831"/><path d="M12.43,64.17a7.52,7.52,0,0,0,7.52-7.52V53a6.29,6.29,0,0,0-6.29-6.29H11.2A6.29,6.29,0,0,0,4.91,53v3.69A7.52,7.52,0,0,0,12.43,64.17Zm4.77-7.52a4.77,4.77,0,0,1-9.54,0V53a3.55,3.55,0,0,1,3.54-3.54h2.46A3.55,3.55,0,0,1,17.2,53Z" fill="#634831"/><path d="M61.57,64.17a7.52,7.52,0,0,0,7.52-7.52V53a6.29,6.29,0,0,0-6.29-6.29H60.34A6.29,6.29,0,0,0,54.06,53v3.69A7.52,7.52,0,0,0,61.57,64.17Zm4.77-7.52a4.77,4.77,0,0,1-9.54,0V53a3.55,3.55,0,0,1,3.54-3.54H62.8A3.55,3.55,0,0,1,66.34,53Z" fill="#634831"/><path d="M67.71,66.34H55.43a7,7,0,0,0-6.14,3.14,7,7,0,0,0-6.14-3.14H30.86a7,7,0,0,0-6.14,3.14,7,7,0,0,0-6.14-3.14H6.29A6.29,6.29,0,0,0,0,72.63a1.37,1.37,0,1,0,2.74,0,3.55,3.55,0,0,1,3.54-3.54H18.57c1.64,0,3.67.45,4.84,4a1.37,1.37,0,0,0,2.6,0c1.18-3.52,3.21-4,4.84-4H43.14c1.64,0,3.67.45,4.84,4a1.37,1.37,0,0,0,2.6,0c1.18-3.52,3.21-4,4.84-4H67.71a3.55,3.55,0,0,1,3.54,3.54,1.37,1.37,0,0,0,2.74,0A6.29,6.29,0,0,0,67.71,66.34Z" fill="#634831"/><path d="M37,31.94a2.59,2.59,0,0,0-1.37,4.8v1.49a1.37,1.37,0,0,0,2.74,0V36.74A2.59,2.59,0,0,0,37,31.94Z" fill="#634831"/><path d="M43.14,32a1.38,1.38,0,0,0-1.36,1.19L41.12,38a1.37,1.37,0,0,0,2.72.37l.5-3.7c7.59.1,11.37,1.32,12.24,4a1.37,1.37,0,1,0,2.6-.87C57.48,32.66,50.56,32,43.34,32Z" fill="#634831"/><path d="M15.68,39.53a1.37,1.37,0,0,0,1.74-.87c.88-2.63,4.66-3.85,12.24-4l.5,3.7A1.37,1.37,0,0,0,32.89,38l-.67-4.9h0A1.38,1.38,0,0,0,30.86,32a40,40,0,0,0-10.09,1c-3.22.9-5.17,2.49-6,4.85a1.37,1.37,0,0,0,.87,1.74Z" fill="#634831"/><path d="M67.71,0H6.29A6.29,6.29,0,0,0,0,6.29V38.23a6.29,6.29,0,0,0,6.29,6.29H67.71A6.29,6.29,0,0,0,74,38.23V6.29A6.29,6.29,0,0,0,67.71,0Zm-65,6.29A3.55,3.55,0,0,1,6.29,2.75H67.71a3.55,3.55,0,0,1,3.54,3.54V38.23a3.55,3.55,0,0,1-3.54,3.54H6.29a3.55,3.55,0,0,1-3.54-3.54Z" fill="#634831"/><path d="M27.08,19.59A14.6,14.6,0,0,0,28.4,24.1c1.13,2.26,2.83,5.67,8.6,5.67s7.47-3.41,8.6-5.67a14.64,14.64,0,0,0,1.32-4.52,2.6,2.6,0,0,0,1.28-2.24V14.89A2.61,2.61,0,0,0,47,12.68v-.25a7.52,7.52,0,0,0-7.52-7.52H34.54A7.52,7.52,0,0,0,27,12.43v.25a2.61,2.61,0,0,0-1.23,2.21v2.46A2.6,2.6,0,0,0,27.08,19.59Zm2.69-5.93V12.43a4.78,4.78,0,0,1,4.77-4.77h4.91a4.78,4.78,0,0,1,4.77,4.77v1.23A1.37,1.37,0,0,0,45.46,15v2.18a1.37,1.37,0,0,0-1.23,1.36,11.29,11.29,0,0,1-1.08,4.3C41.89,25.38,40.78,27,37,27s-4.89-1.64-6.14-4.15a11.35,11.35,0,0,1-1.08-4.3,1.37,1.37,0,0,0-1.23-1.36V15A1.37,1.37,0,0,0,29.77,13.66Z" fill="#634831"/></g></g></svg>