<svg xmlns="http://www.w3.org/2000/svg" viewBox="0 0 35.31 40.3"><title>Ресурс 17</title><g id="Слой_2" data-name="Слой 2"><g id="Слой_1-2" data-name="Слой 1"><path d="M33.05,4H31.2a4.7,4.7,0,0,0-1.91-1.28V2.2a1.56,1.56,0,0,0-2.94-.74H23v0A1.44,1.44,0,0,0,21.55,0H10.86A1.44,1.44,0,0,0,9.43,1.44v0H6.06a1.56,1.56,0,0,0-2.94.74v.57A4.69,4.69,0,0,0,0,7.19V8.58H9.37V7.19A4.69,4.69,0,0,0,6.24,2.77V2.69H9.43v.14a1.44,1.44,0,0,0,1.44,1.44H21.55A1.44,1.44,0,0,0,23,2.83V2.69h3.18v.08A4.69,4.69,0,0,0,23,7.19V8.58h9.37V7.19A4.65,4.65,0,0,0,32,5.28h1.05a1,1,0,0,1,1,1V24.25a3.5,3.5,0,0,1-3.49,3.49H28.32v-7.2H22.16v-3h-2.1a3.91,3.91,0,0,0-3.24-3.25V10.84a3.91,3.91,0,0,0,3.9-3.9V5.3H19.49V6.94a2.67,2.67,0,0,1-2.67,2.67H15.59a2.67,2.67,0,0,1-2.67-2.67V5.3H11.69V6.94a3.91,3.91,0,0,0,3.9,3.9v3.49a3.91,3.91,0,0,0-3.24,3.25h-2.1v3H4.09V37H3.67a1.64,1.64,0,0,0,0,3.29H28.73a1.64,1.64,0,0,0,0-3.29h-.41V29h2.27a4.73,4.73,0,0,0,4.72-4.72V6.31A2.26,2.26,0,0,0,33.05,4ZM4.35,2.2A.33.33,0,0,1,5,2.2v.32H4.35V2.2ZM8.1,6.75a3.46,3.46,0,0,1,0,.44v.16H1.23V7.19a3.46,3.46,0,0,1,0-.44ZM7.7,5.51h-6a3.45,3.45,0,0,1,6,0ZM21.75,2.83a.21.21,0,0,1-.21.21H10.86a.21.21,0,0,1-.21-.21V1.44a.21.21,0,0,1,.21-.21H21.55a.21.21,0,0,1,.21.21ZM27.4,2.2a.33.33,0,0,1,.66,0v.32H27.4Zm.33,1.54a3.45,3.45,0,0,1,3,1.78h-6A3.45,3.45,0,0,1,27.73,3.74Zm3.45,3.61h-6.9V7.19a3.46,3.46,0,0,1,0-.44h6.84a3.46,3.46,0,0,1,0,.44v.16Zm-15,8.16a2.67,2.67,0,0,1,2.6,2.07H13.6A2.67,2.67,0,0,1,16.2,15.51Zm-4.72,3.3h9.45v1.73H11.48Zm-6.16,3H27.09V37H5.32ZM28.73,38.25a.41.41,0,1,1,0,.82H3.67a.41.41,0,1,1,0-.82Z" fill="#727278"/><path d="M16.2,22.61A6.78,6.78,0,1,0,23,29.39,6.79,6.79,0,0,0,16.2,22.61Zm0,12.32a5.55,5.55,0,1,1,5.55-5.55A5.55,5.55,0,0,1,16.2,34.94Z" fill="#727278"/><path d="M16.2,26.31a3.08,3.08,0,1,0,3.08,3.08A3.08,3.08,0,0,0,16.2,26.31Zm0,4.93a1.85,1.85,0,1,1,1.85-1.85A1.85,1.85,0,0,1,16.2,31.24Z" fill="#727278"/><circle cx="16.2" cy="25.08" r="0.62" fill="#727278"/><circle cx="16.2" cy="33.71" r="0.62" fill="#727278"/><circle cx="14.05" cy="25.66" r="0.62" fill="#727278"/><circle cx="18.36" cy="33.13" r="0.62" fill="#727278"/><circle cx="12.47" cy="27.24" r="0.62" fill="#727278"/><circle cx="19.94" cy="31.55" r="0.62" fill="#727278"/><circle cx="11.89" cy="29.39" r="0.62" fill="#727278"/><circle cx="20.52" cy="29.39" r="0.62" fill="#727278"/><circle cx="12.47" cy="31.55" r="0.62" fill="#727278"/><circle cx="19.94" cy="27.24" r="0.62" fill="#727278"/><circle cx="14.05" cy="33.13" r="0.62" fill="#727278"/><circle cx="18.36" cy="25.66" r="0.62" fill="#727278"/></g></g></svg>