<svg xmlns="http://www.w3.org/2000/svg" viewBox="0 0 57.41 57.39"><title>Ресурс 27</title><g id="Слой_2" data-name="Слой 2"><g id="Слой_1-2" data-name="Слой 1"><path d="M53.61,41a1.17,1.17,0,0,0-1.17-1.17H25.85a1.17,1.17,0,1,0,0,2.34H52.43A1.17,1.17,0,0,0,53.61,41Z" fill="#727278"/><path d="M48.64,20.88H44.85a1.17,1.17,0,1,0,0,2.34h3.79a1.17,1.17,0,0,0,0-2.34Z" fill="#727278"/><path d="M48.64,32.27H44.85a1.17,1.17,0,0,0,0,2.34h3.79a1.17,1.17,0,0,0,0-2.34Z" fill="#727278"/><path d="M48.64,26.58H44.85a1.17,1.17,0,1,0,0,2.34h3.79a1.17,1.17,0,0,0,0-2.34Z" fill="#727278"/><path d="M24,43.67h-.72V3.07A3.08,3.08,0,0,0,20.16,0H8.77A3.08,3.08,0,0,0,5.7,3.07V41A1.17,1.17,0,1,0,8,41v-38a.72.72,0,0,1,.72-.72H20.15a.72.72,0,0,1,.72.72V48.64a.72.72,0,0,1-.72.72H8.77A.72.72,0,0,1,8,48.64V44.85a1.17,1.17,0,0,0-1.17-1.17H5a2.49,2.49,0,0,1-2.63-2.63V6.86A2.59,2.59,0,0,1,3.66,4.61a1.17,1.17,0,0,0-1.18-2A5,5,0,0,0,0,6.86V41a4.81,4.81,0,0,0,5,5H5.7v2.63a3.08,3.08,0,0,0,3.07,3.07H20.16a3.08,3.08,0,0,0,3.07-3.07V46H24a1.17,1.17,0,0,0,0-2.35Z" fill="#727278"/><path d="M50.54,43.67a1.17,1.17,0,0,0-1.17,1.17V55.06H28.93V44.83a1.17,1.17,0,0,0-2.34,0V56.23a1.17,1.17,0,0,0,1.17,1.17H50.54a1.17,1.17,0,0,0,1.17-1.17V44.85A1.18,1.18,0,0,0,50.54,43.67Z" fill="#727278"/><path d="M32.62,51.37a1.15,1.15,0,0,0,.82.34h9.5a1.17,1.17,0,0,0,0-2.34H33.45a1.17,1.17,0,0,0-1.17,1.17A1.1,1.1,0,0,0,32.62,51.37Z" fill="#727278"/><path d="M33.45,47.92H44.85a1.17,1.17,0,1,0,0-2.34H33.45a1.17,1.17,0,0,0,0,2.34Z" fill="#727278"/><path d="M29.65,28.93h3.79a1.17,1.17,0,0,0,0-2.34H29.65a1.17,1.17,0,0,0,0,2.34Z" fill="#727278"/><path d="M29.65,23.23h3.79a1.17,1.17,0,1,0,0-2.34H29.65a1.17,1.17,0,1,0,0,2.34Z" fill="#727278"/><path d="M29.65,34.62h3.79a1.17,1.17,0,0,0,0-2.34H29.65a1.17,1.17,0,1,0,0,2.34Z" fill="#727278"/><path d="M52.43,1.9H25.85a1.17,1.17,0,1,0,0,2.34H52.43a2.63,2.63,0,0,1,2.63,2.63V42a2.66,2.66,0,0,1-1.3,2.27,1.16,1.16,0,0,0-.41,1.6,1.19,1.19,0,0,0,1,.58,1.1,1.1,0,0,0,.59-.17A5,5,0,0,0,57.41,42V6.86A5,5,0,0,0,52.43,1.9Z" fill="#727278"/><path d="M41,26.58H37.25a1.17,1.17,0,0,0,0,2.34H41a1.17,1.17,0,1,0,0-2.34Z" fill="#727278"/><path d="M49.81,10.67A1.17,1.17,0,0,0,48.64,9.5h-19a1.17,1.17,0,0,0-1.17,1.17v5.7a1.17,1.17,0,0,0,1.17,1.17h19a1.17,1.17,0,0,0,1.17-1.17Zm-2.34,1.17v3.35H30.83V11.84Z" fill="#727278"/><path d="M41,32.27H37.25a1.17,1.17,0,1,0,0,2.34H41a1.17,1.17,0,1,0,0-2.34Z" fill="#727278"/><path d="M41,20.88H37.25a1.17,1.17,0,0,0,0,2.34H41a1.17,1.17,0,1,0,0-2.34Z" fill="#727278"/></g></g></svg>