<svg xmlns="http://www.w3.org/2000/svg" viewBox="0 0 38 19.26"><title>Ресурс 18</title><g id="Слой_2" data-name="Слой 2"><g id="Слой_1-2" data-name="Слой 1"><path d="M37.34,19.25h.15l0,0,0,0,0,0,0,0,0,0,0,0,.05,0h0l0-.05,0,0,0,0,0,0,0,0,0,0,0,0v-.23a.82.82,0,0,0,0-.08V.82A.82.82,0,0,0,37.18,0H10.88l0,0,0,0,0,0,0,0,0,0,0,0,0,0,0,0,0,0h0l0,0,0,0,0,0,0,0,0,0,0,0V.76s0,0,0,0h0V5.91a.82.82,0,1,0,1.65,0V2.65l7.33,6.49-.11.09L12,16.45V11a.82.82,0,0,0-1.65,0v1H6.13a.82.82,0,1,0,0,1.65h4.26v4.75a.82.82,0,0,0,.82.82H37.34Zm-1-2.8L29.13,9.23h0l5.43-4.6a.82.82,0,1,0-1.07-1.26l-9.27,7.87L13.39,1.65h23v14.8ZM20.42,10.4a.82.82,0,0,0,.14-.19l3.08,2.73a.82.82,0,0,0,1.08,0l3.14-2.67.1.12,7.22,7.22h-22Z" fill="#727278"/><path d="M.82,9.39H14.74a.82.82,0,0,0,0-1.65H.82a.82.82,0,1,0,0,1.65Z" fill="#727278"/><path d="M2.27,4.84H8.52a.82.82,0,1,0,0-1.65H2.27a.82.82,0,1,0,0,1.65Z" fill="#727278"/><path d="M6.87,15.52h-6a.82.82,0,1,0,0,1.65h6a.82.82,0,1,0,0-1.65Z" fill="#727278"/></g></g></svg>