<?xml version="1.0" encoding="utf-8"?>
<!-- Generator: Adobe Illustrator 22.0.0, SVG Export Plug-In . SVG Version: 6.00 Build 0)  -->
<svg version="1.1" id="Layer_1" xmlns="http://www.w3.org/2000/svg" xmlns:xlink="http://www.w3.org/1999/xlink" x="0px" y="0px"
	 viewBox="0 0 512 512" style="enable-background:new 0 0 512 512;" xml:space="preserve">
<g>
	<g>
		<path style="fill:#63513D;" d="M35.5,281.1c17.4-16.3,41.5-27.5,68.1-31.3c8.1-1.2,17.1-2.5,26.8-3.9c47-6.8,109.5-15.9,164-22.5
			l27.8-59h-45c-5.6,0-10.2-4.6-10.2-10.2c0-25.3,20.6-45.9,45.9-45.9h78.8c5.6,0,10.2,4.6,10.2,10.2c0,25.3-20.6,45.9-45.9,45.9
			h-11.2l-26.5,56.3c20.3-2.3,38.8-4,54.1-5c33.3-2.1,65.5,9.8,90.7,33.4c27.3,25.7,43,62,43,99.6s-15.7,73.9-43,99.6
			c-5.2,4.9-10.7,9.3-16.4,13.1l33.2,33.2c4,4,4,10.4,0,14.4c-2,2-4.6,3-7.2,3c-2.6,0-5.2-1-7.2-3l-37.4-37.4
			c-15.1,6.7-31.4,10.3-48.1,10.3c-2.5,0-5-0.1-7.6-0.2c-54-3.4-150.2-17.2-220.5-27.3c-10.3-1.5-20.2-2.9-29.3-4.2L63.5,509
			c-2,2-4.6,3-7.2,3s-5.2-1-7.2-3c-4-4-4-10.4,0-14.4l48.1-48.1c-24-4.5-45.8-15-61.8-30.1c-19.2-18.1-29.4-41.5-29.4-67.7
			C6.1,322.6,16.2,299.2,35.5,281.1z M355.9,144c10.4,0,19.4-6.3,23.4-15.3h-66.5c-10.4,0-19.4,6.3-23.4,15.3H355.9z M106.4,427.3
			c13.6,1.9,30.4,4.3,48.2,6.9c69.9,10,165.7,23.8,218.9,27.2c27.6,1.8,54.4-8.2,75.4-27.9c23.3-21.8,36.6-52.7,36.6-84.7
			s-13.3-62.9-36.6-84.7c-19.5-18.3-43.8-28.1-69.2-28.1c-2.1,0-4.1,0.1-6.2,0.2c-58.9,3.7-168,19.6-240.2,30.1
			c-9.7,1.4-18.7,2.7-26.8,3.9c-39.8,5.7-80,32.3-80,78.7C26.5,395.3,66.6,421.8,106.4,427.3z"/>
	</g>
</g>
<g>
	<g>
		<path style="fill:#63513D;" d="M370.2,265.9c45.6,0,82.7,37.1,82.7,82.7s-37.1,82.7-82.7,82.7s-82.7-37.1-82.7-82.7
			C287.5,303,324.6,265.9,370.2,265.9z M370.2,411c34.4,0,62.3-28,62.3-62.3c0-34.4-28-62.3-62.3-62.3c-34.4,0-62.3,28-62.3,62.3
			S335.8,411,370.2,411z"/>
	</g>
</g>
<g>
	<g>
		<path style="fill:#63513D;" d="M81.6,225.9l1.6-6.1c1.4-5.5,7-8.7,12.4-7.4c5.5,1.4,8.7,7,7.4,12.4l-1.6,6.1
			c-1.2,4.6-5.3,7.7-9.9,7.7c-0.8,0-1.7-0.1-2.5-0.3C83.5,236.9,80.2,231.4,81.6,225.9z"/>
	</g>
</g>
<g>
	<g>
		<path style="fill:#63513D;" d="M40.2,46.5L51,17.3C56.1,3.6,71.3-3.4,85,1.6C91.6,4.1,96.9,9,99.8,15.4s3.2,13.6,0.8,20.2l-1.5,4
			l46,16c13.8,4.8,21.1,19.9,16.3,33.7c-3.7,10.6-13.7,17.7-25,17.7c-1.1,0-2.2-0.1-3.2-0.2l-22.4,87.5c-1.2,4.6-5.3,7.7-9.9,7.7
			c-0.8,0-1.7-0.1-2.5-0.3c-5.5-1.4-8.7-7-7.4-12.4l22.7-88.6l-57.4-20c-6.7-2.3-12.2-7.3-15.2-13.7C38,60.5,37.7,53.1,40.2,46.5z
			 M59.5,58.2c0.7,1.5,2,2.6,3.5,3.1l71.4,24.9c0.6,0.2,1.3,0.3,2,0.3c2.6,0,4.9-1.6,5.7-4.1c1.1-3.1-0.6-6.6-3.7-7.7L82.6,55.4
			c-2.6-0.9-4.7-2.8-5.9-5.3c-1.2-2.5-1.3-5.3-0.3-7.9l5.1-13.7c0.6-1.5,0.5-3.2-0.2-4.6c-0.7-1.5-1.9-2.6-3.4-3.1
			c-0.7-0.3-1.4-0.4-2.1-0.4c-2.5,0-4.8,1.5-5.7,3.9L59.3,53.6C58.7,55.1,58.8,56.8,59.5,58.2z"/>
	</g>
</g>
<g>
	<g>
		<path style="fill:#63513D;" d="M114.8,371.8H137l45.2-45.2c4-4,10.4-4,14.4,0c4,4,4,10.4,0,14.4l-30.8,30.8h1.9
			c5.6,0,10.2,4.6,10.2,10.2s-4.6,10.2-10.2,10.2h-53c-5.6,0-10.2-4.6-10.2-10.2S109.1,371.8,114.8,371.8z"/>
	</g>
</g>
</svg>
