<svg xmlns="http://www.w3.org/2000/svg" viewBox="0 0 72.93 58.91"><title>Ресурс 3</title><g id="Слой_2" data-name="Слой 2"><g id="Слой_1-2" data-name="Слой 1"><path d="M68.65,25.22a18.35,18.35,0,0,0-9.94-4.56l-3.91-.57c-6.85-1-16-2.32-23.92-3.29L26.82,8.19h6.57A1.49,1.49,0,0,0,34.88,6.7,6.71,6.71,0,0,0,28.18,0H16.68a1.49,1.49,0,0,0-1.49,1.49,6.71,6.71,0,0,0,6.7,6.7h1.64L27.4,16.4c-3-.33-5.66-.59-7.89-.73A17.58,17.58,0,0,0,6.28,20.54a20,20,0,0,0,0,29.07,18.93,18.93,0,0,0,2.4,1.91L3.83,56.37a1.49,1.49,0,0,0,2.1,2.1L11.39,53a17.21,17.21,0,0,0,7,1.5q.55,0,1.1,0c7.88-.5,21.92-2.52,32.17-4L56,49.89l8.59,8.59a1.49,1.49,0,1,0,2.1-2.1l-7-7a17.91,17.91,0,0,0,9-4.4,13.5,13.5,0,0,0,0-19.73Zm-46.76-20A3.73,3.73,0,0,1,18.47,3h9.7a3.73,3.73,0,0,1,3.41,2.24ZM58.29,46.55l-7,1C41.05,49,27.08,51,19.32,51.52a14.63,14.63,0,0,1-11-4.08,17,17,0,0,1,0-24.73,14.69,14.69,0,0,1,10.1-4.1l.91,0c8.6.54,24.52,2.86,35.05,4.39l3.91.57C64.1,24.44,70,28.31,70,35.08S64.1,45.75,58.29,46.55Z" fill="#634831"/></g></g></svg>