<?xml version="1.0" encoding="utf-8"?>
<!-- Generator: Adobe Illustrator 22.0.0, SVG Export Plug-In . SVG Version: 6.00 Build 0)  -->
<svg version="1.1" id="Layer_11" xmlns="http://www.w3.org/2000/svg" xmlns:xlink="http://www.w3.org/1999/xlink" x="0px" y="0px"
	 viewBox="0 0 198.4 198.4" style="enable-background:new 0 0 198.4 198.4;" xml:space="preserve">
<path style="fill:#6B513B;" d="M129,189.7l0.8-0.9l0.8,0.9c3.8,4.3,9.2,6.8,14.9,6.8c10.9,0,19.8-8.9,19.8-19.8V98.2h12
	c2.3,0,4.2-1.9,4.2-4.2V68.6c0-1.1-0.4-2.2-1.2-3c-0.8-0.8-1.8-1.2-3-1.2c-2.3,0-4.2,1.9-4.2,4.2v21.3h-7.8v-5.6
	c0-10.9-8.9-19.8-19.8-19.8c-5.7,0-11.1,2.5-14.9,6.8l-0.8,0.9l-0.8-0.9c-3.8-4.3-9.2-6.8-14.9-6.8c-5.7,0-11.1,2.5-14.9,6.8
	l-0.8,0.9l-0.8-0.9c-3.8-4.3-9.2-6.8-14.9-6.8c-5.7,0-11.1,2.5-14.9,6.8l-0.8,0.9l-0.8-0.9c-3.8-4.3-9.2-6.8-14.9-6.8
	c-10.9,0-19.8,8.9-19.8,19.8v5.6H20.2c-2.3,0-4.2,1.9-4.2,4.2c0,2.3,1.9,4.2,4.2,4.2h11.5v78.4c0,10.9,8.9,19.8,19.8,19.8
	c5.7,0,11.1-2.5,14.9-6.8l0.8-0.9l0.8,0.9c3.8,4.3,9.2,6.8,14.9,6.8s11.1-2.5,14.9-6.8l0.8-0.9l0.8,0.9c3.8,4.3,9.2,6.8,14.9,6.8
	S125.2,194,129,189.7z M134,84.3c0-6.3,5.1-11.5,11.5-11.5c6.3,0,11.5,5.1,11.5,11.5v92.4c0,6.3-5.1,11.5-11.5,11.5
	c-6.3,0-11.5-5.1-11.5-11.5V84.3z M62.9,176.6c0,6.3-5.1,11.5-11.5,11.5c-6.3,0-11.5-5.1-11.5-11.5V84.3c0-6.3,5.1-11.5,11.5-11.5
	c6.3,0,11.5,5.1,11.5,11.5V176.6z M94.3,176.6c0,6.3-5.1,11.5-11.5,11.5c-6.3,0-11.5-5.1-11.5-11.5V84.3c0-6.3,5.1-11.5,11.5-11.5
	c6.3,0,11.5,5.1,11.5,11.5V176.6z M102.6,176.6V84.3c0-6.3,5.1-11.5,11.5-11.5c6.3,0,11.5,5.1,11.5,11.5v92.4
	c0,6.3-5.1,11.5-11.5,11.5C107.8,188.1,102.6,183,102.6,176.6z"/>
<path style="fill:#6B513B;" d="M67,49c1.1,0.2,2.1-0.3,2.9-1.4c4.9-6.3,6.2-12,4.1-18.4c-0.6-1.8-1.6-3.7-2.6-5.5
	c-2.5-4.7-5.4-10-1-15.3C72,6.7,71.6,5,71.3,4.1c-0.6-1.6-1.9-2.8-3.4-3.1c-0.2,0-0.4,0-0.5,0c-1,0-1.9,0.5-2.6,1.4l0,0
	c-4.8,5.8-6.1,11.4-4.1,17.6c0.6,1.9,1.6,3.8,2.6,5.6c2.7,5,5.4,10.2,1,15.9c-1.4,1.8-1,3.6-0.6,4.5C64.2,47.7,65.6,48.8,67,49z"/>
<path style="fill:#6B513B;" d="M98.1,49c1.1,0.2,2.1-0.3,3-1.4c4.9-6.3,6.2-12,4.1-18.4c-0.6-1.8-1.6-3.7-2.6-5.5
	c-2.5-4.7-5.4-10-1-15.3c1.4-1.7,1.1-3.4,0.8-4.3c-0.6-1.6-1.9-2.8-3.4-3.1c-0.2,0-0.4,0-0.5,0c-1,0-1.9,0.5-2.6,1.4
	C91,8.1,89.7,13.7,91.7,20c0.6,1.9,1.6,3.8,2.6,5.6c2.7,5,5.4,10.2,1,16c-1.4,1.8-1,3.6-0.6,4.5C95.3,47.7,96.7,48.8,98.1,49z"/>
<path style="fill:#6B513B;" d="M129.2,49c1.1,0.2,2.1-0.3,2.9-1.4c4.9-6.3,6.2-12,4.1-18.4c-0.6-1.8-1.6-3.7-2.6-5.5
	c-2.5-4.7-5.4-10-1-15.3c1.4-1.7,1.1-3.4,0.8-4.3c-0.6-1.6-1.9-2.8-3.4-3.1c-1.2-0.2-2.3,0.3-3.2,1.3v0c-4.8,5.8-6.1,11.4-4.1,17.6
	c0.6,1.9,1.6,3.8,2.6,5.6c2.7,5,5.4,10.2,1,15.9c-1.4,1.8-1,3.6-0.6,4.5C126.4,47.7,127.8,48.8,129.2,49z"/>
</svg>
