<?xml version="1.0" encoding="utf-8"?>
<!-- Generator: Adobe Illustrator 22.0.0, SVG Export Plug-In . SVG Version: 6.00 Build 0)  -->
<svg version="1.1" id="Layer_1" xmlns="http://www.w3.org/2000/svg" xmlns:xlink="http://www.w3.org/1999/xlink" x="0px" y="0px"
	 viewBox="0 0 512 512" style="enable-background:new 0 0 512 512;" xml:space="preserve">
<g>
	<g>
		<path style="fill:#D9C78A;" d="M457.7,54.3c-72.4-72.4-190.3-72.4-262.7,0c-69.3,69.3-72.3,180.2-9,253.1l-22.1,22.1L141.3,307
			c-5.1-5.1-13.5-5.1-18.6,0L17,412.6c-22.7,22.7-22.7,59.7,0,82.4c11.4,11.4,26.3,17,41.2,17c14.9,0,29.8-5.7,41.2-17L205,389.3
			c5.1-5.1,5.1-13.5,0-18.6l-22.5-22.5l22.1-22.1c34.8,30.2,78.3,45.3,121.7,45.3c47.6,0,95.1-18.1,131.4-54.3
			C530.1,244.6,530.1,126.8,457.7,54.3z M80.8,476.3c-12.4,12.4-32.7,12.4-45.1,0c-12.4-12.4-12.4-32.7,0-45.1l58.9-58.9l45.1,45.1
			L80.8,476.3z M158.3,398.8l-45.1-45.1l18.7-18.7l45.1,45.1L158.3,398.8z M439,298.4c-62.2,62.2-163.3,62.2-225.5,0
			s-62.2-163.3,0-225.5c31.1-31.1,71.9-46.6,112.7-46.6C367.1,26.3,408,41.9,439,73C501.2,135.1,501.2,236.3,439,298.4z"/>
	</g>
</g>
<g>
	<g>
		<path style="fill:#D9C78A;" d="M417.3,94.7C393,70.4,360.7,57,326.3,57c-34.4,0-66.7,13.4-91,37.7s-37.7,56.6-37.7,91
			c0,34.4,13.4,66.7,37.7,91s56.6,37.7,91,37.7c34.4,0,66.7-13.4,91-37.7c24.3-24.3,37.7-56.6,37.7-91
			C455,151.3,441.6,119,417.3,94.7z M398.7,258c-19.3,19.3-45,30-72.4,30c-27.3,0-53-10.6-72.3-30c-19.3-19.3-30-45-30-72.3
			c0-27.3,10.6-53,30-72.4c19.3-19.3,45-30,72.3-30c27.3,0,53,10.6,72.4,30c19.3,19.3,30,45,30,72.4C428.6,213,418,238.7,398.7,258z
			"/>
	</g>
</g>
<g>
	<g>
		<path style="fill:#D9C78A;" d="M366,172.5h-26.5V146c0-7.3-5.9-13.2-13.2-13.2s-13.2,5.9-13.2,13.2v26.5h-26.5
			c-7.3,0-13.2,5.9-13.2,13.2c0,7.3,5.9,13.2,13.2,13.2h26.5v26.5c0,7.3,5.9,13.2,13.2,13.2s13.2-5.9,13.2-13.2v-26.5H366
			c7.3,0,13.2-5.9,13.2-13.2S373.3,172.5,366,172.5z"/>
	</g>
</g>
</svg>
