<svg xmlns="http://www.w3.org/2000/svg" viewBox="0 0 40.1 37.4"><title>Ресурс 20</title><g id="Слой_2" data-name="Слой 2"><g id="Слой_1-2" data-name="Слой 1"><path d="M6,34.86H28.25l.07.2a3.44,3.44,0,1,0,0-2.19l-.07.2H6a4.2,4.2,0,1,1,0-8.39h7.63a6,6,0,0,0,0-12H6.76l-.07-.2a3.46,3.46,0,0,0-2.16-2.16l-.2-.07V6.87h6.74A.89.89,0,0,0,12,6V.89A.89.89,0,0,0,11.07,0H3.44a.89.89,0,0,0-.89.89v9.39l-.2.07a3.44,3.44,0,1,0,4.35,4.35l.07-.2h6.85a4.2,4.2,0,0,1,0,8.39H6a6,6,0,0,0,0,12Zm25.6-2.54A1.65,1.65,0,1,1,29.93,34,1.65,1.65,0,0,1,31.58,32.31ZM4.33,1.79h5.85v3.3H4.33ZM3.44,15.26a1.65,1.65,0,1,1,1.65-1.65A1.65,1.65,0,0,1,3.44,15.26Z" fill="#727278"/><path d="M31.58,7.63A3.44,3.44,0,1,0,35,11.07,3.44,3.44,0,0,0,31.58,7.63Zm0,5.09a1.65,1.65,0,1,1,1.65-1.65A1.65,1.65,0,0,1,31.58,12.72Z" fill="#727278"/><path d="M32.37,26.74l4.69-9.14a8.52,8.52,0,1,0-11,0l.07.09,4.61,9a.89.89,0,0,0,1.59,0ZM27.65,16.66a.89.89,0,0,0-.24-.29,6.74,6.74,0,1,1,8.34,0,.9.9,0,0,0-.24.29l-3.93,7.71Z" fill="#727278"/></g></g></svg>