<svg xmlns="http://www.w3.org/2000/svg" viewBox="0 0 12.44 18.06"><title>Ресурс 15</title><g id="Слой_2" data-name="Слой 2"><g id="Слой_1-2" data-name="Слой 1"><path id="Facebook_Places" data-name="Facebook Places" d="M12.14,4.49a5.63,5.63,0,0,0-.29-.72A6.07,6.07,0,0,0,6.14,0,6.08,6.08,0,0,0,0,5.6v.77s0,.32,0,.47c.22,1.8,1.64,3.71,2.7,5.51s2.32,3.82,3.49,5.71l2.15-3.69c.19-.35.42-.71.61-1s.37-.45.49-.66c1.14-2.09,3-4.19,3-6.26V5.55A6.41,6.41,0,0,0,12.14,4.49Zm-6,3.87A2.21,2.21,0,0,1,4.07,6.85,2.09,2.09,0,0,1,4,6.29v-.5A2.09,2.09,0,0,1,6.25,3.74,2.27,2.27,0,0,1,8.53,6.05,2.33,2.33,0,0,1,6.19,8.36Z" fill="#c26248"/></g></g></svg>