<svg xmlns="http://www.w3.org/2000/svg" viewBox="0 0 59.73 55.56"><title>Ресурс 26</title><g id="Слой_2" data-name="Слой 2"><g id="Слой_1-2" data-name="Слой 1"><path d="M57.65,23.39A32,32,0,0,0,52.22,14a27.76,27.76,0,0,0-8.28-6.84,26.19,26.19,0,0,0-8.14-2.72,4.92,4.92,0,0,0-9.8,0,26.77,26.77,0,0,0-7.56,2.42,27.13,27.13,0,0,0-8.17,6.32.88.88,0,0,0,1.31,1.17A24.45,24.45,0,0,1,27,6.07h0A26.89,26.89,0,0,1,43.09,8.69a25.79,25.79,0,0,1,7.75,6.38,31.3,31.3,0,0,1,4.91,8.25H6A31.61,31.61,0,0,1,9.45,17,.88.88,0,0,0,8,16a32,32,0,0,0-3.87,7.36,2.74,2.74,0,0,0,.65,5.4H18l-7.65,9.84H.88A.88.88,0,0,0,0,39.5V54.68a.9.9,0,0,0,.29.65.86.86,0,0,0,.58.22H1l9.92-1.18a.86.86,0,0,0,.77-.86V50.25l20.78-5.13a3.17,3.17,0,0,0,1.68-.88l0,0L44.75,32.52a3.22,3.22,0,0,0,.58-3.73H57a2.73,2.73,0,0,0,.65-5.39ZM33.71,4.18a31.22,31.22,0,0,0-3.62-.12c-.63,0-1.26.06-1.9.11l-.39,0A3.18,3.18,0,0,1,34,4.2ZM9.92,52.75l-8.17,1V40.39H9.92ZM43.51,31.31l0,0L32.88,43a1.39,1.39,0,0,1-.77.38H32l-20.38,5V39.81l8.25-10.62a1.47,1.47,0,0,1,2.22,1.9l-4.59,7a.89.89,0,0,0,.74,1.35H30.72a.87.87,0,0,0,.62-.26l10.09-10a1.48,1.48,0,0,1,2.08,2.1ZM23.79,28.79h5.09l-8.95,8.88,3.64-5.57A3.2,3.2,0,0,0,23.79,28.79Zm1.33,8.95H22.35l8.58-8.52a1.45,1.45,0,0,1,1-.43,1.46,1.46,0,0,1,1.32.83Zm11.06-8.52a1.45,1.45,0,0,1,1-.43,1.46,1.46,0,0,1,1.32.83l-8.18,8.11H27.59ZM57,27H4.8a1,1,0,1,1,0-2H57a1,1,0,1,1,0,2Z" fill="#634831"/></g></g></svg>