<?xml version="1.0" encoding="utf-8"?>
<!-- Generator: Adobe Illustrator 22.0.0, SVG Export Plug-In . SVG Version: 6.00 Build 0)  -->
<svg version="1.1" id="Слой_1" xmlns="http://www.w3.org/2000/svg" xmlns:xlink="http://www.w3.org/1999/xlink" x="0px" y="0px"
	 viewBox="0 0 136.6 33.8" style="enable-background:new 0 0 136.6 33.8;" xml:space="preserve">
<path style="fill:#423122;" d="M101.7,15.3l-0.2-0.1l-5.8,1.5L73.4,0L46.5,16.9l-7-2.8l-20,12.6l-4.2-2.9L0,32.8l5,0l0.1-0.1
	c4.1-2.3,8.2-4.5,9.2-5l5.2,2.4l20.6-12.8l6.8,3.7l0.3-0.2c8.9-6.3,23.3-16.1,26.3-17.4c-0.5,1.3-3,5-11.2,15.2L61.1,20l5.2,1.8
	l11.9-9.2l2.4,11.2l6.2,1.9l14-7l-1.9,10.5l5.5,1.2l0.8-6.5l12.7,8l1.1-4.1l9,5.9l8.6,0.1L101.7,15.3z"/>
</svg>
