<svg xmlns="http://www.w3.org/2000/svg" viewBox="0 0 155 135.21"><title>Ресурс 22</title><g id="Слой_2" data-name="Слой 2"><g id="Слой_1-2" data-name="Слой 1"><path d="M152.49,100.58H2.48a2.48,2.48,0,0,0,0,5h150a2.49,2.49,0,0,0,2.48-2.48A2.52,2.52,0,0,0,152.49,100.58Z" fill="#634831"/><path d="M152.49,110.45H2.48a2.48,2.48,0,0,0,0,5h150a2.49,2.49,0,0,0,2.48-2.48A2.54,2.54,0,0,0,152.49,110.45Z" fill="#634831"/><path d="M126.12,120.34H2.48a2.48,2.48,0,0,0,0,5H126.12a2.48,2.48,0,0,0,0-5Z" fill="#634831"/><path d="M73.67,130.24H44a2.48,2.48,0,0,0,0,5H73.67a2.48,2.48,0,0,0,0-5Z" fill="#634831"/><path d="M126.85,68.25a2.48,2.48,0,0,0-3.51,0L120.62,71l-9.81-9.78a2.48,2.48,0,0,0-3.51,0L97.49,71l-2.72-2.72a2.48,2.48,0,1,0-3.51,3.51l4.45,4.45a2.48,2.48,0,0,0,3.51,0L109,66.44l9.81,9.81a2.5,2.5,0,0,0,1.76.73,2.55,2.55,0,0,0,1.76-.73l4.45-4.45A2.44,2.44,0,0,0,126.85,68.25Z" fill="#634831"/><path d="M63.62,68.25a2.48,2.48,0,0,0-3.51,0L57.39,71l-9.78-9.81a2.48,2.48,0,0,0-3.51,0L34.32,71,31.6,68.25a2.48,2.48,0,0,0-3.51,3.51l4.45,4.45a2.5,2.5,0,0,0,1.76.73A2.55,2.55,0,0,0,36,76.21l9.78-9.81,9.78,9.81a2.48,2.48,0,0,0,3.51,0l4.45-4.45A2.43,2.43,0,0,0,63.62,68.25Z" fill="#634831"/><path d="M154.55,91.77,111.17,26.94a2.45,2.45,0,0,0-2.06-1.09,2.53,2.53,0,0,0-2.06,1.09L77.48,71.13,47.91,26.94a2.45,2.45,0,0,0-2.06-1.09,2.53,2.53,0,0,0-2.06,1.09L.42,91.77a2.47,2.47,0,0,0,.67,3.42,2.57,2.57,0,0,0,1.36.42,2.53,2.53,0,0,0,2.06-1.09L45.86,32.75l28.63,42.8L63.65,91.77a2.46,2.46,0,1,0,4.09,2.75L79.48,77s0,0,0-.06l29.54-44.16,41.38,61.78a2.45,2.45,0,0,0,2.06,1.09,2.27,2.27,0,0,0,1.36-.42A2.46,2.46,0,0,0,154.55,91.77Z" fill="#634831"/><path d="M77.48,0A17.31,17.31,0,1,0,94.8,17.31,17.35,17.35,0,0,0,77.48,0Zm0,29.66A12.38,12.38,0,1,1,89.86,17.28,12.39,12.39,0,0,1,77.48,29.66Z" fill="#634831"/></g></g></svg>