<svg xmlns="http://www.w3.org/2000/svg" viewBox="0 0 76 76"><title>Ресурс 9</title><g id="Слой_2" data-name="Слой 2"><g id="Слой_1-2" data-name="Слой 1"><path d="M72.38,3.62A12.27,12.27,0,0,0,63.65,0H12.35A12.35,12.35,0,0,0,0,12.35V63.65A12.35,12.35,0,0,0,12.35,76H63.65A12.35,12.35,0,0,0,76,63.65V12.35A12.27,12.27,0,0,0,72.38,3.62ZM63.65,73.49H12.35a9.83,9.83,0,0,1-9.83-9.83V12.35a9.83,9.83,0,0,1,9.83-9.83H63.65a9.83,9.83,0,0,1,9.83,9.83V63.65a9.83,9.83,0,0,1-9.83,9.83Z" fill="#634831"/><path d="M63.65,4.44H12.35a7.91,7.91,0,0,0-7.91,7.91V35.83a1.26,1.26,0,1,0,2.51,0V12.35a5.4,5.4,0,0,1,5.4-5.4H63.65a5.4,5.4,0,0,1,5.4,5.4V63.65a5.4,5.4,0,0,1-5.4,5.4H12.35a5.4,5.4,0,0,1-5.4-5.4V40.27a1.26,1.26,0,1,0-2.51,0V63.65a7.91,7.91,0,0,0,7.91,7.91H63.65a7.91,7.91,0,0,0,7.91-7.91V12.35a7.91,7.91,0,0,0-7.91-7.91Z" fill="#634831"/><path d="M30.31,62.69a1.26,1.26,0,0,0,1.26-1.26V46.87H43.18a16.78,16.78,0,0,0,0-33.56H21.44a1.26,1.26,0,0,0-1.26,1.26V61.44a1.26,1.26,0,0,0,1.26,1.26ZM43.18,44.36H30.31a1.26,1.26,0,0,0-1.26,1.26V60.18H22.7V15.82H43.18a14.27,14.27,0,0,1,0,28.54Z" fill="#634831"/><path d="M43.18,22.18H30.31a1.26,1.26,0,0,0-1.26,1.26V36.74A1.26,1.26,0,0,0,30.31,38H43.18a7.91,7.91,0,0,0,0-15.82Zm0,13.31H31.57V24.69H43.18a5.4,5.4,0,0,1,0,10.79Z" fill="#634831"/></g></g></svg>