<svg xmlns="http://www.w3.org/2000/svg" viewBox="0 0 63.44 54.93"><title>Ресурс 4</title><g id="Слой_2" data-name="Слой 2"><g id="Слой_1-2" data-name="Слой 1"><path d="M21.57,24.67c5.07,0,9.19-5.53,9.19-12.33S26.64,0,21.57,0s-9.19,5.53-9.19,12.33S16.5,24.67,21.57,24.67ZM21.57,3c3.35,0,6.19,4.28,6.19,9.33s-2.83,9.33-6.19,9.33-6.19-4.27-6.19-9.33S18.22,3,21.57,3Z" fill="#634831"/><path d="M48.83,36.66a4.6,4.6,0,0,1-.47-.71c-2.05-4.4-7.69-9.58-16.81-9.71H31.2c-9,0-14.58,4.91-16.81,9.51a3.56,3.56,0,0,1-.43.58,8.08,8.08,0,0,0-.6.79,16.16,16.16,0,0,0-2.71,9.32,8.88,8.88,0,0,0,3.84,7.37,5.48,5.48,0,0,0,3,.91c2.19,0,4.2-1.23,6.52-2.66a33.56,33.56,0,0,1,4.7-2.55,10.58,10.58,0,0,1,2.24-.16,13.36,13.36,0,0,1,2.83.22,31.09,31.09,0,0,1,4.51,2.61c2.15,1.42,4.19,2.76,6.4,2.76a5.45,5.45,0,0,0,2.73-.74c4.78-2.72,5.69-10.16,2-16.6A9.76,9.76,0,0,0,48.83,36.66ZM45.94,51.58a2.46,2.46,0,0,1-1.25.35c-1.31,0-2.9-1-4.75-2.26A33.79,33.79,0,0,0,35,46.81a13,13,0,0,0-4-.47,10.18,10.18,0,0,0-3.36.38,36.58,36.58,0,0,0-5.15,2.78c-1.93,1.19-3.6,2.22-4.95,2.22a2.47,2.47,0,0,1-1.39-.43,6,6,0,0,1-2.46-5,13.15,13.15,0,0,1,2.24-7.56,4.73,4.73,0,0,1,.38-.49,5.76,5.76,0,0,0,.82-1.19c1.84-3.78,6.51-7.82,14.11-7.82h.31c7.74.11,12.45,4.37,14.14,8a7.25,7.25,0,0,0,.77,1.22,6.58,6.58,0,0,1,.43.62C49.68,44.07,49.28,49.68,45.94,51.58Z" fill="#634831"/><path d="M41.11,24.67c5.07,0,9.19-5.53,9.19-12.33S46.18,0,41.11,0s-9.19,5.53-9.19,12.33S36,24.67,41.11,24.67ZM41.11,3c3.35,0,6.19,4.28,6.19,9.33s-2.83,9.33-6.19,9.33-6.19-4.27-6.19-9.33S37.76,3,41.11,3Z" fill="#634831"/><path d="M56.21,18.33c-4.06,0-7.24,4.21-7.24,9.59s3.18,9.59,7.24,9.59,7.24-4.21,7.24-9.59S60.27,18.33,56.21,18.33Zm0,16.18c-2.3,0-4.24-3-4.24-6.59s1.94-6.59,4.24-6.59,4.24,3,4.24,6.59S58.5,34.51,56.21,34.51Z" fill="#634831"/><path d="M14.48,27.92c0-5.38-3.18-9.59-7.24-9.59S0,22.55,0,27.92s3.18,9.59,7.24,9.59S14.48,33.3,14.48,27.92ZM7.24,34.51c-2.3,0-4.24-3-4.24-6.59s1.94-6.59,4.24-6.59,4.24,3,4.24,6.59S9.54,34.51,7.24,34.51Z" fill="#634831"/></g></g></svg>