<svg xmlns="http://www.w3.org/2000/svg" viewBox="0 0 139.2 118.3"><title>Ресурс 24</title><g id="Слой_2" data-name="Слой 2"><g id="Слой_1-2" data-name="Слой 1"><path d="M15.45,80H80.84a2,2,0,0,0,0-4H15.45a2,2,0,0,0,0,4Z" fill="#634831"/><path d="M15.45,62.86H91a2,2,0,1,0,0-4H15.45a2,2,0,0,0,0,4Z" fill="#634831"/><path d="M15.45,71.41h69.3a2,2,0,0,0,0-4H15.45a2,2,0,0,0,0,4Z" fill="#634831"/><path d="M129.25,23.27h-5L35,3.18l.13-.66A1.79,1.79,0,0,0,34.88,1,2,2,0,0,0,33.62.06a2,2,0,0,0-2.39,1.46L30,6.69A2,2,0,0,0,31.5,9.08,2,2,0,0,0,33,8.88,2,2,0,0,0,34,7.62l.13-.6,72,16.25H9.95A10,10,0,0,0,0,33.28V99.8a10,10,0,0,0,10,10h3.45v6.5a2,2,0,0,0,2,2H25.8a2,2,0,0,0,2-2v-6.5h83.89v6.5a2,2,0,0,0,2,2H124a1.81,1.81,0,0,0,1.39-.6,1.91,1.91,0,0,0,.6-1.39v-6.5h3.18a10,10,0,0,0,10-10V33.28A9.91,9.91,0,0,0,129.25,23.27Zm-7.16,86.48v4.51h-6.37v-4.51Zm-98.28,0v4.51H17.44v-4.51Zm105.44-4H10a6.06,6.06,0,0,1-6-6V33.28a6.06,6.06,0,0,1,6-6H129.25a6.06,6.06,0,0,1,6,6V99.8A6,6,0,0,1,129.25,105.77Z" fill="#634831"/><path d="M15.45,88.59h69.3a2,2,0,0,0,0-4H15.45a2,2,0,0,0,0,4Z" fill="#634831"/><path d="M124.08,35.67H15.45a2,2,0,0,0-2,2V51.12a2,2,0,0,0,2,2H124.08a2,2,0,0,0,2-2V37.66A2,2,0,0,0,124.08,35.67Zm-2,10.68v2.72H43.24V46.35Zm0-6.7v2.72H43.24V39.65ZM39,46.35v2.72H17.44V46.35Zm0-6.7v2.72H17.44V39.65Z" fill="#634831"/><path d="M107,59.08a19.16,19.16,0,0,0-15.25,7.63c-.07.07-.07.13-.13.13s-.07.07-.07.13A19,19,0,1,0,107,59.08Zm0,10.68a8.42,8.42,0,1,1-8.42,8.42A8.43,8.43,0,0,1,107,69.76Zm-12.4,8.36A12.4,12.4,0,1,0,107,65.71a12.19,12.19,0,0,0-8.62,3.51L96.16,67.7a15,15,0,1,1-4.24,10.41,15.42,15.42,0,0,1,1.86-7.23L96,72.48A12.8,12.8,0,0,0,94.63,78.11Z" fill="#634831"/><path d="M91,93.17H15.45a2,2,0,0,0,0,4H91a2,2,0,1,0,0-4Z" fill="#634831"/></g></g></svg>