<svg xmlns="http://www.w3.org/2000/svg" viewBox="0 0 56 56"><defs><style>.cls-1{fill:#d80027;}</style></defs><title>10 раз легче</title><g id="Слой_2" data-name="Слой 2"><g id="Слой_1-2" data-name="Слой 1"><path class="cls-1" d="M56,0A109.86,109.86,0,0,0,37.29,10.68C18.91,24.38,12.66,42.05,12.66,42.05L19.26,39s-.35-2.39,3.13-6.45c3.94-4.6,8,1.64,12.71-1a48.62,48.62,0,0,0,5.1-3.32,15.83,15.83,0,0,1-6-3.09,41.5,41.5,0,0,0,10.32-.62,37.89,37.89,0,0,0,5.15-6.24A15.83,15.83,0,0,1,42.25,17a42.64,42.64,0,0,0,10.17-3.76C56.11,5,56,0,56,0Z"/><polygon class="cls-1" points="42.88 49.85 6.13 49.85 6.13 13.34 26.83 13.34 33.91 7.09 0 7.09 0 56 48.91 56 48.91 25.74 42.88 31.54 42.88 49.85"/></g></g></svg>