<svg xmlns="http://www.w3.org/2000/svg" viewBox="0 0 87.03 82.41"><title>Ресурс 6</title><g id="Слой_2" data-name="Слой 2"><g id="Слой_1-2" data-name="Слой 1"><path d="M77.34,5a1.56,1.56,0,0,0-2.21,0l-16.2,16.2a1.56,1.56,0,0,0,2.21,2.21l16.2-16.2A1.56,1.56,0,0,0,77.34,5Z" fill="#634831"/><path d="M81.75,9.35a1.56,1.56,0,0,0-2.21,0l-16.2,16.2a1.56,1.56,0,0,0,2.21,2.21l16.2-16.2A1.56,1.56,0,0,0,81.75,9.35Z" fill="#634831"/><path d="M66.46,36.71,86.57,16.59a1.56,1.56,0,0,0-2.21-2.21L64.25,34.5a8.3,8.3,0,0,1-9.43,1.62,1.56,1.56,0,0,0-1.84.37l-6.83,7.7h0L16.58,77.49l0,0-.28.31a5,5,0,1,1-7.07-7.08l.31-.28,0,0L28,54.06a1.56,1.56,0,0,0-2.07-2.34L7.48,68.1c-.18.15-.33.3-.48.44A8.13,8.13,0,0,0,18.49,80c.15-.15.3-.31.44-.48L41.45,54.19,64,79.56c.15.17.29.33.44.48A8.13,8.13,0,0,0,75.9,68.54c-.15-.15-.31-.3-.48-.44l-25.9-23,5.07-5.71A11.43,11.43,0,0,0,66.46,36.71Zm6.89,33.74,0,0,.31.28a5,5,0,1,1-7.07,7.07l-.28-.31,0,0L43.54,51.84l3.9-4.39Z" fill="#634831"/><path d="M72.65.46a1.56,1.56,0,0,0-2.21,0L50.32,20.57a11.43,11.43,0,0,0-2.69,11.88l-6.19,5.49L35.5,32.67a15.72,15.72,0,0,0-2.93-18.28C27.72,9.54,22.11,6.13,16.76,4.78,11.18,3.37,6.39,4.31,3.28,7.42s-4,7.9-2.64,13.48c1.35,5.35,4.76,11,9.61,15.81a15.72,15.72,0,0,0,18.28,2.93l5.89,6.64a1.56,1.56,0,0,0,2.21.13L50.54,34.05a1.56,1.56,0,0,0,.37-1.84,8.3,8.3,0,0,1,1.62-9.43L72.65,2.67A1.56,1.56,0,0,0,72.65.46ZM35.72,43,30,36.62a1.56,1.56,0,0,0-2-.29A12.61,12.61,0,0,1,12.45,34.5C8,30,4.88,24.95,3.67,20.14c-1.13-4.47-.48-8.2,1.82-10.51s6-2.95,10.51-1.82C20.8,9,25.9,12.14,30.36,16.59a12.61,12.61,0,0,1,1.83,15.59,1.56,1.56,0,0,0,.29,2L39.09,40Z" fill="#634831"/></g></g></svg>