<svg xmlns="http://www.w3.org/2000/svg" viewBox="0 0 74.16 79.76"><title>Ресурс 2</title><g id="Слой_2" data-name="Слой 2"><g id="Слой_1-2" data-name="Слой 1"><path d="M74.09,39.48a1.55,1.55,0,0,0-.1-1.19h0a1.56,1.56,0,0,0-2.1-.68,38.41,38.41,0,0,0-7.51,5.06l-.63.55,2.08-14.58a1.56,1.56,0,0,0-1.55-1.78H41.5l-.8-4.42.14-.12a12.56,12.56,0,1,0-15.85,0l.14.12-.8,4.42H1.56A1.56,1.56,0,0,0,0,28.62L2.38,45.14l-.34,0A1.56,1.56,0,0,0,.58,47L2.36,58.69A1.55,1.55,0,0,0,3.9,60h.6l2.63,18.4a1.57,1.57,0,0,0,1.55,1.34H57.16a1.57,1.57,0,0,0,1.55-1.34L61.33,60h.6a1.55,1.55,0,0,0,1.55-1.33L65.26,47a1.55,1.55,0,0,0,0-.63l0-.18.14-.13a35.15,35.15,0,0,1,8-5.63A1.55,1.55,0,0,0,74.09,39.48ZM23.48,12.56a9.43,9.43,0,1,1,14.63,7.87A1.56,1.56,0,0,0,37.44,22l.88,4.83H27.51L28.39,22a1.56,1.56,0,0,0-.67-1.58A9.42,9.42,0,0,1,23.48,12.56ZM5.25,56.9l-1.3-8.61H59l-.37.5a37.94,37.94,0,0,0-4.51,7.92l-.08.19ZM52.94,60l-.12.4c-.25.83-.48,1.69-.68,2.56l-.06.24H48.82L49.24,60Zm-6.85,0-.42,3.21H34.48V60ZM10,76.64,7.66,60h8.93l1.28,10.61a1.56,1.56,0,0,0,3.1-.37L19.74,60H31.35v3.92l0,.07a1.56,1.56,0,0,0-.21.78v2.72a11.89,11.89,0,0,0,3.63,8.58l.55.54Zm33-.26a8.87,8.87,0,0,1-8.86-8.86V66.36H51.94v1.16A8.87,8.87,0,0,1,43.08,76.38Zm12.72.26H50.89l.55-.54a11.89,11.89,0,0,0,3.63-8.58V64.8a1.58,1.58,0,0,0,0-.31v-.13a35.59,35.59,0,0,1,1.13-4.12l.07-.21h1.94ZM60.59,56.9h-3.1l.21-.45a34.86,34.86,0,0,1,3.17-5.38L61.63,50ZM60.3,45.16H51l.48-4a1.56,1.56,0,1,0-3.1-.37l-.53,4.36H34.48V40.37a1.56,1.56,0,0,0-3.13,0v4.79H17.94l-.53-4.36a1.56,1.56,0,1,0-3.1.37l.48,4H5.54L3.37,30h59.1Z" fill="#684d36"/></g></g></svg>