<svg xmlns="http://www.w3.org/2000/svg" viewBox="0 0 115 107.38"><title>Ресурс 25</title><g id="Слой_2" data-name="Слой 2"><g id="Слой_1-2" data-name="Слой 1"><path d="M109.29,57.52h-1.91V17.26A17.18,17.18,0,0,0,90.13,0C81.63,0,75.54,6.29,74.85,15.5a9.46,9.46,0,0,0-7.73,9.41A1.8,1.8,0,0,0,69,26.83H84.37a1.8,1.8,0,0,0,1.91-1.91,9.5,9.5,0,0,0-7.59-9.39C79.25,9.44,82.91,3.82,90.1,3.82a13.34,13.34,0,0,1,13.41,13.41V57.52H45.84a9.47,9.47,0,0,0-9.39-7.66A10,10,0,0,0,28.78,46a9.47,9.47,0,0,0-8.43,5.17,11.41,11.41,0,0,0-5-1.35A9.46,9.46,0,0,0,6,57.5H5.8A5.76,5.76,0,1,0,5.75,69H8.07l5.17,20.51a13.5,13.5,0,0,0,13,10.16h1.53l-2.49,5a1.68,1.68,0,0,0,.76,2.49,1.13,1.13,0,0,0,.76.2,2,2,0,0,0,1.73-1l3.35-6.72H85.11l3.26,6.52a1.85,1.85,0,0,0,1.73,1.15c.38,0,.58,0,.76-.38a2,2,0,0,0,.76-2.49l-2.4-4.81a13.56,13.56,0,0,0,12.56-10L107,69h2.25A5.65,5.65,0,0,0,115,63.25,5.58,5.58,0,0,0,109.29,57.52ZM82.26,23H71.34a5.85,5.85,0,0,1,5.55-3.84A5.62,5.62,0,0,1,82.26,23ZM15.35,53.68A6.44,6.44,0,0,1,20,55.79a1.73,1.73,0,0,0,1.91.58,1.86,1.86,0,0,0,1.35-1.53,6,6,0,0,1,5.75-5,5.38,5.38,0,0,1,5,2.88,2,2,0,0,0,2.11,1h.58A5.57,5.57,0,0,1,42,57.54H10A5.59,5.59,0,0,1,15.35,53.68Zm83,34.9A9.82,9.82,0,0,1,89,95.86H26.47a9.85,9.85,0,0,1-9.39-7.28L12.09,69H103Zm10.92-23.39H5.75a1.91,1.91,0,0,1,0-3.82H109.27a1.91,1.91,0,0,1,0,3.82Z" fill="#634831"/><path d="M69,35.48a1.8,1.8,0,0,0,1.91-1.91v-1a1.91,1.91,0,0,0-3.82,0v1A1.8,1.8,0,0,0,69,35.48Z" fill="#634831"/><path d="M69,44.29a1.92,1.92,0,0,0,1.91-1.91V40.27a1.91,1.91,0,0,0-3.82,0v2.11A1.8,1.8,0,0,0,69,44.29Z" fill="#634831"/><path d="M69,51.77a1.8,1.8,0,0,0,1.91-1.91v-1a1.91,1.91,0,0,0-3.82,0v1A1.8,1.8,0,0,0,69,51.77Z" fill="#634831"/><path d="M76.69,35.48a1.8,1.8,0,0,0,1.91-1.91v-1a1.91,1.91,0,0,0-3.82,0v1A1.8,1.8,0,0,0,76.69,35.48Z" fill="#634831"/><path d="M74.78,42.38a1.8,1.8,0,0,0,1.91,1.91,1.92,1.92,0,0,0,1.91-1.91V40.27a1.91,1.91,0,0,0-3.82,0Z" fill="#634831"/><path d="M74.78,49.86a1.91,1.91,0,0,0,3.82,0v-1a1.91,1.91,0,0,0-3.82,0Z" fill="#634831"/><path d="M84.37,35.48a1.8,1.8,0,0,0,1.91-1.91v-1a1.91,1.91,0,0,0-3.82,0v1A1.78,1.78,0,0,0,84.37,35.48Z" fill="#634831"/><path d="M82.44,42.38a1.8,1.8,0,0,0,1.91,1.91,1.92,1.92,0,0,0,1.91-1.91V40.27a1.91,1.91,0,0,0-3.82,0v2.11Z" fill="#634831"/><path d="M82.44,49.86a1.91,1.91,0,0,0,3.82,0v-1a1.91,1.91,0,0,0-3.82,0Z" fill="#634831"/></g></g></svg>