<svg xmlns="http://www.w3.org/2000/svg" viewBox="0 0 48 48"><title>Ресурс 10</title><g id="Слой_2" data-name="Слой 2"><g id="Слой_1-2" data-name="Слой 1"><path d="M24,0A24,24,0,1,0,48,24,24,24,0,0,0,24,0Zm2.39,32.19A5.14,5.14,0,0,1,22,30s-1,4-1.25,4.74a18.27,18.27,0,0,1-3.21,5.64.24.24,0,0,1-.42-.1,18.76,18.76,0,0,1,.05-6.55l2.29-9.39a6.45,6.45,0,0,1-.57-2.73c0-2.55,1.53-4.46,3.43-4.46a2.34,2.34,0,0,1,2.4,2.59c0,1.58-1,3.93-1.57,6.11A2.69,2.69,0,0,0,26,29.22c3.37,0,5.64-4.19,5.64-9.16,0-3.78-2.62-6.6-7.41-6.6-5.4,0-8.76,3.9-8.76,8.25a4.86,4.86,0,0,0,1.17,3.38.82.82,0,0,1,.26,1l-.36,1.38a.62.62,0,0,1-.89.43c-2.49-1-3.64-3.62-3.64-6.58,0-4.89,4.26-10.77,12.72-10.77,6.8,0,11.27,4.76,11.27,9.87C36,27.14,32.11,32.19,26.39,32.19Z" fill="#634831"/></g></g></svg>