<svg xmlns="http://www.w3.org/2000/svg" viewBox="0 0 62 62"><title>Ресурс 7</title><g id="Слой_2" data-name="Слой 2"><g id="Слой_1-2" data-name="Слой 1"><path d="M61.09,16.5a3,3,0,0,1-3-3,.91.91,0,0,0-1.82,0,3,3,0,0,1-3,3,.91.91,0,1,0,0,1.82,3,3,0,0,1,3,3,.91.91,0,0,0,1.82,0,3,3,0,0,1,3-3,.91.91,0,1,0,0-1.82Zm-3.88,2a4.84,4.84,0,0,0-1.08-1.08,4.84,4.84,0,0,0,1.08-1.08,4.84,4.84,0,0,0,1.08,1.08A4.84,4.84,0,0,0,57.21,18.49Z" fill="#634831"/><path d="M8.68,16.5a3,3,0,0,1-3-3,.91.91,0,1,0-1.82,0,3,3,0,0,1-3,3,.91.91,0,1,0,0,1.82,3,3,0,0,1,3,3,.91.91,0,0,0,1.82,0,3,3,0,0,1,3-3,.91.91,0,1,0,0-1.82Zm-3.88,2a4.84,4.84,0,0,0-1.08-1.08,4.84,4.84,0,0,0,1.08-1.08,4.84,4.84,0,0,0,1.08,1.08A4.84,4.84,0,0,0,4.79,18.49Z" fill="#634831"/><path d="M35.85,4.85A4,4,0,0,1,31.91.91a.91.91,0,0,0-1.82,0,4,4,0,0,1-3.94,3.94.91.91,0,1,0,0,1.82,4,4,0,0,1,3.94,3.94.91.91,0,0,0,1.82,0,4,4,0,0,1,3.94-3.94.91.91,0,1,0,0-1.82ZM31,7.51a5.81,5.81,0,0,0-1.75-1.75A5.81,5.81,0,0,0,31,4a5.81,5.81,0,0,0,1.75,1.75A5.81,5.81,0,0,0,31,7.51Z" fill="#634831"/><path d="M49.95,30.7l-3.54-10a1.88,1.88,0,0,0-1.77-1.25H17.13a1.88,1.88,0,0,0-1.77,1.25l-3.54,10a.92.92,0,0,0,.86,1.21H49.09a.91.91,0,0,0,.86-1.21Zm-36-.61,3.11-8.82a.06.06,0,0,1,.06,0H44.63a.06.06,0,0,1,.06,0l3.11,8.82Z" fill="#634831"/><path d="M48.35,42.71c-3.23,0-5.76,1.68-5.76,3.82s2.53,3.82,5.76,3.82,5.76-1.68,5.76-3.82S51.58,42.71,48.35,42.71Zm0,5.82c-2.26,0-3.94-1.06-3.94-2s1.69-2,3.94-2,3.94,1.06,3.94,2S50.61,48.53,48.35,48.53Z" fill="#634831"/><path d="M13.41,42.71c-3.23,0-5.76,1.68-5.76,3.82s2.53,3.82,5.76,3.82,5.76-1.68,5.76-3.82S16.64,42.71,13.41,42.71Zm0,5.82c-2.26,0-3.94-1.06-3.94-2s1.69-2,3.94-2,3.94,1.06,3.94,2S15.66,48.53,13.41,48.53Z" fill="#634831"/><path d="M60,29.12H55.15a.91.91,0,0,0-.88.69l-.64,2.56L49.15,19.7a4.8,4.8,0,0,0-4.52-3.2H17.13a4.8,4.8,0,0,0-4.52,3.2L8.13,32.37,7.5,29.81a.91.91,0,0,0-.88-.69H1.76A.91.91,0,0,0,.85,30v3.88a.91.91,0,0,0,.91.91h5l-3.1,4.34A4.77,4.77,0,0,0,2.79,42V53.33a4.79,4.79,0,0,0,1.94,3.85v2.94A1.88,1.88,0,0,0,6.61,62h5.82a1.88,1.88,0,0,0,1.88-1.88v-2H47.44v2A1.88,1.88,0,0,0,49.32,62h5.82A1.88,1.88,0,0,0,57,60.12V57.18A4.79,4.79,0,0,0,59,53.33V42a4.77,4.77,0,0,0-.89-2.79L55,34.82h5a.91.91,0,0,0,.91-.91V30A.91.91,0,0,0,60,29.12ZM2.67,33V30.94H5.9L6.42,33ZM12.5,60.12a.06.06,0,0,1-.06.06H6.61a.06.06,0,0,1-.06-.06v-2H12.5Zm42.71,0a.06.06,0,0,1-.06.06H49.32a.06.06,0,0,1-.06-.06v-2h5.95Zm-1-3.82H7.58a3,3,0,0,1-2.83-2.06H57A3,3,0,0,1,54.18,56.3ZM38.71,46.47v2.06H23.05V46.47ZM23.2,44.65A3,3,0,0,1,26,42.59h9.71a3,3,0,0,1,2.83,2.06Zm15.51,5.7v2.06H23.05V50.35ZM56.59,40.22A3,3,0,0,1,57.15,42V52.42H40.53V45.56a4.8,4.8,0,0,0-4.79-4.79H26a4.8,4.8,0,0,0-4.79,4.79v6.86H4.61V42a3,3,0,0,1,.55-1.73L9,34.82h33.5a.91.91,0,0,0,0-1.82H9.84l4.48-12.7a3,3,0,0,1,2.8-2H44.63a3,3,0,0,1,2.8,2L51.92,33H46.41a.91.91,0,0,0,0,1.82h6.33ZM59.09,33H55.34l.52-2.06h3.23Z" fill="#634831"/><path d="M16.32,39.8H10.5a.91.91,0,0,0,0,1.82h5.82a.91.91,0,0,0,0-1.82Z" fill="#634831"/><path d="M51.26,39.8H45.44a.91.91,0,0,0,0,1.82h5.82a.91.91,0,0,0,0-1.82Z" fill="#634831"/></g></g></svg>