<svg xmlns="http://www.w3.org/2000/svg" viewBox="0 0 131.83 104.32"><title>Ресурс 21</title><g id="Слой_2" data-name="Слой 2"><g id="Слой_1-2" data-name="Слой 1"><path d="M131.75,34.6c0-4.7.2-23.3-.1-26.3A8.72,8.72,0,0,0,126,.7c-2.8-.9-9.1-.5-12.6-.5C110.85.1,10.95-.2,8.15.2c-9.9,1.2-8,11-8,18.5,0,4.3-.2,49.8.1,52.8.9,10,11.2,8.2,18.2,8.2,2.9,0,102.4.3,105.5-.1a8.74,8.74,0,0,0,7.3-5.9C132.15,71,131.75,38.8,131.75,34.6Zm-8.1,40c-1.8.4-101.4.1-107.4.1-12.4,0-11,.9-11-13V13.9c0-4.1-.9-7.9,3.2-8.7,2.2-.4,93.2-.1,95.2-.1h12c12.4,0,11-1,11,12.9V65.8C126.65,69.8,127.45,73.7,123.65,74.6Z" fill="#634831"/><path d="M129.85,85.4a8.61,8.61,0,0,0-6.6-3.5H88.95a8.92,8.92,0,0,0-8.4,9c0,4.7-.6,9.9,4.8,12.4,3.1,1.5,9,.9,13.2.9H122c6.7,0,9.6-4.2,9.6-10.5C131.65,90.2,131.65,87.7,129.85,85.4ZM124,99.1c-1.7.5-28.1.2-33.1.2-6,0-5.4-2.5-5.3-8.1,0-2.1.8-3.4,2.6-3.9,2-.6,27.1-.2,33.2-.2,2.6,0,3.9.1,4.8,1.9C126.65,90,128.15,98.1,124,99.1Z" fill="#634831"/><path d="M84.95,48.7l-3.8-9.4c-1.3-3.3-2.6-6.3-3.8-9.6-.9-2.2-2.9-8.1-4.2-9.3-2.7-2.7-7.6-.3-6.3,4.4a36.56,36.56,0,0,0,1.8,4.6l11.8,28.5c2.1,5,6.3,3.7,7.7,1.1,1.2-2.2,11.9-30.4,13.3-33.8,2.4-5.9-3-6.9-5-5.3-1.8,1.5-4.7,10.6-6,14.2Z" fill="#634831"/><path d="M29.45,22.5c0,3.1,1.4,3.9,5,3.9H43V54.9c0,8.3,6.2,5.6,7.2,4.3,1.3-1.7.8-10.7.8-13.7,0-6.2-.3-13,0-19.1,2-.2,7.6-.1,10-.1a3.61,3.61,0,1,0,0-7.2H33.25c-2.3.1-3.8,1.2-3.8,3.4Z" fill="#634831"/><path d="M35.25,99.6h4.9c.4-3.2-1.1-6.8,4.6-6.8,4.5,0,31.8.2,33.9-.1a7,7,0,0,0,.1-2.5c.1-1,.4-1.6.5-2.6-5.2.3-21.4,0-27.8,0-4.3,0-9.6-.6-12.6,1.5-3.1,2.4-3.9,5-3.6,10.5Z" fill="#634831"/><path d="M54.25,81.8c0,.6-.2,3.7.2,4.1.6.4,22.3.4,22.9,0,.4-.4.2-4.1.2-4.7-3.5-.3-21-.2-23.3-.1Z" fill="#634831"/><path d="M114.85,95.7h4.3l.1-5h-5c0,2.9-.6,5,.6,5Z" fill="#634831"/></g></g></svg>