<svg xmlns="http://www.w3.org/2000/svg" viewBox="0 0 47.39 51.93"><title>Ресурс 8</title><g id="Слой_2" data-name="Слой 2"><g id="Слой_1-2" data-name="Слой 1"><circle cx="23.83" cy="48" r="3.92" fill="#634831"/><path d="M29.86,36.75a13.06,13.06,0,0,0-12,0,1.71,1.71,0,1,0,1.61,3,9.43,9.43,0,0,1,4.41-1.08,9.29,9.29,0,0,1,4.39,1.09,1.75,1.75,0,0,0,2.31-.7A1.71,1.71,0,0,0,29.86,36.75Z" fill="#634831"/><path d="M34,28.95h0a22.09,22.09,0,0,0-20.36,0A1.71,1.71,0,0,0,14,32.09,1.67,1.67,0,0,0,15.28,32a18.58,18.58,0,0,1,17.13,0,1.75,1.75,0,0,0,2.32-.7,1.71,1.71,0,0,0-.7-2.32Z" fill="#634831"/><path d="M38.17,21.13a30.54,30.54,0,0,0-14.33-3.49A30.51,30.51,0,0,0,9.32,21.23a1.72,1.72,0,0,0-.69,2.32,1.76,1.76,0,0,0,2.32.68,27.61,27.61,0,0,1,25.6-.09,1.71,1.71,0,1,0,1.61-3Z" fill="#634831"/><path d="M42.35,13.34a39.35,39.35,0,0,0-18.5-4.52A39.43,39.43,0,0,0,5.11,13.46a1.71,1.71,0,0,0-.69,2.32,1.75,1.75,0,0,0,2.32.69,36.62,36.62,0,0,1,34-.1,1.71,1.71,0,0,0,1.62-3Z" fill="#634831"/><path d="M44.88,8.54a1.71,1.71,0,0,0,2.31-.7,1.72,1.72,0,0,0-.7-2.32A48.19,48.19,0,0,0,23.85,0a48.28,48.28,0,0,0-23,5.68A1.72,1.72,0,0,0,.21,8a1.76,1.76,0,0,0,2.32.68A45.69,45.69,0,0,1,44.88,8.54Z" fill="#634831"/></g></g></svg>