<svg xmlns="http://www.w3.org/2000/svg" viewBox="0 0 60.59 61.27"><title>Ресурс 28</title><g id="Слой_2" data-name="Слой 2"><g id="Слой_1-2" data-name="Слой 1"><path d="M35.18,19.43V5.81a1,1,0,0,0,.65-.92A1,1,0,0,0,35.18,4V1a1,1,0,0,0-1-1H26.38a1,1,0,0,0-1,1V4a1,1,0,0,0-.65.92,1,1,0,0,0,.65.92V19.43A10.74,10.74,0,0,0,19.53,29V44.64a1,1,0,0,0,1,1H39.08V56.38a2.94,2.94,0,0,1-2.93,2.93H24.43a2.94,2.94,0,0,1-2.93-2.93V48.55a1,1,0,1,0-2,0v7.82a4.9,4.9,0,0,0,4.89,4.89H36.15A4.9,4.9,0,0,0,41,56.38V29A10.77,10.77,0,0,0,35.18,19.43ZM27.36,2h5.86V3.91H27.36V2Zm0,3.91h5.86V14H27.36V5.87Zm-.59,15.07a1,1,0,0,0,.59-.9V16h5.86V20a1,1,0,0,0,.59.9A8.8,8.8,0,0,1,39,28H21.54A8.8,8.8,0,0,1,26.77,20.95ZM39.08,43.66H21.5V30h17.6V43.66Z" fill="#634831"/><path d="M58.43,59.31a3.78,3.78,0,0,1-2.72-1.1,6,6,0,0,0-3-1.44V45.56a8.82,8.82,0,0,0,7.82-8.74,7.92,7.92,0,0,0,0-.92l-.32-3.09L59.4,25a1,1,0,0,0-1-.87H45.14a1,1,0,0,0-1,.87L43.05,35.9a7.92,7.92,0,0,0,0,.92,8.81,8.81,0,0,0,7.82,8.74V56.77a6.1,6.1,0,0,0-3,1.44,3.86,3.86,0,0,1-2.72,1.1,1,1,0,0,0,0,2H58.45a1,1,0,0,0,1-1A1,1,0,0,0,58.43,59.31ZM45,36.82q0-.36,0-.72l1-10H57.56l.61,5.86H48.25a1,1,0,0,0,0,2H58.37l.23,2.21q0,.36,0,.72a6.84,6.84,0,1,1-13.68,0Zm4.7,22.49a3.83,3.83,0,0,1,4.26,0Z" fill="#634831"/><path d="M15.43,59.31a3.78,3.78,0,0,1-2.72-1.1,6,6,0,0,0-3-1.44V45.56a8.82,8.82,0,0,0,7.82-8.74,8.06,8.06,0,0,0,0-.92l-.32-3.09L16.4,25a1,1,0,0,0-1-.87H2.14a1,1,0,0,0-1,.87L0,35.9a7.78,7.78,0,0,0,0,.92,8.81,8.81,0,0,0,7.82,8.74V56.77a6.1,6.1,0,0,0-3,1.44,3.86,3.86,0,0,1-2.72,1.1,1,1,0,0,0,0,2H15.44a1,1,0,0,0,1-1A1,1,0,0,0,15.43,59.31ZM1.95,36.82q0-.36,0-.72l1-10H14.56l.61,5.86H5.24a1,1,0,0,0,0,2H15.36l.23,2.21q0,.36,0,.72a6.84,6.84,0,1,1-13.67,0Zm4.7,22.49a3.44,3.44,0,0,1,2.13-.65,3.42,3.42,0,0,1,2.13.65Z" fill="#634831"/></g></g></svg>