<svg xmlns="http://www.w3.org/2000/svg" viewBox="0 0 256.81 61.5"><title>Ресурс 13</title><g id="Слой_2" data-name="Слой 2"><g id="Слой_1-2" data-name="Слой 1"><path d="M9.5,61.5c5-2.44,9.08-4.36,9.61-4.56,1.47-.53,22.63-18.23,22.63-18.23l7.94,3.44L80.54,25.23,91.41,28.4S129.82,1.65,132,2.37s-12.34,18-12.93,18.76-6.17,7.66-6.17,7.66l6.47,2.11L97.88,50.73,137,33.43l13.81,2.91,24.1-12.22-2.64,9.18-1.76,14.53-17,6.61s-1.92,2.93-4.44,7.06H256.81l-19-8.91L214.86,39.37l-40-17.71-8.82,4.23L132.57,0l-40,24L79.66,22.2l-30,16.65-6.47-4.23L10.3,56.55,0,61.5Z" fill="#d9e0e9" fill-rule="evenodd"/></g></g></svg>