<?xml version="1.0" encoding="utf-8"?>
<!-- Generator: Adobe Illustrator 21.1.0, SVG Export Plug-In . SVG Version: 6.00 Build 0)  -->
<svg version="1.1" id="Слой_1" xmlns="http://www.w3.org/2000/svg" xmlns:xlink="http://www.w3.org/1999/xlink" x="0px" y="0px"
	 viewBox="0 0 206.5 50.9" style="enable-background:new 0 0 206.5 50.9;" xml:space="preserve">
<style type="text/css">
	.st0{fill:#1F1A17;}
	.st1{fill:#F4B453;}
	.st2{fill:#FFFFFF;}
</style>
<g id="Ebene_x0020_1">
	<g id="_70288352">
		<path id="_33988232" class="st0" d="M69.6,5.7c0,1.1-0.7,2.2-2.2,3.1c-1.3,0.8-2.6,1.2-3.8,1.2c-2.1,0-4.5-0.6-7-2
			c-3.3-1.7-5.5-2.7-6.5-3.1C45.8,3.7,42,3,38.8,3C33.7,3,30.1,4,28,5.9c0.9,0.5,1.9,1.7,3.1,3.6c1.6,2.6,2.4,5.3,2.4,8.2
			c0,3.4-1.2,6.7-3.5,9.8c-2.5,3.3-5.4,4.9-8.8,4.9c-1.9,0-3.7-0.7-5.4-2.1c-1.7-1.4-2.5-3-2.5-4.9c0-1,0.3-2.4,0.8-4.2
			c0.2,0.3,0.3,0.5,0.3,0.7C14.2,23,14,24.2,14,25.4c0,1.8,0.8,3.3,2.4,4.6c1.5,1.2,3.1,1.9,4.9,1.9c3.3,0,6.1-1.6,8.4-4.7
			c2.2-2.9,3.3-6,3.3-9.4c0-2.7-0.7-5.2-2.2-7.6c-1-1.7-2.1-3-3.4-3.9c-1,0.5-2.2,1.8-3.5,4c-1.4,2.3-2.1,4.5-2.1,6.5
			c0,2,0.5,3.6,1.5,4.9c1,1.2,2.4,1.8,4.1,1.8c0.3,0,0.7,0,1.2,0v0.5c-0.6,0.1-1,0.1-1.3,0.1c-1.8,0-3.3-0.7-4.4-2
			c-1.1-1.3-1.6-3.1-1.6-5.3c0-2.5,0.8-5,2.5-7.5c1.3-1.6,2.3-2.7,2.9-3.5c-2.2-1.4-4.7-2-7.5-2c-4.8,0-8.9,1.9-12.3,5.7
			C3.7,13,2.1,17.2,2.1,22.1c0,5.1,1.5,9.5,4.6,13c3.2,3.6,7.4,5.5,12.4,5.5c4,0,7.6-1.5,10.7-4.6c1.3-1.3,2.4-2.7,3.1-4.1
			c1-2,3.1-7.3,6.2-15.8l-1.9-0.4l0.2-0.7l2,0.4c0.5-0.7,1.5-2,3-3.7c1.5-1.3,3-2.1,4.5-2.5c1.3-0.4,3.4-0.6,6.2-0.7v0.2
			c-0.1,0.2-1,0.4-2.5,0.6C49,9.4,47.8,9.7,47.2,10c-1.5,0.7-2.9,2.7-4.2,5.9l2.9,0.5c0.7-2.2,1.8-3.3,3.2-3.3c1,0,1.6,0.6,1.6,1.7
			c0,0.6-0.3,1.2-0.9,1.7c-0.6,0.5-1.3,0.9-2,1c0,0.4,0,0.8,0,1.5c0,4.3-1.4,6.5-4.2,6.5c-0.6,0-1.1-0.3-1.7-0.8l0.3-0.3
			c0.6,0.2,1,0.3,1.4,0.3c0.7,0,1.3-0.8,1.5-2.3c0.1-0.5,0.2-2.1,0.4-4.9l-2.9-0.4c-0.7,2.5-1.4,4.8-2,6.8c-1.6,4.9-3.1,8.2-4.5,9.9
			c-1.8,2.2-4.4,4-7.7,5.4c-3.2,1.3-6.2,2-9.3,2c-5.5,0-10-1.8-13.4-5.3c-3.5-3.6-5.2-8.1-5.2-13.6c0-5.3,1.8-9.8,5.3-13.4
			c3.6-3.7,8-5.5,13.3-5.5c2.5,0,5.2,0.7,7.9,2c3.8-3.2,7.7-4.8,11.8-4.8c3.5,0,6.7,0.8,9.8,2.3c1.7,1,4.2,2.4,7.6,4.3
			c2.7,1.6,5.2,2.3,7.4,2.3C66,9.5,68,8.3,69.6,5.7L69.6,5.7z M49.8,14.5c0-0.4-0.2-0.5-0.7-0.5c-0.3,0-0.6,0.3-0.9,0.9
			c-0.3,0.6-0.5,1-0.5,1.3c0,0.1,0,0.1,0.1,0.1c0.5,0,1-0.2,1.4-0.5C49.6,15.4,49.8,15,49.8,14.5z"/>
		<path id="_339882321" class="st0" d="M59.8,13.7c0,0.7-0.2,1.4-0.7,1.9c-0.5,0.6-1,0.9-1.7,0.9c-0.5,0-1-0.2-1.3-0.6
			c-0.4-0.4-0.5-0.8-0.5-1.3c0-0.7,0.3-1.3,0.8-1.8c0.5-0.5,1.1-0.8,1.7-0.8c0.5,0,0.9,0.2,1.2,0.5C59.6,12.8,59.8,13.2,59.8,13.7z
			 M62.7,23.3c-6.4,7.5-10.6,11.3-12.8,11.3c-2,0-3-1-3-2.9c0-1.5,0.6-3.3,1.8-5.6c0.7-1.2,1.7-3,3-5.4c0.4-0.7,0.8-1,1.3-1
			c0.5,0,0.8,0.1,1.1,0.2c0.3,0.1,0.5,0.2,0.5,0.2c0.1,0,0.4-0.2,0.9-0.7c0.5-0.5,0.8-0.7,1-0.8l-6.2,11.8c-0.3,0.6-0.4,1.2-0.4,1.9
			c0,0.8,0.4,1.3,1.1,1.3c0.7,0,2.7-1.6,5.9-4.8c2.4-2.4,4.2-4.4,5.4-5.9C62.3,23,62.7,23.3,62.7,23.3z"/>
		<path id="_3398823212" class="st0" d="M77.8,23.3c-1.1,1.9-3,4.1-5.7,6.6c-3.4,3.2-6.3,4.7-8.7,4.7c-1.2,0-2.3-0.4-3-1.2
			c-0.8-0.8-1.2-1.9-1.2-3.1c0-3.1,1.4-5.8,4.1-8c2.4-2,4.7-2.9,7-2.9c0.7,0,1.4,0.3,2,0.8c0.6,0.5,0.8,1.2,0.8,1.9
			c0,2-1.5,3.8-4.4,5.1c-2.2,1-4.1,1.6-5.7,1.6C62.3,30,62,31.1,62,32.1c0,1.2,0.4,1.8,1.3,1.8c2.1,0,4.9-1.5,8.2-4.4
			c2.6-2.3,4.6-4.5,5.8-6.5C77.4,23,77.8,23.3,77.8,23.3z M70.6,21.1c0-0.7-0.3-1.1-1-1.1c-1.6,0-3.6,2.5-6.1,7.6
			c1.3,0,2.8-0.8,4.6-2.5C69.7,23.4,70.6,22.1,70.6,21.1z"/>
		<path id="_33988232123" class="st0" d="M89.8,23.3c-2,3.5-4,5.8-5.9,7.1c-1.2,0.8-2.8,1.4-4.7,1.7c-1.5,1.8-3.3,2.6-5.4,2.6
			c-2.6,0-3.9-1.1-3.9-3.4c0-0.8,0.2-1.4,0.7-2c0.4-0.5,1-0.8,1.7-0.8c0.5,0,1.1,0.3,1.8,0.9c0.8,0.7,1.4,1.2,1.7,1.3
			c0.5-0.4,1-1,1.3-1.9c0.3-0.9,0.5-1.7,0.5-2.4c0-0.4-0.2-1.2-0.5-2.2c-0.3-1.1-0.5-1.9-0.5-2.5c0-1,0.2-2,0.5-2.9
			c0.5-1.2,1.2-1.8,2-1.8c0.8,0,1.2,0.3,1.2,0.9c0,0.7-0.5,2-1.5,3.8c1,2.2,1.5,4,1.5,5.3c0,2-0.3,3.5-0.9,4.4
			c2-0.4,3.5-1.1,4.6-1.9c1.6-1.2,3.4-3.4,5.3-6.5C89.5,23,89.8,23.3,89.8,23.3z M79.9,18c0-0.4-0.2-0.5-0.6-0.5
			c-0.2,0-0.4,0.2-0.6,0.7c-0.2,0.4-0.3,0.9-0.3,1.4c0,0.7,0.1,1.2,0.3,1.6C79.5,19.9,79.9,18.9,79.9,18L79.9,18z M75.3,31.2
			c-0.2-0.1-0.7-0.4-1.4-1c-0.6-0.5-1-0.7-1.3-0.7c-0.6,0-0.9,0.3-0.9,1c0,0.7,0.5,1.2,1.6,1.4C74.4,31.8,75.1,31.6,75.3,31.2
			L75.3,31.2z"/>
		<path id="_339882321234" class="st0" d="M108.8,23.3c-2.3,3.2-4.8,5.8-7.6,7.8c-3.4,2.4-6.7,3.6-10.1,3.6c-3.3,0-4.9-1.4-4.9-4.3
			c0-3.4,1.2-6.2,3.7-8.2c2.2-1.8,4.6-2.7,7.3-2.7c0.8,0,1.5,0.3,2.1,0.8c0.6,0.5,0.9,1.1,0.9,1.8c0,0.7-0.3,1.4-0.9,2
			c-0.6,0.6-1.3,0.9-2,0.9c-1.2,0-1.8-0.4-1.8-1.3c0-0.7,0.2-1.2,0.5-1.7c0.5,0.4,1,0.6,1.4,0.6c0.3,0,0.6-0.2,1-0.6
			c0.4-0.4,0.6-0.7,0.6-1c0-0.7-0.6-1-1.7-1c-1.5,0-3.2,1.7-5.3,5c-2,3.2-3,5.6-3,7.5c0,1.2,0.7,1.8,2.2,1.8c3.2,0,6.5-1.2,9.8-3.6
			c2.8-2,5.3-4.5,7.5-7.5C108.4,23,108.8,23.3,108.8,23.3z"/>
		<path id="_3398823212345" class="st0" d="M126.8,4.3c0,3-2,6.5-6.1,10.5c-2.9,2.8-5.6,4.8-7.9,6c-0.3,0.7-0.7,1.5-1,2.1
			c2.6-2.4,4.7-3.7,6.3-3.7c1.3,0,2,0.7,2,2c0,1-1.1,3.2-3.2,6.4c-2.1,3.2-3.2,4.9-3.2,4.9c0,0.6,0.2,0.9,0.7,0.9c1,0,2.7-1.3,5.2-4
			c0.6-0.6,2.5-2.8,5.7-6.6l0.4,0.3c-3.3,4.2-5.4,6.7-6.2,7.5c-2.4,2.5-4.4,3.8-5.9,3.8c-0.8,0-1.4-0.2-1.9-0.6
			c-0.5-0.4-0.8-1-0.8-1.7c0-0.8,1-2.8,3.1-5.9c2.1-3.2,3.1-4.9,3.1-5.3c0-0.3-0.1-0.5-0.4-0.5c-0.8,0-1.8,0.5-2.9,1.4
			c-1,0.8-1.8,1.6-2.2,2.5c-0.5,0.9-1.8,3.3-4,7.3c-0.8,1.6-1.5,2.4-2,2.4c-0.2,0-0.5-0.1-1-0.2c-0.5-0.1-0.7-0.2-0.8-0.2
			c-0.2,0-0.5,0.1-0.8,0.4c-0.4,0.4-0.7,0.7-1.1,0.9c2.2-4.2,3.9-7.4,5.2-9.8c2.7-4.9,5.3-9.1,7.8-12.8c4.5-6.5,7.9-9.8,10.1-9.8
			C126.2,2.8,126.8,3.3,126.8,4.3L126.8,4.3z M124.6,5c0-0.8-0.2-1.2-0.5-1.2c-0.8,0-2.3,1.6-4.4,4.9c-1,1.6-3.2,5.2-6.4,10.8
			c3.3-2.2,6.1-4.8,8.4-7.9C123.6,9,124.6,6.8,124.6,5L124.6,5z"/>
		<path id="_33988232123456" class="st0" d="M140.5,23.3c-1.1,1.9-3,4.1-5.7,6.6c-3.4,3.2-6.3,4.7-8.7,4.7c-1.2,0-2.3-0.4-3-1.2
			c-0.8-0.8-1.2-1.9-1.2-3.1c0-3.1,1.4-5.8,4.1-8c2.4-2,4.7-2.9,7-2.9c0.7,0,1.4,0.3,2,0.8c0.6,0.5,0.8,1.2,0.8,1.9
			c0,2-1.5,3.8-4.4,5.1c-2.2,1-4.1,1.6-5.7,1.6c-0.6,1.3-0.9,2.4-0.9,3.4c0,1.2,0.4,1.8,1.3,1.8c2.1,0,4.9-1.5,8.2-4.4
			c2.6-2.3,4.6-4.5,5.8-6.5C140.1,23,140.5,23.3,140.5,23.3z M133.3,21.1c0-0.7-0.3-1.1-1-1.1c-1.6,0-3.6,2.5-6.1,7.6
			c1.3,0,2.8-0.8,4.6-2.5C132.5,23.4,133.3,22.1,133.3,21.1z"/>
		<path id="_339882321234567" class="st0" d="M154.9,23.3c-2.2,3.4-4,5.8-5.4,7.2c-2.6,2.7-5.2,4.1-7.7,4.1c-1.7,0-2.6-1.2-2.6-3.6
			c0-0.8,0.7-2.3,2-4.6c1.3-2.3,2-3.6,2-3.9c0-0.2-0.1-0.3-0.2-0.3c-0.2,0-0.6,0.3-1.2,0.8c-0.6,0.5-1.2,0.8-1.8,0.8
			c-0.8,0-1.2-0.6-1.2-1.9c0-0.7,0.3-1.6,0.9-2.4c0.6-0.9,1.2-1.3,1.9-1.3c0.8,0,1.2,0.4,1.2,1.1c0,0.9-0.6,2-1.7,3.4
			c1-0.9,2-1.7,3-2.4c0.8-0.6,1.5-0.9,2.1-0.9c0.5,0,0.9,0.2,1.2,0.6c0.3,0.4,0.5,0.8,0.5,1.3c0,0.4-0.3,1.2-1,2.4l-3.9,6.6
			c-0.6,1-0.9,1.7-0.9,2c0,0.9,0.4,1.3,1.3,1.3c2.6,0,6.3-3.5,11.2-10.5L154.9,23.3L154.9,23.3z M142,19.4c0-0.3-0.1-0.4-0.4-0.4
			c-0.5,0-0.9,0.4-1.4,1.1c-0.4,0.7-0.6,1.4-0.6,1.9c0,0.6,0.2,0.8,0.5,0.8C141.4,21.1,142,20,142,19.4L142,19.4z"/>
		<path id="_3398823212345678" class="st0" d="M172.8,4.3c0,3-2,6.5-6.1,10.5c-2.9,2.8-5.6,4.8-7.9,6c-0.3,0.7-0.7,1.5-1,2.1
			c2.6-2.4,4.7-3.7,6.3-3.7c1.3,0,2,0.7,2,2c0,1-1.1,3.2-3.2,6.4c-2.1,3.2-3.2,4.9-3.2,4.9c0,0.6,0.2,0.9,0.7,0.9c1,0,2.7-1.3,5.2-4
			c0.6-0.6,2.5-2.8,5.7-6.6l0.4,0.3c-3.3,4.2-5.4,6.7-6.2,7.5c-2.4,2.5-4.4,3.8-5.9,3.8c-0.8,0-1.4-0.2-1.9-0.6
			c-0.5-0.4-0.8-1-0.8-1.7c0-0.8,1-2.8,3.1-5.9c2.1-3.2,3.1-4.9,3.1-5.3c0-0.3-0.1-0.5-0.4-0.5c-0.8,0-1.8,0.5-2.9,1.4
			c-1,0.8-1.8,1.6-2.2,2.5c-0.5,0.9-1.8,3.3-4,7.3c-0.8,1.6-1.5,2.4-2,2.4c-0.2,0-0.5-0.1-1-0.2c-0.5-0.1-0.7-0.2-0.8-0.2
			c-0.2,0-0.5,0.1-0.8,0.4c-0.4,0.4-0.7,0.7-1.1,0.9c2.2-4.2,3.9-7.4,5.2-9.8c2.7-4.9,5.3-9.1,7.8-12.8c4.5-6.5,7.9-9.8,10.1-9.8
			C172.2,2.8,172.8,3.3,172.8,4.3L172.8,4.3z M170.6,5c0-0.8-0.2-1.2-0.5-1.2c-0.8,0-2.3,1.6-4.4,4.9c-1,1.6-3.2,5.2-6.4,10.8
			c3.3-2.2,6.1-4.8,8.4-7.9C169.6,9,170.6,6.8,170.6,5L170.6,5z"/>
		<path id="_33988232123456789" class="st0" d="M189.6,23.3c-1.1,1.4-3.1,2.9-6,4.5c-0.5,0.2-1.2,0.4-2.2,0.7
			c-1,1.7-2.4,3.1-4.1,4.2c-1.9,1.2-3.7,1.9-5.5,1.9c-1.1,0-2-0.5-2.7-1.5c-0.7-0.9-1-1.9-1-3c0-2.8,1.1-5.3,3.4-7.5
			c2.3-2.2,4.8-3.3,7.6-3.3c1.1,0,2.1,0.4,2.8,1.3c0.7,0.9,1.1,2,1.1,3.3c0,0.8-0.1,1.5-0.4,2.2c-0.1,0.3-0.4,0.9-0.7,1.7
			c0.3,0,0.7-0.2,1.5-0.5c1.8-0.8,3.7-2.2,5.9-4.3L189.6,23.3L189.6,23.3z M180.1,21.1c0-0.8-0.4-1.2-1.2-1.2
			c-1.5,0-3.3,1.7-5.3,5.1c-1.9,3.2-2.8,5.6-2.8,7.4c0,1.1,0.3,1.6,0.9,1.6c1.7,0,3.7-2,6-5.9c-1.8-0.6-2.7-1.4-2.7-2.4
			c0-1,0.5-1.6,1.5-1.6c0.7,0,1,0.3,1,1c0,0.6-0.4,0.9-1.3,1c0.2,0.8,0.8,1.3,1.9,1.5C179.4,25,180.1,22.8,180.1,21.1L180.1,21.1z"
			/>
		<path id="_3398823212345678910" class="st0" d="M206.5,6.3c0,2-1.1,4.4-3.3,7.3c-2.4,3.1-5.3,5.6-8.8,7.4h2.7l-0.5,0.9h-3.5
			c-2.2,4.4-4.4,8.7-6.6,13.1c-3.1,5.8-5.7,9.8-7.7,11.9c-2.4,2.6-4.8,3.9-7.4,3.9c-1.4,0-2.6-0.4-3.5-1.3c-0.9-0.8-1.4-1.9-1.4-3.1
			c0-1.3,0.5-2.5,1.4-3.5c0.9-1.1,2-1.6,3.3-1.6c0.6,0,1.2,0.3,1.7,0.8c0.5,0.5,0.7,1.1,0.7,1.7c0,0.6-0.3,1.2-0.8,1.6
			c-0.5,0.5-1.2,0.7-1.9,0.7c-0.6,0-1.1-0.4-1.6-1.3c1-0.1,1.5-0.4,1.5-0.8c0-0.8-0.3-1.3-1-1.3c-0.6,0-1.2,0.5-1.8,1.6
			c-0.5,0.9-0.7,1.8-0.7,2.5c0,0.9,0.4,1.7,1.2,2.4c0.8,0.7,1.8,1,2.9,1c1.9,0,3.7-1.3,5.5-3.9c1.1-1.6,2.9-5,5.3-10.2
			c3.1-6.6,5.5-11.4,7.1-14.3h-2.9l0.5-0.9h2.9c2.1-3.7,4.3-6.9,6.5-9.8c3.5-4.5,6.3-6.7,8.2-6.7c0.5,0,0.9,0.2,1.3,0.6
			C206.3,5.5,206.5,5.9,206.5,6.3L206.5,6.3z M204.6,6.7c0-0.9-0.3-1.4-0.8-1.4c-0.8,0-2.5,2.2-5.2,6.6c-2.2,3.6-3.9,6.7-5,9.2
			c3.7-2.8,6.6-5.6,8.6-8.6C203.9,10.1,204.6,8.2,204.6,6.7L204.6,6.7z"/>
		<path id="_70893656" class="st1" d="M69.1,5.2c0,1.1-0.7,2.2-2.2,3.1c-1.3,0.8-2.6,1.2-3.8,1.2c-2.1,0-4.5-0.6-7-2
			c-3.3-1.7-5.5-2.7-6.5-3.1c-4.3-1.3-8.1-2-11.3-2c-5.1,0-8.7,1-10.8,2.9c0.9,0.5,1.9,1.7,3.1,3.6c1.6,2.6,2.4,5.3,2.4,8.2
			c0,3.4-1.2,6.7-3.5,9.8c-2.5,3.3-5.4,4.9-8.8,4.9c-1.9,0-3.7-0.7-5.4-2.1c-1.7-1.4-2.5-3-2.5-4.9c0-1,0.3-2.4,0.8-4.2
			c0.2,0.3,0.3,0.5,0.3,0.7c-0.4,1.2-0.6,2.4-0.6,3.6c0,1.8,0.8,3.3,2.4,4.6c1.5,1.2,3.1,1.9,4.9,1.9c3.3,0,6.1-1.6,8.4-4.7
			c2.2-2.9,3.3-6,3.3-9.4c0-2.7-0.7-5.2-2.2-7.6c-1-1.7-2.1-3-3.4-3.9c-1,0.5-2.2,1.8-3.5,4c-1.4,2.3-2.1,4.5-2.1,6.5
			c0,2,0.5,3.6,1.5,4.9c1,1.2,2.4,1.8,4.1,1.8c0.3,0,0.6,0,1.2,0v0.5c-0.6,0.1-1,0.1-1.3,0.1c-1.8,0-3.3-0.7-4.4-2s-1.6-3.1-1.6-5.3
			c0-2.5,0.8-5,2.5-7.5c1.3-1.6,2.3-2.7,2.9-3.5c-2.2-1.4-4.7-2-7.5-2c-4.8,0-8.9,1.9-12.3,5.7c-3.2,3.6-4.8,7.9-4.8,12.8
			c0,5.1,1.5,9.5,4.6,13c3.2,3.6,7.4,5.5,12.4,5.5c4,0,7.6-1.5,10.7-4.6c1.3-1.3,2.4-2.7,3.1-4.1c1-2,3.1-7.3,6.2-15.8l-1.9-0.4
			l0.2-0.7l2,0.4c0.5-0.7,1.5-2,3-3.7c1.5-1.3,3-2.1,4.5-2.5c1.3-0.4,3.4-0.6,6.2-0.7V8c-0.1,0.2-1,0.4-2.5,0.6
			c-1.7,0.3-2.9,0.5-3.5,0.8c-1.5,0.7-2.9,2.7-4.2,5.9l2.9,0.5c0.7-2.2,1.8-3.3,3.2-3.3c1,0,1.6,0.6,1.6,1.7c0,0.6-0.3,1.2-0.9,1.7
			c-0.6,0.5-1.3,0.9-2,1c0,0.4,0,0.8,0,1.5c0,4.3-1.4,6.5-4.2,6.5c-0.6,0-1.1-0.3-1.7-0.8l0.3-0.3c0.6,0.2,1,0.3,1.4,0.3
			c0.7,0,1.3-0.8,1.5-2.3c0.1-0.5,0.2-2.1,0.4-4.9l-2.9-0.4c-0.7,2.5-1.4,4.8-2,6.8c-1.6,4.9-3.1,8.2-4.5,9.9
			c-1.8,2.2-4.4,4-7.7,5.4c-3.2,1.3-6.2,2-9.3,2c-5.5,0-10-1.8-13.4-5.3C1.7,31.7,0,27.1,0,21.7c0-5.3,1.8-9.8,5.3-13.4
			c3.6-3.7,8-5.5,13.3-5.5c2.5,0,5.2,0.7,7.9,2C30.3,1.6,34.2,0,38.3,0c3.5,0,6.7,0.8,9.8,2.3c1.7,1,4.2,2.4,7.6,4.3
			C58.4,8.2,60.9,9,63.1,9C65.5,9,67.5,7.8,69.1,5.2L69.1,5.2z M49.3,14c0-0.4-0.2-0.5-0.7-0.5c-0.3,0-0.6,0.3-0.9,0.9
			c-0.3,0.6-0.5,1-0.5,1.3c0,0.1,0,0.1,0.1,0.1c0.5,0,1-0.2,1.4-0.5C49.1,14.9,49.3,14.5,49.3,14z"/>
		<path id="_708936561" class="st1" d="M59.3,13.2c0,0.7-0.2,1.4-0.7,1.9c-0.5,0.6-1,0.9-1.7,0.9c-0.5,0-1-0.2-1.3-0.6
			c-0.4-0.4-0.5-0.8-0.5-1.3c0-0.7,0.3-1.3,0.8-1.8c0.5-0.5,1.1-0.8,1.7-0.8c0.5,0,0.9,0.2,1.2,0.5C59.1,12.3,59.3,12.7,59.3,13.2z
			 M62.2,22.8c-6.4,7.5-10.6,11.3-12.8,11.3c-2,0-3-1-3-2.9c0-1.5,0.6-3.3,1.8-5.6c0.7-1.2,1.7-3,3-5.4c0.4-0.7,0.8-1,1.3-1
			c0.5,0,0.8,0.1,1.1,0.2c0.3,0.1,0.5,0.2,0.5,0.2c0.1,0,0.4-0.2,0.9-0.7c0.5-0.5,0.8-0.7,1-0.8L49.8,30c-0.3,0.6-0.4,1.2-0.4,1.9
			c0,0.8,0.4,1.3,1.1,1.3c0.7,0,2.7-1.6,5.9-4.8c2.4-2.4,4.2-4.4,5.4-5.9C61.8,22.5,62.2,22.8,62.2,22.8z"/>
		<path id="_7089365612" class="st1" d="M77.3,22.8c-1.1,1.9-3,4.1-5.7,6.6c-3.4,3.2-6.3,4.7-8.7,4.7c-1.2,0-2.3-0.4-3-1.2
			c-0.8-0.8-1.2-1.9-1.2-3.1c0-3.1,1.4-5.8,4.1-8c2.4-2,4.7-2.9,7-2.9c0.7,0,1.4,0.3,2,0.8c0.6,0.5,0.8,1.2,0.8,1.9
			c0,2-1.5,3.8-4.4,5.1c-2.2,1-4.1,1.6-5.7,1.6c-0.6,1.3-0.9,2.4-0.9,3.4c0,1.2,0.4,1.8,1.3,1.8c2.1,0,4.9-1.5,8.2-4.4
			c2.6-2.3,4.6-4.5,5.8-6.5L77.3,22.8z M70.1,20.6c0-0.7-0.3-1.1-1-1.1c-1.6,0-3.6,2.5-6.1,7.6c1.3,0,2.8-0.8,4.6-2.5
			C69.2,22.9,70.1,21.6,70.1,20.6z"/>
		<path id="_70893656123" class="st1" d="M89.3,22.8c-2,3.5-4,5.8-5.9,7.1c-1.2,0.8-2.8,1.4-4.7,1.7c-1.5,1.8-3.3,2.6-5.4,2.6
			c-2.6,0-3.9-1.1-3.9-3.4c0-0.8,0.2-1.4,0.7-2c0.4-0.5,1-0.8,1.7-0.8c0.5,0,1.1,0.3,1.8,0.9c0.8,0.7,1.4,1.2,1.7,1.3
			c0.5-0.4,1-1,1.3-1.9c0.3-0.9,0.5-1.7,0.5-2.4c0-0.4-0.2-1.2-0.5-2.2c-0.3-1.1-0.5-1.9-0.5-2.5c0-1,0.2-2,0.5-2.9
			c0.5-1.2,1.2-1.8,2-1.8c0.8,0,1.2,0.3,1.2,0.9c0,0.7-0.5,2-1.5,3.8c1,2.2,1.5,4,1.5,5.3c0,2-0.3,3.5-0.9,4.4
			c2-0.4,3.5-1.1,4.6-1.9c1.6-1.2,3.4-3.4,5.3-6.5L89.3,22.8z M79.4,17.5c0-0.4-0.2-0.5-0.6-0.5c-0.2,0-0.4,0.2-0.6,0.7
			c-0.2,0.4-0.3,0.9-0.3,1.4c0,0.7,0.1,1.2,0.3,1.6C79,19.4,79.4,18.4,79.4,17.5L79.4,17.5z M74.8,30.7c-0.2-0.1-0.7-0.4-1.4-1
			c-0.6-0.5-1-0.7-1.3-0.7c-0.6,0-0.9,0.3-0.9,1c0,0.7,0.5,1.2,1.6,1.4C73.9,31.3,74.6,31.1,74.8,30.7z"/>
		<path id="_708936561234" class="st1" d="M108.3,22.8c-2.3,3.2-4.8,5.8-7.6,7.8c-3.4,2.4-6.7,3.6-10.1,3.6c-3.3,0-4.9-1.4-4.9-4.3
			c0-3.4,1.2-6.2,3.7-8.2c2.2-1.8,4.6-2.7,7.3-2.7c0.8,0,1.5,0.3,2.1,0.8c0.6,0.5,0.9,1.1,0.9,1.8c0,0.7-0.3,1.4-0.9,2
			c-0.6,0.6-1.3,0.9-2,0.9c-1.2,0-1.8-0.4-1.8-1.3c0-0.7,0.2-1.2,0.5-1.7c0.5,0.4,1,0.6,1.4,0.6c0.3,0,0.6-0.2,1-0.6
			c0.4-0.4,0.6-0.7,0.6-1c0-0.7-0.6-1-1.7-1c-1.5,0-3.2,1.7-5.3,5c-2,3.2-3,5.6-3,7.5c0,1.2,0.7,1.8,2.2,1.8c3.2,0,6.5-1.2,9.8-3.6
			c2.8-2,5.3-4.5,7.5-7.5L108.3,22.8L108.3,22.8z"/>
		<path id="_7089365612345" class="st1" d="M126.3,3.8c0,3-2,6.5-6.1,10.5c-2.9,2.8-5.6,4.8-7.9,6c-0.3,0.7-0.7,1.5-1,2.1
			c2.6-2.4,4.7-3.7,6.3-3.7c1.3,0,2,0.7,2,2c0,1-1.1,3.2-3.2,6.4c-2.1,3.2-3.2,4.9-3.2,4.9c0,0.6,0.2,0.9,0.7,0.9c1,0,2.7-1.3,5.2-4
			c0.6-0.6,2.5-2.8,5.7-6.6l0.4,0.3c-3.3,4.2-5.4,6.7-6.2,7.5c-2.4,2.5-4.4,3.8-5.9,3.8c-0.8,0-1.4-0.2-1.9-0.6
			c-0.5-0.4-0.8-1-0.8-1.7c0-0.8,1-2.8,3.1-5.9s3.1-4.9,3.1-5.3c0-0.3-0.1-0.5-0.4-0.5c-0.8,0-1.8,0.5-2.9,1.4
			c-1,0.8-1.8,1.6-2.2,2.5c-0.5,0.9-1.8,3.3-4,7.3c-0.8,1.6-1.5,2.4-2,2.4c-0.2,0-0.5-0.1-1-0.2c-0.5-0.1-0.7-0.2-0.8-0.2
			c-0.2,0-0.5,0.1-0.8,0.4c-0.4,0.4-0.7,0.7-1.1,0.9c2.2-4.2,3.9-7.4,5.2-9.8c2.7-4.9,5.3-9.1,7.8-12.8c4.5-6.5,7.9-9.8,10.1-9.8
			C125.7,2.3,126.3,2.8,126.3,3.8L126.3,3.8z M124.1,4.5c0-0.8-0.2-1.2-0.5-1.2c-0.8,0-2.3,1.6-4.4,4.9c-1,1.6-3.2,5.2-6.4,10.8
			c3.3-2.2,6.1-4.8,8.4-7.9C123.1,8.5,124.1,6.3,124.1,4.5L124.1,4.5z"/>
		<path id="_70893656123456" class="st1" d="M140,22.8c-1.1,1.9-3,4.1-5.7,6.6c-3.4,3.2-6.3,4.7-8.7,4.7c-1.2,0-2.3-0.4-3-1.2
			c-0.8-0.8-1.2-1.9-1.2-3.1c0-3.1,1.4-5.8,4.1-8c2.4-2,4.7-2.9,7-2.9c0.7,0,1.4,0.3,2,0.8c0.6,0.5,0.8,1.2,0.8,1.9
			c0,2-1.5,3.8-4.4,5.1c-2.2,1-4.1,1.6-5.7,1.6c-0.6,1.3-0.9,2.4-0.9,3.4c0,1.2,0.4,1.8,1.3,1.8c2.1,0,4.9-1.5,8.2-4.4
			c2.6-2.3,4.6-4.5,5.8-6.5L140,22.8L140,22.8z M132.8,20.6c0-0.7-0.3-1.1-1-1.1c-1.6,0-3.6,2.5-6.1,7.6c1.3,0,2.8-0.8,4.6-2.5
			C132,22.9,132.8,21.6,132.8,20.6z"/>
		<path id="_708936561234567" class="st1" d="M154.4,22.8c-2.2,3.4-4,5.8-5.4,7.2c-2.6,2.7-5.2,4.1-7.7,4.1c-1.7,0-2.6-1.2-2.6-3.6
			c0-0.8,0.7-2.3,2-4.6c1.3-2.3,2-3.6,2-3.9c0-0.2-0.1-0.3-0.2-0.3c-0.2,0-0.6,0.3-1.2,0.8c-0.6,0.5-1.2,0.8-1.8,0.8
			c-0.8,0-1.2-0.6-1.2-1.9c0-0.7,0.3-1.6,0.9-2.4c0.6-0.9,1.2-1.3,1.9-1.3c0.8,0,1.2,0.4,1.2,1.1c0,0.9-0.6,2-1.7,3.4
			c1-0.9,2-1.7,3-2.4c0.8-0.6,1.5-0.9,2.1-0.9c0.5,0,0.9,0.2,1.2,0.6c0.3,0.4,0.5,0.8,0.5,1.3c0,0.4-0.3,1.2-1,2.4l-3.9,6.6
			c-0.6,1-0.9,1.7-0.9,2c0,0.9,0.4,1.3,1.3,1.3c2.6,0,6.3-3.5,11.2-10.5L154.4,22.8L154.4,22.8z M141.5,18.9c0-0.3-0.1-0.4-0.4-0.4
			c-0.5,0-0.9,0.4-1.4,1.1c-0.4,0.7-0.6,1.4-0.6,1.9c0,0.6,0.2,0.8,0.5,0.8C140.9,20.6,141.5,19.5,141.5,18.9L141.5,18.9z"/>
		<path id="_7089365612345678" class="st1" d="M172.3,3.8c0,3-2,6.5-6.1,10.5c-2.9,2.8-5.6,4.8-7.9,6c-0.3,0.7-0.7,1.5-1,2.1
			c2.6-2.4,4.7-3.7,6.3-3.7c1.3,0,2,0.7,2,2c0,1-1.1,3.2-3.2,6.4c-2.1,3.2-3.2,4.9-3.2,4.9c0,0.6,0.2,0.9,0.7,0.9c1,0,2.7-1.3,5.2-4
			c0.6-0.6,2.5-2.8,5.7-6.6l0.4,0.3c-3.3,4.2-5.4,6.7-6.2,7.5c-2.4,2.5-4.4,3.8-5.9,3.8c-0.8,0-1.4-0.2-1.9-0.6
			c-0.5-0.4-0.8-1-0.8-1.7c0-0.8,1-2.8,3.1-5.9c2.1-3.2,3.1-4.9,3.1-5.3c0-0.3-0.1-0.5-0.4-0.5c-0.8,0-1.8,0.5-2.9,1.4
			c-1,0.8-1.8,1.6-2.2,2.5c-0.5,0.9-1.8,3.3-4,7.3c-0.8,1.6-1.5,2.4-2,2.4c-0.2,0-0.5-0.1-1-0.2c-0.5-0.1-0.7-0.2-0.8-0.2
			c-0.2,0-0.5,0.1-0.8,0.4c-0.4,0.4-0.7,0.7-1.1,0.9c2.2-4.2,3.9-7.4,5.2-9.8c2.7-4.9,5.3-9.1,7.8-12.8c4.5-6.5,7.9-9.8,10.1-9.8
			C171.7,2.3,172.3,2.8,172.3,3.8L172.3,3.8z M170.1,4.5c0-0.8-0.2-1.2-0.5-1.2c-0.8,0-2.3,1.6-4.4,4.9c-1,1.6-3.2,5.2-6.4,10.8
			c3.3-2.2,6.1-4.8,8.4-7.9C169.1,8.5,170.1,6.3,170.1,4.5L170.1,4.5z"/>
		<path id="_70893656123456789" class="st1" d="M189.1,22.8c-1.1,1.4-3.1,2.9-6,4.5c-0.5,0.2-1.2,0.4-2.2,0.7
			c-1,1.7-2.4,3.1-4.1,4.2c-1.9,1.2-3.7,1.9-5.5,1.9c-1.1,0-2-0.5-2.7-1.5c-0.7-0.9-1-1.9-1-3c0-2.8,1.1-5.3,3.4-7.5
			c2.3-2.2,4.8-3.3,7.6-3.3c1.1,0,2.1,0.4,2.8,1.3c0.7,0.9,1.1,2,1.1,3.3c0,0.8-0.1,1.5-0.4,2.2c-0.1,0.3-0.4,0.9-0.7,1.7
			c0.3,0,0.7-0.2,1.5-0.5c1.8-0.8,3.7-2.2,5.9-4.3L189.1,22.8L189.1,22.8z M179.6,20.6c0-0.8-0.4-1.2-1.2-1.2
			c-1.5,0-3.3,1.7-5.3,5.1c-1.9,3.2-2.8,5.6-2.8,7.4c0,1.1,0.3,1.6,0.9,1.6c1.7,0,3.7-2,6-5.9c-1.8-0.6-2.7-1.4-2.7-2.4
			c0-1,0.5-1.6,1.5-1.6c0.7,0,1,0.3,1,1c0,0.6-0.4,0.9-1.3,1c0.2,0.8,0.8,1.3,1.9,1.5C178.9,24.5,179.6,22.3,179.6,20.6L179.6,20.6z
			"/>
		<path id="_7089365612345678910" class="st1" d="M206,5.9c0,2-1.1,4.4-3.3,7.3c-2.4,3.1-5.3,5.6-8.8,7.4h2.7l-0.5,0.9h-3.5
			c-2.2,4.4-4.4,8.7-6.6,13.1c-3.1,5.8-5.7,9.8-7.7,11.9c-2.4,2.6-4.8,3.9-7.4,3.9c-1.4,0-2.6-0.4-3.5-1.3c-0.9-0.8-1.4-1.9-1.4-3.1
			c0-1.3,0.5-2.5,1.4-3.5c0.9-1.1,2-1.6,3.3-1.6c0.6,0,1.2,0.3,1.7,0.8c0.5,0.5,0.7,1.1,0.7,1.7c0,0.6-0.3,1.2-0.8,1.6
			c-0.5,0.5-1.2,0.7-1.9,0.7c-0.6,0-1.1-0.4-1.6-1.3c1-0.1,1.5-0.4,1.5-0.8c0-0.8-0.3-1.3-1-1.3c-0.6,0-1.2,0.5-1.8,1.6
			c-0.5,0.9-0.7,1.8-0.7,2.5c0,0.9,0.4,1.7,1.2,2.4c0.8,0.7,1.8,1,2.9,1c1.9,0,3.7-1.3,5.5-3.9c1.1-1.6,2.9-5,5.3-10.2
			c3.1-6.6,5.5-11.4,7.1-14.3h-2.9l0.5-0.9h2.9c2.1-3.7,4.3-6.9,6.5-9.8c3.5-4.5,6.3-6.7,8.2-6.7c0.5,0,0.9,0.2,1.3,0.6
			C205.8,5,206,5.4,206,5.9L206,5.9z M204.1,6.2c0-0.9-0.3-1.4-0.8-1.4c-0.8,0-2.5,2.2-5.2,6.6c-2.2,3.6-3.9,6.7-5,9.2
			c3.7-2.8,6.6-5.6,8.6-8.6C203.4,9.6,204.1,7.7,204.1,6.2L204.1,6.2z"/>
		<path id="_70893832" class="st0" d="M126.9,44.2l0.5,1.5h1.5h0.8l-0.6,0.5l-1.2,0.9l0.5,1.5l0.2,0.8l-0.7-0.5l-1.2-0.9l-1.2,0.9
			l-0.7,0.5l0.2-0.8l0.5-1.5l-1.2-0.9l-0.6-0.5h0.8h1.5l0.5-1.5l0.3-0.8L126.9,44.2z M126.9,46l-0.3-0.8l-0.3,0.8l-0.1,0.2h-0.2
			h-0.9l0.7,0.5l0.1,0.1l-0.1,0.2l-0.3,0.9l0.7-0.5l0.2-0.1l0.2,0.1l0.7,0.5l-0.3-0.9l-0.1-0.2l0.1-0.1l0.7-0.5h-0.9H127L126.9,46
			L126.9,46z"/>
		<path id="_70958768" class="st0" d="M118.4,44.2l0.5,1.5h1.5h0.8l-0.6,0.5l-1.2,0.9l0.5,1.5l0.2,0.8l-0.7-0.5l-1.2-0.9l-1.2,0.9
			l-0.7,0.5l0.2-0.8l0.5-1.5l-1.2-0.9l-0.6-0.5h0.8h1.5l0.5-1.5l0.3-0.8L118.4,44.2L118.4,44.2z M118.4,46l-0.3-0.8l-0.3,0.8
			l-0.1,0.2h-0.2h-0.9l0.7,0.5l0.1,0.1l-0.1,0.2l-0.3,0.9l0.7-0.5l0.2-0.1l0.2,0.1l0.7,0.5l-0.3-0.9l-0.1-0.2l0.1-0.1l0.7-0.5h-0.9
			h-0.2L118.4,46L118.4,46z"/>
		<path id="_70962528" class="st0" d="M109.9,44.2l0.5,1.5h1.5h0.8l-0.6,0.5l-1.2,0.9l0.5,1.5l0.2,0.8l-0.7-0.5l-1.2-0.9l-1.2,0.9
			l-0.7,0.5l0.2-0.8l0.5-1.5l-1.2-0.9l-0.6-0.5h0.8h1.5l0.5-1.5l0.3-0.8L109.9,44.2z M109.9,46l-0.3-0.8l-0.3,0.8l-0.1,0.2h-0.2
			h-0.9l0.7,0.5l0.1,0.1l-0.1,0.2l-0.3,0.9l0.7-0.5l0.2-0.1l0.2,0.1l0.7,0.5l-0.3-0.9l-0.1-0.2l0.1-0.1l0.7-0.5h-0.9H110L109.9,46z"
			/>
		<polygon id="_71041008" class="st0" points="135.9,50.1 137.3,50.1 137.3,43.4 135.9,43.4 135.9,46 133.6,46 133.6,43.4 
			132.2,43.4 132.2,50.1 133.6,50.1 133.6,47.1 135.9,47.1 		"/>
		<path id="_710410081" class="st0" d="M145.4,46.7c0-0.5-0.1-1-0.2-1.4c-0.1-0.4-0.3-0.8-0.6-1.1c-0.3-0.3-0.6-0.5-1-0.7
			c-0.4-0.2-0.9-0.3-1.4-0.3c-1,0-1.8,0.3-2.3,0.9c-0.6,0.6-0.8,1.5-0.8,2.5c0,0.5,0.1,1,0.2,1.4c0.1,0.4,0.4,0.8,0.6,1.1
			c0.3,0.3,0.6,0.5,1,0.7c0.4,0.2,0.9,0.2,1.4,0.2c0.5,0,1-0.1,1.4-0.3c0.4-0.2,0.7-0.4,1-0.7c0.3-0.3,0.4-0.7,0.6-1.1
			C145.3,47.7,145.4,47.2,145.4,46.7L145.4,46.7z M143.8,46.7c0,0.3,0,0.6,0,0.8c0,0.3-0.1,0.5-0.2,0.8c-0.1,0.2-0.3,0.4-0.5,0.6
			c-0.2,0.1-0.5,0.2-0.8,0.2c-0.4,0-0.7-0.1-0.9-0.2c-0.2-0.1-0.4-0.3-0.5-0.6c-0.1-0.2-0.2-0.5-0.2-0.8c0-0.3,0-0.6,0-0.9
			c0-0.3,0-0.5,0-0.8c0-0.3,0.1-0.5,0.2-0.8c0.1-0.2,0.3-0.4,0.5-0.6c0.2-0.1,0.5-0.2,0.8-0.2c0.4,0,0.7,0.1,0.9,0.2
			c0.2,0.1,0.4,0.3,0.5,0.6c0.1,0.2,0.2,0.5,0.2,0.8C143.8,46.2,143.8,46.5,143.8,46.7z"/>
		<polygon id="_7104100812" class="st0" points="151,44.5 151.2,43.4 145.9,43.4 145.9,44.5 147.8,44.5 147.8,50.1 149.2,50.1 
			149.2,44.5 		"/>
		<polygon id="_71041008123" class="st0" points="152.1,50.1 156.4,50.1 156.4,48.9 153.5,48.9 153.5,47.1 155.7,47.1 155.7,46 
			153.5,46 153.5,44.5 156.1,44.5 156.3,43.4 152.1,43.4 		"/>
		<polygon id="_710410081234" class="st0" points="161.8,50.1 162.1,48.9 159.3,48.9 159.3,43.4 158,43.4 158,50.1 		"/>
		<polygon id="_70288088" class="st2" points="126.6,44.7 127.1,46.1 128.4,46.1 127.3,46.9 127.7,48.2 126.6,47.4 125.6,48.2 
			126,46.9 124.9,46.1 126.2,46.1 		"/>
		<polygon id="_70289800" class="st2" points="118.2,44.7 118.6,46.1 119.9,46.1 118.8,46.9 119.2,48.2 118.2,47.4 117.1,48.2 
			117.5,46.9 116.4,46.1 117.7,46.1 		"/>
		<polygon id="_33988504" class="st2" points="109.7,44.7 110.1,46.1 111.4,46.1 110.3,46.9 110.7,48.2 109.7,47.4 108.6,48.2 
			109,46.9 107.9,46.1 109.2,46.1 		"/>
	</g>
</g>
</svg>
