<?xml version="1.0" encoding="UTF-8"?>
<!DOCTYPE svg PUBLIC "-//W3C//DTD SVG 1.1//EN" "http://www.w3.org/Graphics/SVG/1.1/DTD/svg11.dtd">
<!-- Creator: CorelDRAW X7 -->
<svg xmlns="http://www.w3.org/2000/svg" xml:space="preserve" width="16.3682mm" height="16.3682mm" version="1.1" style="shape-rendering:geometricPrecision; text-rendering:geometricPrecision; image-rendering:optimizeQuality; fill-rule:evenodd; clip-rule:evenodd"
viewBox="0 0 471 471"
 xmlns:xlink="http://www.w3.org/1999/xlink">
 <defs>
  <style type="text/css">
   <![CDATA[
    .fil0 {fill:#004C99}
    .fil1 {fill:#DC001B}
   ]]>
  </style>
 </defs>
 <g id="Слой_x0020_1">
  <metadata id="CorelCorpID_0Corel-Layer"/>
  <g id="_1612413484800">
   <path class="fil0" d="M236 471c-130,0 -236,-105 -236,-235 0,-130 106,-236 236,-236 130,0 235,106 235,236 0,130 -105,235 -235,235zm0 -441c-113,0 -206,93 -206,206 0,112 93,205 206,205 112,0 205,-93 205,-205 0,-113 -91,-206 -205,-206z"/>
  </g>
  <path class="fil1" d="M323 146l-174 0c-16,0 -29,14 -29,29l0 121c0,15 13,28 29,28l174 0c16,0 30,-13 30,-28l0 -121c0,-17 -14,-29 -30,-29zm1 150c0,0 -1,1 -2,1l-174 0c-1,0 -1,0 -2,0l0 -100 74 63c3,2 6,3 8,3l13 0c3,0 5,-1 7,-3l74 -63 2 99zm-88 -63l-69 -59 139 0 -70 59z"/>
 </g>
</svg>
