<svg xmlns="http://www.w3.org/2000/svg" viewBox="0 0 46.39 46.39"><defs><style>.cls-1{fill:#fff;}.cls-2{fill:#abbed3;fill-rule:evenodd;}</style></defs><title>консультация 1</title><g id="Слой_2" data-name="Слой 2"><g id="Слой_1-2" data-name="Слой 1"><path class="cls-1" d="M23.19,46.39A23.19,23.19,0,1,1,46.39,23.19,23.22,23.22,0,0,1,23.19,46.39ZM23.19,3A20.19,20.19,0,1,0,43.39,23.19,20.22,20.22,0,0,0,23.19,3Z"/><path class="cls-2" d="M26.94,27.57,24.8,29.7l-8.58-8.56L18.36,19,13,13.63S10.43,16,10.26,17.86c-.24,2.51,2.41,7.06,6.59,11.23s8.72,6.81,11.23,6.59c1.86-.17,4.23-2.74,4.23-2.74Z"/><circle class="cls-1" cx="23.26" cy="15.28" r="1.29"/><circle class="cls-1" cx="28.26" cy="15.28" r="1.29"/><circle class="cls-1" cx="33.26" cy="15.28" r="1.29"/></g></g></svg>