<svg xmlns="http://www.w3.org/2000/svg" viewBox="0 0 46.85 46.85"><defs><style>.cls-1{fill:#fff;}.cls-2{fill:#abbed3;fill-rule:evenodd;}</style></defs><title>консультация 3</title><g id="Слой_2" data-name="Слой 2"><g id="Слой_1-2" data-name="Слой 1"><path class="cls-1" d="M23.41,46.85A23.43,23.43,0,1,1,46.85,23.41,23.45,23.45,0,0,1,23.41,46.85ZM23.41,3A20.43,20.43,0,1,0,43.85,23.41,20.44,20.44,0,0,0,23.41,3Z"/><path class="cls-2" d="M28.61,25.48h4.25c4.27,0,5.84-3.11,5.84-5.84,0-3.18-2.2-5.54-5.84-5.54H26V27H24v2.22H26v4.52h2.65V29.25h1.95V27H28.61Zm0-9.1h3.46c2.17,0,3.89.78,3.89,3.29,0,2.65-1.62,3.54-4,3.54H28.61Z"/><path class="cls-2" d="M23.18,23.84c0-4-1.09-9.88-6.62-9.88S10,19.84,10,23.84s1.06,9.88,6.6,9.88,6.62-5.89,6.62-9.88Zm-2.58,0c0,4.83-1.26,7.73-4,7.73s-4-2.91-4-7.73,1.26-7.73,4-7.73,4,2.91,4,7.73Z"/></g></g></svg>