<svg xmlns="http://www.w3.org/2000/svg" viewBox="0 0 117.52 83"><defs><style>.cls-1{fill:#004c99;}</style></defs><title>преимущества1</title><g id="Слой_2" data-name="Слой 2"><g id="Слой_1-2" data-name="Слой 1"><path class="cls-1" d="M107.49,62.95h-.13V56.73a1.9,1.9,0,0,0-1.9-1.9h-2.16V41a8,8,0,0,0-5.8-7.69l-6.38-1.82V28.58a6,6,0,0,0,2-4.48V18h2.16a1.9,1.9,0,1,0,0-3.81h-.13v-.13A12.07,12.07,0,0,0,85,2.18V1.9a1.9,1.9,0,0,0-3.81,0v.28a12.07,12.07,0,0,0-10.15,11.9v.13h-.13a1.9,1.9,0,1,0,0,3.81H73.1V24.1a6,6,0,0,0,2,4.48v2.93l-6.38,1.82A8,8,0,0,0,62.95,41V62.95H60.66V52.67a1.9,1.9,0,0,0-1.9-1.9H54.57V41a8,8,0,0,0-5.8-7.69l-6.38-1.82V28.58a6,6,0,0,0,2-4.48V18h2.16a1.9,1.9,0,0,0,0-3.81h-.13v-.13A12.07,12.07,0,0,0,36.3,2.18V1.9a1.9,1.9,0,1,0-3.81,0v.28a12.07,12.07,0,0,0-10.15,11.9v.13h-.13a1.9,1.9,0,0,0,0,3.81h2.16V24.1a6,6,0,0,0,2,4.48v2.93L20,33.33A8,8,0,0,0,14.21,41V62.95H10A10,10,0,0,0,10,83h97.47a10,10,0,1,0,0-20.05Zm-3.93,0H83V58.63h20.56Zm-28.68,0V44.55a.13.13,0,0,1,.13-.13H91.25a.13.13,0,0,1,.13.13V54.83H81.1a1.9,1.9,0,0,0-1.9,1.9v6.22ZM79,31.23a6,6,0,0,0,3.31,1h1.6a6,6,0,0,0,3.31-1l.08-.05v1.77s0,0,0,.05v.5a7,7,0,0,1-4.19,1,7,7,0,0,1-4.19-1V31.18Zm-2.11,9.38V36.75a11,11,0,0,0,6.22,1.58,11,11,0,0,0,6.22-1.58v3.86ZM99.5,41V54.83H95.18V44.55a3.94,3.94,0,0,0-2-3.44V36l3.31.94A4.21,4.21,0,0,1,99.5,41ZM91.38,14.09v.13H85V6.06A8.26,8.26,0,0,1,91.38,14.09Zm-16.5,0a8.26,8.26,0,0,1,6.35-8v8.15H74.88ZM89.35,18V24.1a2.15,2.15,0,0,1-1,1.8l-3.26,2.17a2.15,2.15,0,0,1-1.2.36h-1.6a2.15,2.15,0,0,1-1.2-.36l-3.26-2.17a2.15,2.15,0,0,1-1-1.8V18ZM66.76,41a4.21,4.21,0,0,1,3-4L73.1,36v5.06a3.94,3.94,0,0,0-2,3.44v18.4H66.76Zm-9.9,21.93H36.3V54.57H56.86Zm-30.71,0V44.55a.13.13,0,0,1,.13-.13H42.52a.13.13,0,0,1,.13.13v6.22H34.39a1.9,1.9,0,0,0-1.9,1.9V62.95Zm4.14-31.71a6,6,0,0,0,3.31,1h1.6a6,6,0,0,0,3.31-1l.08-.05v1.77s0,0,0,.05v.5a7,7,0,0,1-4.19,1,7,7,0,0,1-4.19-1V31.18Zm-2.11,9.38V36.75a11,11,0,0,0,6.22,1.58,11,11,0,0,0,6.22-1.58v3.86ZM50.76,41v9.75H46.45V44.55a3.94,3.94,0,0,0-2-3.44V36l3.31.94A4.21,4.21,0,0,1,50.76,41ZM42.64,14.09v.13H36.3V6.06A8.26,8.26,0,0,1,42.64,14.09Zm-16.5,0a8.26,8.26,0,0,1,6.35-8v8.15H26.14ZM40.61,18V24.1a2.15,2.15,0,0,1-1,1.8l-3.26,2.17a2.15,2.15,0,0,1-1.2.36h-1.6a2.15,2.15,0,0,1-1.2-.36l-3.26-2.17a2.15,2.15,0,0,1-1-1.8V18ZM18,41a4.21,4.21,0,0,1,3-4L24.37,36v5.06a3.94,3.94,0,0,0-2,3.44v18.4H18Zm89.47,38.17H10a6.22,6.22,0,0,1,0-12.44h97.47a6.22,6.22,0,0,1,0,12.44Z"/><path class="cls-1" d="M58.76,69.29A3.68,3.68,0,1,0,62.44,73,3.68,3.68,0,0,0,58.76,69.29Z"/><path class="cls-1" d="M46.58,69.29A3.68,3.68,0,1,0,50.26,73,3.68,3.68,0,0,0,46.58,69.29Z"/><path class="cls-1" d="M34.39,69.29A3.68,3.68,0,1,0,38.07,73,3.68,3.68,0,0,0,34.39,69.29Z"/><path class="cls-1" d="M10,69.29A3.68,3.68,0,1,0,13.71,73,3.68,3.68,0,0,0,10,69.29Z"/><path class="cls-1" d="M22.21,69.29A3.68,3.68,0,1,0,25.89,73,3.68,3.68,0,0,0,22.21,69.29Z"/><path class="cls-1" d="M107.49,69.29A3.68,3.68,0,1,0,111.17,73,3.68,3.68,0,0,0,107.49,69.29Z"/><path class="cls-1" d="M95.31,69.29A3.68,3.68,0,1,0,99,73,3.68,3.68,0,0,0,95.31,69.29Z"/><path class="cls-1" d="M70.94,69.29A3.68,3.68,0,1,0,74.62,73,3.68,3.68,0,0,0,70.94,69.29Z"/><path class="cls-1" d="M83.13,69.29A3.68,3.68,0,1,0,86.81,73,3.68,3.68,0,0,0,83.13,69.29Z"/></g></g></svg>