<?xml version="1.0" encoding="UTF-8"?>
<!DOCTYPE svg PUBLIC "-//W3C//DTD SVG 1.1//EN" "http://www.w3.org/Graphics/SVG/1.1/DTD/svg11.dtd">
<!-- Creator: CorelDRAW X7 -->
<svg xmlns="http://www.w3.org/2000/svg" xml:space="preserve" width="16.3682mm" height="16.3682mm" version="1.1" style="shape-rendering:geometricPrecision; text-rendering:geometricPrecision; image-rendering:optimizeQuality; fill-rule:evenodd; clip-rule:evenodd"
viewBox="0 0 471 471"
 xmlns:xlink="http://www.w3.org/1999/xlink">
 <defs>
  <style type="text/css">
   <![CDATA[
    .fil0 {fill:#004C99}
    .fil1 {fill:#DC001B}
   ]]>
  </style>
 </defs>
 <g id="Слой_x0020_1">
  <metadata id="CorelCorpID_0Corel-Layer"/>
  <g id="_1612413485984">
   <path class="fil0" d="M236 471c-130,0 -236,-105 -236,-235 0,-130 106,-236 236,-236 130,0 235,106 235,236 0,130 -105,235 -235,235zm0 -441c-113,0 -206,93 -206,206 0,112 93,205 206,205 112,0 205,-93 205,-205 0,-113 -91,-206 -205,-206z"/>
  </g>
  <path class="fil1" d="M274 279l-21 22 -87 -88 21 -21 -55 -55c0,0 -26,24 -27,43 -2,25 24,72 67,114 42,42 88,69 113,67 20,-2 43,-28 43,-28l-54 -54z"/>
  <circle class="fil0" cx="237" cy="154" r="13"/>
  <circle class="fil0" cx="288" cy="154" r="13"/>
  <circle class="fil0" cx="338" cy="154" r="13"/>
 </g>
</svg>
