<?xml version="1.0" encoding="utf-8"?>
<!-- Generator: Adobe Illustrator 17.1.0, SVG Export Plug-In . SVG Version: 6.00 Build 0)  -->
<!DOCTYPE svg PUBLIC "-//W3C//DTD SVG 1.1//EN" "http://www.w3.org/Graphics/SVG/1.1/DTD/svg11.dtd">
<svg version="1.1" id="Layer_1" xmlns="http://www.w3.org/2000/svg" xmlns:xlink="http://www.w3.org/1999/xlink" x="0px" y="0px"
	 viewBox="25.9 122.3 543.4 597.3" enable-background="new 25.9 122.3 543.4 597.3" xml:space="preserve">
<g>
	<path fill="#FCFCFC" d="M566.3,611L444.7,489.4l48.2-17.5c4.7-1.7,7.5-6.5,6.6-11.4l-13.2-75.1l38.1-66c2.5-4.3,1.5-9.8-2.3-13
		l-58.4-49l-13.2-75.1c-0.9-4.9-5.1-8.5-10.1-8.5h-76.2l-58.4-49c-1.8-1.6-4.2-2.4-6.6-2.4c-2.4,0-4.8,0.9-6.6,2.4l-58.4,49h-76.2
		c-5,0-9.3,3.6-10.1,8.5l-13.2,75.1l-58.4,49c-3.8,3.2-4.8,8.7-2.3,13l38.1,66l-13.2,75.1c-0.9,4.9,1.9,9.7,6.6,11.4l46.1,16.8
		L28.9,611c-2.8,2.8-3.8,7.1-2.4,10.8c1.4,3.7,4.8,6.4,8.8,6.7l75.3,6.3l6.3,75.3c0.3,4,3,7.4,6.7,8.8c1.1,0.4,2.3,0.6,3.5,0.6
		c2.7,0,5.3-1.1,7.3-3l163.2-163.2l163.2,163.2c1.9,1.9,4.5,3,7.3,3c1.2,0,2.4-0.2,3.5-0.6c3.7-1.4,6.4-4.8,6.7-8.8l6.3-75.3
		l75.3-6.3c4-0.3,7.4-3,8.8-6.7C570.1,618.1,569.2,613.8,566.3,611z M370.7,568.4c1.1,0.4,2.3,0.6,3.5,0.6c3.7,0,7.1-2,8.9-5.1
		l38.1-66l2.1-0.8l112.8,112.8l-61.9,5.2c-5,0.4-9,4.4-9.4,9.4l-5.2,61.9L325.2,551.9L370.7,568.4z M172.7,496.4l4.2,1.5l38.1,66
		c1.8,3.2,5.2,5.1,8.9,5.1c1.2,0,2.4-0.2,3.5-0.6l41-14.9L135.6,686.4l-5.2-61.9c-0.4-5-4.4-9-9.4-9.4l-61.9-5.2L172.7,496.4z
		 M187.5,479.9l-67-24.4l12.4-70.3c0.4-2.4,0-4.8-1.2-6.9l-35.7-61.8l54.7-45.9c1.9-1.6,3.1-3.7,3.5-6.1l12.4-70.3h71.3
		c2.4,0,4.8-0.9,6.6-2.4l54.7-45.9l54.7,45.9c1.8,1.6,4.2,2.4,6.6,2.4h71.3l12.4,70.3c0.4,2.4,1.7,4.5,3.5,6.1l54.7,45.9l-35.7,61.8
		c-1.2,2.1-1.6,4.5-1.2,6.9l12.4,70.3l-67,24.4c-2.3,0.8-4.2,2.4-5.4,4.5l-35.7,61.8l-67-24.4c-2.3-0.8-4.8-0.8-7,0l-67,24.4
		l-35.7-61.8C191.6,482.3,189.7,480.7,187.5,479.9z"/>
	<path fill="#FCFCFC" d="M299.1,492.8c76.9,0,139.4-62.5,139.4-139.4c0-76.9-62.5-139.4-139.4-139.4s-139.4,62.5-139.4,139.4
		C159.7,430.2,222.3,492.8,299.1,492.8z M179.1,353.4c0-66.2,53.8-120,120-120s120,53.8,120,120c0,66.2-53.8,120-120,120
		S179.1,419.5,179.1,353.4z"/>
	<path fill="#FCFCFC" d="M222.6,334l40.4,29.4L247.6,411c-1.1,3.3,0.1,6.8,2.9,8.8c1.4,1,3,1.5,4.6,1.5c1.7,0,3.3-0.5,4.6-1.5
		l40.4-29.4l40.4,29.4c2.7,2,6.5,2,9.3,0c2.8-2,3.9-5.5,2.9-8.8l-15.4-47.5l40.4-29.4c2.8-2,3.9-5.5,2.9-8.8
		c-1.1-3.3-4.1-5.4-7.5-5.4h-50l-15.4-47.5c-1.1-3.3-4.1-5.4-7.5-5.4c-3.4,0-6.4,2.2-7.5,5.4l-15.4,47.5h-50c-3.4,0-6.4,2.2-7.5,5.4
		C218.7,328.5,219.8,332,222.6,334z M320.5,362.8l9.7,29.9l-25.5-18.5c-2.7-2-6.5-2-9.3,0L270,392.8l9.7-29.9
		c1.1-3.3-0.1-6.8-2.9-8.8l-25.5-18.5h31.5c3.4,0,6.4-2.2,7.5-5.4l9.7-29.9l9.7,29.9c1.1,3.3,4.1,5.4,7.5,5.4h31.5L323.4,354
		C320.6,356.1,319.4,359.6,320.5,362.8z"/>
</g>
</svg>
