<?xml version="1.0" encoding="utf-8"?>
<!-- Generator: Adobe Illustrator 17.1.0, SVG Export Plug-In . SVG Version: 6.00 Build 0)  -->
<!DOCTYPE svg PUBLIC "-//W3C//DTD SVG 1.1//EN" "http://www.w3.org/Graphics/SVG/1.1/DTD/svg11.dtd">
<svg version="1.1" id="Layer_1" xmlns="http://www.w3.org/2000/svg" xmlns:xlink="http://www.w3.org/1999/xlink" x="0px" y="0px"
	 viewBox="0 232.7 595.3 376.6" enable-background="new 0 232.7 595.3 376.6" xml:space="preserve">
<g>
	<g>
		<path fill="#FFFFFF" d="M553.6,392.3l-15.4-61.7c4.2-0.9,7.4-4.6,7.4-9.1v-9.9c0-21.6-17.6-39.1-39.1-39.1h-70.2v-20.5
			c0-10.6-8.6-19.3-19.3-19.3H59c-10.6,0-19.3,8.6-19.3,19.3v169c0,5.1,4.2,9.3,9.3,9.3c5.1,0,9.3-4.2,9.3-9.3v-169
			c0-0.3,0.3-0.6,0.6-0.6h357.9c0.3,0,0.6,0.3,0.6,0.6v169c0,5.1,4.2,9.3,9.3,9.3c5.1,0,9.3-4.2,9.3-9.3v-10.6h110c0,0,0,0,0,0
			c0,0,0,0,0,0c13.5,0,25,8.9,29,21.1h-29c-5.1,0-9.3,4.2-9.3,9.3v19.9c0,16.1,13.1,29.2,29.2,29.2h10.6v41h-24.4
			c-8-23.1-30-39.8-55.8-39.8c-25.8,0-47.8,16.7-55.8,39.8h-4.5v-70.2c0-5.1-4.2-9.3-9.3-9.3c-5.1,0-9.3,4.2-9.3,9.3v70.2H224.2
			c-8-23.1-30-39.8-55.8-39.8s-47.8,16.7-55.8,39.8H59c-0.3,0-0.6-0.3-0.6-0.6v-20.5h40.4c5.1,0,9.3-4.2,9.3-9.3s-4.2-9.3-9.3-9.3
			H9.3c-5.1,0-9.3,4.2-9.3,9.3s4.2,9.3,9.3,9.3h30.4v20.5c0,10.6,8.6,19.3,19.3,19.3h50.3c0,0.2,0,0.4,0,0.6c0,32.5,26.5,59,59,59
			s59-26.5,59-59c0-0.2,0-0.4,0-0.6h210.1c0,0.2,0,0.4,0,0.6c0,32.5,26.5,59,59,59s59-26.5,59-59c0-0.2,0-0.4,0-0.6H586
			c5.1,0,9.3-4.2,9.3-9.3v-99.4C595.3,416.3,577.2,395.9,553.6,392.3z M436.2,291.1h70.2c11.3,0,20.5,9.2,20.5,20.5v0.6h-90.7V291.1
			z M436.2,391.7v-60.9H519l15.2,60.9L436.2,391.7L436.2,391.7z M168.4,590.6c-22.3,0-40.4-18.1-40.4-40.4s18.1-40.4,40.4-40.4
			s40.4,18.1,40.4,40.4S190.7,590.6,168.4,590.6z M496.5,590.6c-22.3,0-40.4-18.1-40.4-40.4s18.1-40.4,40.4-40.4
			c22.3,0,40.4,18.1,40.4,40.4S518.8,590.6,496.5,590.6z M576.6,471.3h-10.6c-5.8,0-10.6-4.7-10.6-10.6v-10.6h21.1L576.6,471.3
			L576.6,471.3z"/>
	</g>
</g>
<g>
	<g>
		<path fill="#FFFFFF" d="M168.4,530.9c-10.6,0-19.3,8.6-19.3,19.3s8.6,19.3,19.3,19.3c10.6,0,19.3-8.6,19.3-19.3
			C187.7,539.6,179,530.9,168.4,530.9z"/>
	</g>
</g>
<g>
	<g>
		<path fill="#FFFFFF" d="M496.5,530.9c-10.6,0-19.3,8.6-19.3,19.3s8.6,19.3,19.3,19.3s19.3-8.6,19.3-19.3S507.1,530.9,496.5,530.9z
			"/>
	</g>
</g>
<g>
	<g>
		<path fill="#FFFFFF" d="M387.1,491.2H247.9c-5.1,0-9.3,4.2-9.3,9.3s4.2,9.3,9.3,9.3h139.2c5.1,0,9.3-4.2,9.3-9.3
			S392.3,491.2,387.1,491.2z"/>
	</g>
</g>
<g>
	<g>
		<path fill="#FFFFFF" d="M148.5,451.4H29.2c-5.1,0-9.3,4.2-9.3,9.3s4.2,9.3,9.3,9.3h119.3c5.1,0,9.3-4.2,9.3-9.3
			S153.7,451.4,148.5,451.4z"/>
	</g>
</g>
<g>
	<g>
		<path fill="#FFFFFF" d="M324.1,324.9c-3.6-3.6-9.5-3.6-13.2,0L228,407.8l-43.1-43.1c-3.6-3.6-9.5-3.6-13.2,0
			c-3.6,3.6-3.6,9.5,0,13.2l49.7,49.7c1.8,1.8,4.2,2.7,6.6,2.7s4.8-0.9,6.6-2.7l89.5-89.5C327.8,334.4,327.8,328.5,324.1,324.9z"/>
	</g>
</g>
</svg>
