<?xml version="1.0" encoding="UTF-8"?>
<!DOCTYPE svg PUBLIC "-//W3C//DTD SVG 1.1//EN" "http://www.w3.org/Graphics/SVG/1.1/DTD/svg11.dtd">
<!-- Creator: CorelDRAW X7 -->
<svg xmlns="http://www.w3.org/2000/svg" xml:space="preserve" width="50.2334mm" height="50.2334mm" version="1.1" style="shape-rendering:geometricPrecision; text-rendering:geometricPrecision; image-rendering:optimizeQuality; fill-rule:evenodd; clip-rule:evenodd"
viewBox="0 0 3461 3461"
 xmlns:xlink="http://www.w3.org/1999/xlink">
 <defs>
  <style type="text/css">
   <![CDATA[
    .fil0 {fill:#194C9B}
    .fil1 {fill:#DC001B}
   ]]>
  </style>
 </defs>
 <g id="Слой_x0020_1">
  <metadata id="CorelCorpID_0Corel-Layer"/>
  <g id="_1612413459296">
   <g>
    <path class="fil0" d="M2411 2639l216 0c109,0 199,-85 199,-187l0 -773c0,-102 -90,-187 -199,-187l-216 0 0 -790c0,-68 -61,-124 -134,-124l-1096 0c-73,0 -134,56 -134,124l0 51c-165,30 -291,163 -291,326 0,163 126,299 291,326l0 85 -216 0c-109,0 -199,85 -199,187l0 773c0,102 90,187 199,187l216 0 1364 2zm-1560 -1647l65 0c15,0 27,0 34,2 10,2 20,7 27,15 7,7 12,17 17,26 5,10 5,25 5,39 0,15 -3,27 -5,37 -5,12 -12,21 -19,29 -8,5 -15,10 -25,14 -7,3 -19,3 -31,3l-68 0 0 -165zm36 26l0 112 27 0c9,0 17,0 22,-2 5,-3 9,-5 14,-8 5,-2 8,-9 10,-17 2,-7 5,-17 5,-31 0,-15 0,-22 -5,-29 -2,-8 -5,-13 -10,-17 -5,-5 -9,-8 -17,-8 -5,0 -14,-2 -29,-2l-17 0 0 2zm139 56c0,-17 2,-31 7,-44 5,-7 10,-17 17,-21 7,-8 14,-13 24,-15 12,-5 24,-7 39,-7 27,0 49,7 63,22 17,14 25,36 25,63 0,26 -8,48 -25,63 -17,15 -36,22 -63,22 -27,0 -49,-7 -63,-22 -17,-12 -24,-34 -24,-61l0 0zm36 0c0,20 5,34 15,44 9,10 21,15 36,15 15,0 27,-5 37,-15 9,-10 14,-24 14,-44 0,-19 -5,-34 -14,-44 -10,-9 -22,-14 -37,-14 -15,0 -27,5 -36,14 -10,10 -15,25 -15,44l0 0zm282 22l36 10c-4,19 -14,31 -26,41 -13,10 -30,15 -49,15 -24,0 -44,-8 -58,-22 -15,-15 -25,-37 -25,-63 0,-27 8,-49 25,-66 14,-15 36,-24 60,-24 22,0 39,5 54,17 7,7 15,17 19,31l-36 8c-2,-10 -7,-15 -12,-20 -8,-5 -15,-7 -25,-7 -12,0 -24,5 -31,12 -7,10 -12,24 -12,44 0,22 5,36 12,46 7,10 19,15 31,15 10,0 17,-3 25,-10 2,-5 9,-15 12,-27l0 0zm-182 -343c175,22 308,161 308,328 0,168 -133,307 -308,329l0 82 1135 0 0 -790c0,-9 -8,-17 -20,-17l-1096 0c-10,0 -19,8 -19,17l0 51zm1249 1495c0,68 -59,124 -131,124l-1096 0c-73,0 -134,-56 -134,-124l2 -44 -2 -138c0,-29 24,-54 56,-54l1249 0c29,0 53,20 56,44 0,2 0,158 0,160l0 32zm216 284c46,0 88,-36 88,-80l0 -773c0,-43 -39,-80 -88,-80l-1793 0c-47,0 -88,37 -88,80l0 773c0,44 39,80 88,80l1793 0zm-330 -301c0,10 -8,34 -20,34l-1096 0c-10,0 -19,-7 -19,-17l0 -129 1135 0 0 112z"/>
   </g>
   <path class="fil0" d="M926 1769c-10,10 -17,25 -17,37 0,14 7,26 17,36 10,10 24,15 41,15 15,0 29,-5 39,-15 10,-10 17,-24 17,-36 0,-15 -5,-27 -17,-37 -22,-19 -58,-19 -80,0l0 0z"/>
   <path class="fil0" d="M2105 1045l-489 0c-31,0 -56,24 -56,53 0,30 25,54 56,54l489 0c31,0 55,-24 55,-54 0,-29 -24,-53 -55,-53l0 0z"/>
   <path class="fil0" d="M2105 1249l-489 0c-31,0 -56,24 -56,54 0,29 25,53 56,53l489 0c31,0 55,-24 55,-53 0,-32 -24,-54 -55,-54l0 0z"/>
   <path class="fil0" d="M2105 829l-489 0c-31,0 -56,24 -56,53 0,29 25,54 56,54l489 0c31,0 55,-25 55,-54 0,-29 -24,-53 -55,-53l0 0z"/>
  </g>
  <g>
   <path class="fil1" d="M1730 3461c-952,0 -1730,-776 -1730,-1731 0,-955 775,-1730 1730,-1730 953,0 1731,775 1731,1730 0,955 -778,1731 -1731,1731zm0 -3288c-858,0 -1557,697 -1557,1557 0,858 697,1558 1557,1558 861,0 1558,-697 1558,-1558 -2,-858 -700,-1557 -1558,-1557z"/>
  </g>
 </g>
</svg>
