<svg xmlns="http://www.w3.org/2000/svg" viewBox="0 0 95.54 100"><defs><style>.cls-1{fill:#004c99;}</style></defs><title>преимущества2</title><g id="Слой_2" data-name="Слой 2"><g id="Слой_1-2" data-name="Слой 1"><path class="cls-1" d="M85.54,21.59l10-10L84,0,72,12A21.05,21.05,0,0,1,69.22.25l0-.18H21.88l0,.18a19.15,19.15,0,0,1-5.1,14.91c-3.87,4.22-9.64,7-14.68,7h0A12.55,12.55,0,0,1,.19,22l-.19,0v8.63C0,57.38,17.22,91.49,45,99.85l.52.15.52-.15c27.82-8.35,45-42.47,45-69.28V22h-.16S87.58,21.86,85.54,21.59ZM74.38,51C70.84,62,63,77.08,45.54,86.06c-19-8-31.32-33.12-32.3-52.95A33.24,33.24,0,0,0,33,13.26H58a28.77,28.77,0,0,0,4.15,8.56L46.06,38l-9.55-9.55L24.93,40l21,21,.12.12L77.93,29.22A74.26,74.26,0,0,1,74.38,51Zm-49-47.34H65.74a23.29,23.29,0,0,0,3.67,10.95L64.7,19.28c-2-2.62-4-9.39-4-9.46l0-.12H30.5l0,.1c-.11.24-.24.59-.4,1A30.09,30.09,0,0,1,9.74,30.52l-.12,0,0,1.32c.53,21.75,13.86,49.28,35.26,57.71l.65.26.65-.26C68,81,81.46,52.25,81.46,30.54V25.65l1.14-1.14a23,23,0,0,0,4.94.89v5.32h0c-.07,25.36-16.93,57.69-42,65.57-25.13-7.9-42-40.35-42-65.73V25.45A23.74,23.74,0,0,0,25.38,3.62ZM46,43,84,5l6.57,6.57L46,56.09,29.93,40l6.57-6.57Z"/><rect class="cls-1" x="43.78" y="64.27" width="3.55" height="3.55"/><rect class="cls-1" x="43.78" y="70.7" width="3.55" height="3.55"/><rect class="cls-1" x="43.78" y="77.11" width="3.55" height="3.55"/></g></g></svg>