<svg xmlns="http://www.w3.org/2000/svg" viewBox="0 0 108.2 112"><defs><style>.cls-1{fill:#004c99;}</style></defs><title>преимущества3</title><g id="Слой_2" data-name="Слой 2"><g id="Слой_1-2" data-name="Слой 1"><path class="cls-1" d="M73,89.76l-13-3.9L58.06,83a3.69,3.69,0,0,0-3-1.64h-.12V76.17l1-.81a9.39,9.39,0,0,0,3.26-5.73l.22-1.39h1.37a5.59,5.59,0,0,0,5.59-5.59v-3.8a5.6,5.6,0,0,0-4.58-5.49L63.5,42.51A17,17,0,0,0,46.71,22.83H32.95A17,17,0,0,0,16.16,42.51l1.73,10.84a5.6,5.6,0,0,0-4.58,5.49v3.8a5.59,5.59,0,0,0,5.59,5.59h1.37l.22,1.39a9.39,9.39,0,0,0,3.26,5.73l1,.81v5.17h-.12a3.69,3.69,0,0,0-3,1.64l-1.92,2.88-13,3.9a9.34,9.34,0,0,0-6.69,9v7.65A5.59,5.59,0,0,0,5.59,112H74.07a5.59,5.59,0,0,0,5.59-5.59V98.76A9.34,9.34,0,0,0,73,89.76ZM55,84.91a.11.11,0,0,1,.1.05l1.74,2.61-4.37,10.2a.12.12,0,0,1-.18,0L48,94.62,54.9,85A.11.11,0,0,1,55,84.91Zm7.78-26.06v3.8a2,2,0,0,1-2,2H60l1.25-7.8A2,2,0,0,1,62.78,58.85ZM60,42,58.33,52.29l-1.5-9.61a33.6,33.6,0,0,0,3.3-2.1A13.43,13.43,0,0,1,60,42ZM18.91,64.68a2,2,0,0,1-2-2v-3.8a2,2,0,0,1,1.57-2l1.25,7.8h-.8ZM20.32,46l-.64-4A13.44,13.44,0,0,1,32.95,26.39H46.71a13.43,13.43,0,0,1,13,10c-4.81,4.12-11.84,7-20.89,8.46A97.67,97.67,0,0,1,20.32,46Zm1.17,7.3h0l-.6-3.73c.8,0,1.67,0,2.59,0l-1.87,3.69h-.12ZM24,69.07l-2-12.24h.65a1.78,1.78,0,0,0,1.59-1l3.21-6.35c7.66-.26,17.56-1.44,26-5.16l1.71,11A1.78,1.78,0,0,0,57,56.83h.65L56.23,65.4c-.42.47-4.75,5-16.4,5a1.78,1.78,0,1,0,0,3.57c7.48,0,12.37-1.71,15.35-3.37a5.83,5.83,0,0,1-1.56,2L46,79a3.93,3.93,0,0,1-2.51.91H36.19A3.93,3.93,0,0,1,33.68,79L26,72.63A5.83,5.83,0,0,1,24,69.07ZM24.57,85a.12.12,0,0,1,.2,0l6.9,9.66-4.28,3.21a.11.11,0,0,1-.1,0,.11.11,0,0,1-.08-.07l-4.37-10.2ZM13.32,108.43H5.59a2,2,0,0,1-2-2V98.76a5.83,5.83,0,0,1,.73-2.83l7.61,6.34a3.91,3.91,0,0,1,1.41,3Zm3.57,0v-3.15a7.47,7.47,0,0,0-2.7-5.75l-7.26-6a5.93,5.93,0,0,1,.79-.3L19.8,89.55l4.13,9.63a3.66,3.66,0,0,0,2.44,2.11,3.71,3.71,0,0,0,1,.13,3.66,3.66,0,0,0,2.2-.74l3.77-2.83,4,10.58H16.88ZM35.79,94.37l0,0,0-.1,0-.07,0-.08L35.6,94l0,0-7.29-10.2c0-.06,0-.12,0-.18V79.15l3.1,2.58a7.51,7.51,0,0,0,4.8,1.74h7.28a7.51,7.51,0,0,0,4.8-1.74l3.1-2.58v4.44a1.76,1.76,0,0,0,0,.18L44.09,94l0,0-.06.09,0,.08,0,.07,0,.1,0,0-4,10.77Zm27,10.91v3.15H42.41l4-10.58,3.77,2.83a3.66,3.66,0,0,0,2.2.74,3.71,3.71,0,0,0,1-.13,3.66,3.66,0,0,0,2.44-2.11l4.13-9.63,12.08,3.62a6,6,0,0,1,.79.3l-7.26,6A7.47,7.47,0,0,0,62.78,105.28Zm13.32,1.13a2,2,0,0,1-2,2H66.35v-3.15a3.91,3.91,0,0,1,1.41-3l7.61-6.34a5.83,5.83,0,0,1,.73,2.83v7.66Z"/><path class="cls-1" d="M101.27,5.3A20.81,20.81,0,1,0,77,38.81a2,2,0,0,1,1,1.74v6.89A5.59,5.59,0,0,0,83.59,53h2v.12a1.78,1.78,0,0,0,3.57,0V53h2a5.59,5.59,0,0,0,5.59-5.59V40.55a2,2,0,0,1,1-1.75A20.8,20.8,0,0,0,101.27,5.3Zm-8,42.14a2,2,0,0,1-2,2H83.59a2,2,0,0,1-2-2v-2H93.22v2ZM96,35.72a5.62,5.62,0,0,0-2.81,4.83v1.3H81.57v-1.3a5.6,5.6,0,0,0-2.79-4.82A17.24,17.24,0,0,1,85.42,3.67a18.13,18.13,0,0,1,2-.11A17,17,0,0,1,98.89,8,17.23,17.23,0,0,1,96,35.72Z"/><path class="cls-1" d="M87.39,9.51a1.78,1.78,0,0,0-1.78,1.78V24.61a1.78,1.78,0,0,0,3.57,0V11.29A1.78,1.78,0,0,0,87.39,9.51Z"/><path class="cls-1" d="M87.39,30.44a1.78,1.78,0,0,0,0,3.57h0a1.78,1.78,0,1,0,0-3.57Z"/></g></g></svg>