<svg xmlns="http://www.w3.org/2000/svg" viewBox="0 0 79.31 95"><defs><style>.cls-1{fill:#004c99;}</style></defs><title>преимущества 4</title><g id="Слой_2" data-name="Слой 2"><g id="Слой_1-2" data-name="Слой 1"><path class="cls-1" d="M25.32,21.95H15.48a1.86,1.86,0,1,0,0,3.71h9.83a1.86,1.86,0,0,0,0-3.71Z"/><path class="cls-1" d="M77.46,55.4H58.12a1.85,1.85,0,0,0-1.37.61l-3.22-2.48a8.92,8.92,0,0,1-3.45-7V38.07A6.09,6.09,0,0,0,44,32a9.79,9.79,0,0,0-9.78,9.78v9.39H30.43V36.25A20.4,20.4,0,0,0,29.4.19a1.86,1.86,0,0,0-2.68,1.66V14.22H14.08V1.86A1.86,1.86,0,0,0,11.4.19a20.4,20.4,0,0,0-1,36.06V51.15H8.5A5.69,5.69,0,0,0,2.8,56.84V89.31A5.7,5.7,0,0,0,8.5,95H46a12.65,12.65,0,0,0,7.58-2.54l2.74-2.07a1.85,1.85,0,0,0,1.85,1.72H77.46a1.86,1.86,0,0,0,1.86-1.86v-33A1.86,1.86,0,0,0,77.46,55.4ZM3.71,18.5A16.57,16.57,0,0,1,10.36,5.16V16.07a1.86,1.86,0,0,0,1.86,1.86H28.58a1.86,1.86,0,0,0,1.86-1.86V5.16A16.69,16.69,0,0,1,22.11,35.1h0l-.38,0H21.6l-.31,0H19.51l-.31,0h-.11l-.37,0h0A16.71,16.71,0,0,1,3.71,18.5ZM14.08,37.9a20,20,0,0,0,2.69.67h.06l.87.14.12,0,.37,0,.38,0,.28,0,.64,0h1.83l.64,0,.28,0,.38,0,.37,0,.11,0,.88-.14H24a20,20,0,0,0,2.69-.67V51.15H14.08ZM6.52,56.84a2,2,0,0,1,2-2H29.83a3.23,3.23,0,0,1,3.09,3.07,3.18,3.18,0,0,1,0,.32s0,.07,0,.11,0,.14,0,.21l0,.12c0,.06,0,.12,0,.18l0,.12-.06.17-.05.12-.07.16-.07.12-.08.15-.08.11-.1.14-.09.1-.11.13-.1.1-.12.11-.11.09-.13.1-.12.08-.14.09-.12.07-.14.08-.13.06-.15.06-.14,0-.16,0-.15,0-.16,0-.15,0h-.15a3.17,3.17,0,0,1-3-3.25A1.86,1.86,0,0,0,25.12,56h-.05a1.86,1.86,0,0,0-1.85,1.8A6.84,6.84,0,0,0,24,61.18H16.83a1.86,1.86,0,0,0,0,3.71h13a3.16,3.16,0,0,1,3.06,3.16q0,.16,0,.32s0,.07,0,.11,0,.14,0,.2l0,.12c0,.06,0,.12,0,.18l0,.12-.06.16-.06.12-.07.15-.07.12-.08.14-.08.11-.09.13-.09.1-.1.12-.1.1-.11.11-.11.09-.12.09-.12.08-.13.08-.13.07-.14.07L31,71l-.15.06-.14,0-.15,0-.15,0-.16,0h-.3a3.14,3.14,0,0,1-3-3.16,1.86,1.86,0,0,0-3.71,0A6.9,6.9,0,0,0,24,71.22H6.52ZM32.9,88.5s0,.07,0,.11,0,.13,0,.19l0,.13,0,.16-.05.14,0,.13-.08.16-.05.1-.1.17,0,.08-.13.18,0,.05-.16.18,0,0-.2.18h0l-.23.18h0a3.31,3.31,0,0,1-.78.41h0l-.27.08h0l-.24.05h-.07l-.2,0h-.1a3.22,3.22,0,0,1-3-3.09,1.86,1.86,0,0,0-1.85-1.82h0a1.86,1.86,0,0,0-1.82,1.89,6.72,6.72,0,0,0,.79,3H8.5A2,2,0,0,1,7.55,91a2,2,0,0,1-1-1.74V85H29.87a3.15,3.15,0,0,1,3,2.9,3.24,3.24,0,0,1,0,.32C32.92,88.29,32.92,88.4,32.9,88.5Zm0-10.09s0,.07,0,.11,0,.13,0,.2l0,.12c0,.06,0,.12,0,.17l0,.13-.06.16-.06.12-.07.15-.07.12-.08.14-.08.11-.09.13-.09.11-.1.12-.1.1-.11.11-.11.09-.12.1-.12.08-.13.08-.13.07-.14.07L31,81l-.15.06-.14,0-.15,0-.14,0-.16,0h-.3a3.14,3.14,0,0,1-3-3.15,1.86,1.86,0,0,0-3.71,0A6.89,6.89,0,0,0,24,81.25H6.52V74.93H29.87a3.14,3.14,0,0,1,3.06,3.16Q32.93,78.25,32.91,78.41Zm23.35-8.8a12.75,12.75,0,0,1-12.62-7.37,1.86,1.86,0,0,0-3.38,1.54,16.37,16.37,0,0,0,14.92,9.59c.36,0,.72,0,1.07,0V85.74l-5,3.76A8.92,8.92,0,0,1,46,91.29H35.85a6.78,6.78,0,0,0,.36-.78q.11-.3.2-.61t.14-.64a6.73,6.73,0,0,0,.09-1q0-.18,0-.35a6.82,6.82,0,0,0-2-4.65l-.15-.15h0l.24-.23.06-.07.16-.18.08-.1.13-.16.09-.11.12-.15.08-.12.11-.16.08-.13.1-.16.07-.13.09-.16.07-.14.08-.17.06-.14.07-.17.06-.14.06-.18,0-.15.05-.18,0-.15,0-.19,0-.15,0-.2,0-.15c0-.07,0-.14,0-.21l0-.14c0-.08,0-.16,0-.24s0-.08,0-.12,0-.24,0-.36,0-.24,0-.36,0-.08,0-.12,0-.16,0-.23l0-.14c0-.07,0-.14,0-.21l0-.15,0-.19,0-.15,0-.19,0-.15L36.32,76l0-.15-.06-.17-.06-.15-.07-.17L36,75.24l-.08-.16-.07-.14-.08-.16-.08-.14-.09-.16-.08-.13-.1-.15-.09-.12-.11-.15-.09-.12L35,73.66l-.09-.1-.15-.16-.08-.08-.23-.23h0l.24-.23.08-.08.15-.16.09-.1.13-.15.09-.12.11-.15.09-.12.1-.15.08-.13.09-.16.08-.14.08-.16.07-.14.08-.16.06-.14.07-.17.06-.15.06-.17,0-.15.05-.18,0-.15,0-.19,0-.15,0-.19,0-.15c0-.07,0-.14,0-.21l0-.14c0-.08,0-.16,0-.23s0-.08,0-.12,0-.24,0-.36a6.84,6.84,0,0,0-2-4.86L34.46,63l0,0,.14-.14.11-.11.14-.15L35,62.5l.14-.17.08-.09.2-.27,0-.07.14-.22.07-.12.11-.18.07-.13.09-.17.07-.14.08-.18.06-.15.07-.18.05-.15.06-.18,0-.15.05-.19,0-.15,0-.19,0-.15,0-.2,0-.15c0-.07,0-.14,0-.21v-.14c0-.08,0-.16,0-.24s0-.08,0-.12,0-.24,0-.37,0-.22,0-.33,0-.42-.08-.62v0c0-.08,0-.17-.05-.25v-.07c0-.1,0-.2-.08-.3v0L36.31,56l0-.05-.09-.24,0-.06-.1-.25,0,0L36,55.07l0,0-.09-.17h.21A1.86,1.86,0,0,0,37.91,53V41.76A6.08,6.08,0,0,1,44,35.69a2.38,2.38,0,0,1,2.38,2.38v8.45a12.66,12.66,0,0,0,4.9,10l5,3.85V69.6ZM69.64,88.4V71.93a1.86,1.86,0,1,0-3.71,0V88.4H60V71.21h0V59.11H75.6V88.4Z"/><path class="cls-1" d="M12.22,62.67a2,2,0,0,0-.11-.35,1.9,1.9,0,0,0-.17-.32,1.79,1.79,0,0,0-.23-.28,1.85,1.85,0,0,0-.6-.4,1.92,1.92,0,0,0-.35-.11,1.84,1.84,0,0,0-.73,0,1.87,1.87,0,0,0-.35.11,1.83,1.83,0,0,0-.6.4,1.76,1.76,0,0,0-.23.28,1.88,1.88,0,0,0-.17.32,2,2,0,0,0-.11.35,1.86,1.86,0,0,0,0,.36,1.83,1.83,0,0,0,0,.36,1.87,1.87,0,0,0,.11.35,1.83,1.83,0,0,0,.17.32,1.8,1.8,0,0,0,.51.51,1.91,1.91,0,0,0,.32.17,1.88,1.88,0,0,0,.35.11,1.79,1.79,0,0,0,.73,0,1.92,1.92,0,0,0,.35-.11,1.88,1.88,0,0,0,.32-.17,1.84,1.84,0,0,0,.51-.51,1.84,1.84,0,0,0,.17-.32,1.87,1.87,0,0,0,.11-.35,1.81,1.81,0,0,0,0-.36A1.86,1.86,0,0,0,12.22,62.67Z"/><path class="cls-1" d="M69.61,64.15a1.74,1.74,0,0,0-.11-.35,1.86,1.86,0,0,0-.4-.6,1.88,1.88,0,0,0-.6-.4,1.93,1.93,0,0,0-.35-.11,1.83,1.83,0,0,0-.72,0,1.93,1.93,0,0,0-.35.11,1.88,1.88,0,0,0-.6.4,1.86,1.86,0,0,0-.4.6,1.74,1.74,0,0,0-.11.35,1.79,1.79,0,0,0,0,.73,1.74,1.74,0,0,0,.11.35,2,2,0,0,0,.17.32,1.86,1.86,0,0,0,.23.28,1.78,1.78,0,0,0,.28.23,1.88,1.88,0,0,0,.32.17,1.93,1.93,0,0,0,.35.11,1.87,1.87,0,0,0,.72,0,1.93,1.93,0,0,0,.35-.11,1.88,1.88,0,0,0,.32-.17,1.78,1.78,0,0,0,.28-.23,1.86,1.86,0,0,0,.23-.28,2,2,0,0,0,.17-.32,1.74,1.74,0,0,0,.11-.35,1.8,1.8,0,0,0,0-.73Z"/></g></g></svg>