<svg xmlns="http://www.w3.org/2000/svg" viewBox="0 0 72.01 72.01"><defs><style>.cls-1{fill:#d30017;}.cls-2{fill:#fff;}</style></defs><title>тел</title><g id="Слой_2" data-name="Слой 2"><g id="Слой_1-2" data-name="Слой 1"><path class="cls-1" d="M36,0A36,36,0,1,0,72,36,36,36,0,0,0,36,0Z"/><path class="cls-2" d="M45.08,40.88a2.52,2.52,0,0,0-3.81,0c-.89.88-1.78,1.77-2.66,2.67a.53.53,0,0,1-.73.13c-.58-.31-1.19-.57-1.75-.91a27.65,27.65,0,0,1-6.67-6.07,15.79,15.79,0,0,1-2.39-3.83.55.55,0,0,1,.13-.7c.89-.86,1.76-1.75,2.64-2.63a2.53,2.53,0,0,0,0-3.9l-2.09-2.1c-.72-.72-1.43-1.45-2.16-2.16a2.54,2.54,0,0,0-3.81,0c-.9.88-1.76,1.79-2.67,2.66A4.34,4.34,0,0,0,17.74,27a12.41,12.41,0,0,0,1,5.34,32.45,32.45,0,0,0,5.76,9.59,35.64,35.64,0,0,0,11.8,9.24A17.07,17.07,0,0,0,42.8,53a4.79,4.79,0,0,0,4.11-1.57c.76-.85,1.63-1.63,2.43-2.45a2.55,2.55,0,0,0,0-3.88Z"/><path class="cls-2" d="M43.65,34.91l2.76-.47A12.41,12.41,0,0,0,35.92,24.26L35.53,27a9.59,9.59,0,0,1,8.12,7.87Z"/><path class="cls-2" d="M48,22.89a20.38,20.38,0,0,0-11.68-5.83l-.39,2.78a17.78,17.78,0,0,1,15,14.58L53.71,34A20.53,20.53,0,0,0,48,22.89Z"/></g></g></svg>