<?xml version="1.0" encoding="utf-8"?>
<!-- Generator: Adobe Illustrator 21.1.0, SVG Export Plug-In . SVG Version: 6.00 Build 0)  -->
<svg version="1.1" id="Layer_1" xmlns="http://www.w3.org/2000/svg" xmlns:xlink="http://www.w3.org/1999/xlink" x="0px" y="0px"
	 viewBox="0 0 512 512" style="enable-background:new 0 0 512 512;" xml:space="preserve">
<style type="text/css">
	.st0{fill:#004C99;}
</style>
<g>
	<path class="st0" d="M366.9,476.4H128c-5.5,0-10,4.5-10,10v17.1c0,5.5,4.5,10,10,10s10-4.5,10-10v-7h228.9c5.5,0,10-4.5,10-10
		C377,480.9,372.5,476.4,366.9,476.4z"/>
	<path class="st0" d="M186.2,213.3c0,5.5,4.5,10,10,10h34.1c5.5,0,10-4.5,10-10v-51.2c0-5.5-4.5-10-10-10h-34.1c-5.5,0-10,4.5-10,10
		L186.2,213.3z M220.4,172.2v31.1h-14.1v-31.1H220.4z"/>
	<path class="st0" d="M121,110.9c0-5.5-4.5-10-10-10H8.5c-5.5,0-10,4.5-10,10v170.7c0,5.5,4.5,10,10,10s10-4.5,10-10V121h92.4
		C116.5,121,121,116.5,121,110.9z"/>
	<path class="st0" d="M408.1,418.1c0,5.5,4.5,10,10,10h34.1c5.5,0,10-4.5,10-10v-51.2c0-5.5-4.5-10-10-10h-34.1c-5.5,0-10,4.5-10,10
		V418.1z M428.2,408.1V377h14.1v31.1H428.2z"/>
	<path class="st0" d="M42.7,305.7c-18.3,0-31.3,18.9-38.6,56.3c-5.5,28-5.5,55.9-5.5,56.2c0,20.5,14.3,38.4,34.1,43v42.3
		c0,5.5,4.5,10,10,10s10-4.5,10-10v-42.3c19.9-4.6,34.1-22.5,34.1-43c0-0.3-0.1-28.5-5.5-56.2C74,324.6,61,305.7,42.7,305.7z
		 M42.7,325.8c11.9,0,24.1,46.6,24.1,92.4c0,13.3-10.8,24.1-24.1,24.1s-24.1-10.8-24.1-24.1C18.6,372.4,30.7,325.8,42.7,325.8z"/>
	<path class="st0" d="M93.9,254.5H59.7c-5.5,0-10,4.5-10,10v17.1c0,5.5,4.5,10,10,10s10-4.5,10-10v-7h14.1v41.2c0,5.5,4.5,10,10,10
		s10-4.5,10-10v-51.2c0-2.7-1-5.2-2.9-7.1C99.1,255.5,96.5,254.5,93.9,254.5z"/>
	<path class="st0" d="M418.1,223.4h34.1c5.5,0,10-4.5,10-10v-51.2c0-5.5-4.5-10-10-10h-34.1c-5.5,0-10,4.5-10,10v51.2
		C408.1,218.9,412.6,223.4,418.1,223.4z M428.2,203.3v-31.1h14.1v31.1H428.2z"/>
	<path class="st0" d="M93.9,152.1H59.7c-5.5,0-10,4.5-10,10v51.2c0,5.5,4.5,10,10,10h34.1c5.5,0,10-4.5,10-10v-51.2
		c0-2.7-1-5.2-2.9-7.1S96.5,152.1,93.9,152.1z M83.8,172.2l0,31.1H69.8v-31.1H83.8z"/>
	<path class="st0" d="M271.6,213.3c0,5.5,4.5,10,10,10h34.1c5.5,0,10-4.5,10-10v-51.2c0-5.5-4.5-10-10-10h-34.1c-5.5,0-10,4.5-10,10
		V213.3z M291.6,203.3v-31.1h14.1v31.1H291.6z"/>
	<path class="st0" d="M503.5,100.9H401.1c-5.5,0-10,4.5-10,10s4.5,10,10,10h92.4v339.3c-3.6-1-7.2-1.2-10.6-0.8
		c-6.4-10.7-18-17.3-30.5-17.3c-12.6,0-24.2,6.6-30.5,17.3c-1.2-0.2-2.4-0.2-3.6-0.2c-14.9,0-27.1,12.2-27.1,27.1
		c0,14.9,12.2,27.1,27.1,27.1h68.3c14.9,0,27.1-12.2,27.1-27.1V110.9C513.5,105.4,509,100.9,503.5,100.9z M437.2,474.3
		c1.6-7.1,7.9-12,15.1-12c7.3,0,13.5,5,15.1,12c0.7,3.2,3,5.8,6,7c3,1.2,6.5,0.9,9.2-0.9c2.1-1.4,4.7-1.4,7.1-0.1
		c2.3,1.3,3.8,3.6,3.8,6c0,3.9-3.2,7-7,7h-68.3c-3.9,0-7-3.2-7-7s3.2-7,7-7c1.3,0,2.6,0.4,3.8,1.2c2.7,1.8,6.2,2.1,9.2,0.9
		C434.2,480.2,436.4,477.5,437.2,474.3z"/>
	<path class="st0" d="M281.6,121h34.1c5.5,0,10-4.5,10-10V59.7c0-5.5-4.5-10-10-10h-34.1c-5.5,0-10,4.5-10,10v51.2
		C271.6,116.5,276.1,121,281.6,121z M291.6,100.9V69.8h14.1v31.1H291.6z"/>
	<path class="st0" d="M271.6,315.7c0,5.5,4.5,10,10,10h34.1c5.5,0,10-4.5,10-10v-51.2c0-5.5-4.5-10-10-10h-34.1c-5.5,0-10,4.5-10,10
		V315.7z M291.6,305.7v-31.1h14.1v31.1H291.6z"/>
	<path class="st0" d="M230.4,121c5.5,0,10-4.5,10-10V59.7c0-5.5-4.5-10-10-10h-34.1c-5.5,0-10,4.5-10,10v51.2c0,2.7,1,5.2,2.9,7.1
		c1.9,1.9,4.4,2.9,7.1,2.9H230.4z M220.4,69.8v31.1h-14.1V69.8H220.4z"/>
	<path class="st0" d="M248.9,411L248.9,411c-1.9,2-2.9,4.6-2.9,7.1c0,2.6,1.1,5.2,2.9,7.1c1.9,1.8,4.5,2.9,7.1,2.9
		c2.6,0,5.2-1.1,7.1-2.9c1.8-1.9,2.9-4.5,2.9-7.1c0-2.6-1.1-5.2-2.9-7.1C259.3,407.2,252.7,407.2,248.9,411z"/>
	<path class="st0" d="M196.3,325.8h34.1c5.5,0,10-4.5,10-10v-51.2c0-5.5-4.5-10-10-10h-34.1c-5.5,0-10,4.5-10,10l0,51.2
		C186.2,321.3,190.7,325.8,196.3,325.8z M220.4,274.6v31.1h-14.1v-31.1H220.4z"/>
	<path class="st0" d="M169.2,366.9c0,5.5,4.5,10,10,10h24.1v75.3c0,5.5,4.5,10,10,10s10-4.5,10-10V377h65.3v75.3c0,5.5,4.5,10,10,10
		s10-4.5,10-10V377h24.1c5.5,0,10-4.5,10-10s-4.5-10-10-10H179.2C173.7,356.9,169.2,361.4,169.2,366.9z"/>
	<path class="st0" d="M408.1,315.7c0,5.5,4.5,10,10,10h34.1c5.5,0,10-4.5,10-10v-51.2c0-5.5-4.5-10-10-10h-34.1c-5.5,0-10,4.5-10,10
		V315.7z M428.2,305.7v-31.1h14.1v31.1H428.2z"/>
	<path class="st0" d="M366.9-1.5H145.1c-5.5,0-10,4.5-10,10v443.7c0,5.5,4.5,10,10,10s10-4.5,10-10V18.6h201.8v433.7
		c0,5.5,4.5,10,10,10s10-4.5,10-10V8.5c0-2.7-1-5.2-2.9-7.1C372.1-0.5,369.6-1.5,366.9-1.5z"/>
</g>
</svg>
