<?xml version="1.0" encoding="utf-8"?>
<!-- Generator: Adobe Illustrator 21.1.0, SVG Export Plug-In . SVG Version: 6.00 Build 0)  -->
<svg version="1.1" id="Layer_1" xmlns="http://www.w3.org/2000/svg" xmlns:xlink="http://www.w3.org/1999/xlink" x="0px" y="0px"
	 viewBox="0 0 512 512" style="enable-background:new 0 0 512 512;" xml:space="preserve">
<style type="text/css">
	.st0{fill:#004C99;}
</style>
<g>
	<g>
		<g>
			<path class="st0" d="M512,306.4v-3.3c0-11.9-9.7-21.6-21.6-21.6h-7.8l-6.7-142.2c-0.2-4.5-3.9-7.9-8.5-7.7
				c-4.5,0.2-7.9,4-7.7,8.5l6.7,141.4h-66l9.4-199.3h47.1l1.4,29.6c0.2,4.5,4,7.9,8.5,7.7c4.5-0.2,7.9-4,7.7-8.5l-1.7-36.5
				c0-0.3,0-0.6,0-0.8l-1.5-30.3c0-0.2,0-0.3,0-0.5L470,16.2h2.2c4.5,0,8.1-3.6,8.1-8.1S476.7,0,472.2,0h-10.7h-56.3h-10.7
				c-4.5,0-8.1,3.6-8.1,8.1s3.6,8.1,8.1,8.1h2.2l-1.3,26.7c0,0.2,0,0.3,0,0.5L394,73.7c0,0.3,0,0.6,0,0.8l-9.8,207h-10.6l-9.8-207
				c0-0.3,0-0.6,0-0.8l-1.5-30.3c0-0.2,0-0.3,0-0.5l-1.3-26.7h2.2c4.5,0,8.1-3.6,8.1-8.1S367.6,0,363.1,0h-10.7h-56.3h-10.7
				c-4.5,0-8.1,3.6-8.1,8.1s3.6,8.1,8.1,8.1h2.2l-1.3,26.7c0,0.2,0,0.3,0,0.5l-1.5,30.3c0,0.3,0,0.6,0,0.8l-9.8,207h-12.2v-18
				c0-3-1.6-5.7-4.3-7.1c-2.6-1.4-5.8-1.3-8.3,0.4l-64.9,42.8v-36c0-3-1.6-5.7-4.3-7.1c-2.6-1.4-5.8-1.3-8.3,0.4l-64.9,42.8v-36
				c0-3-1.6-5.7-4.3-7.1c-2.6-1.4-5.8-1.3-8.3,0.4l-77.4,51c-2.3,1.5-3.6,4-3.6,6.8v152.2C6.1,469.6,0,477.6,0,487.1v3.3
				C0,502.3,9.7,512,21.6,512h468.8c11.9,0,21.6-9.7,21.6-21.6v-3.3c0-9.8-6.6-18.1-15.6-20.7V327.1
				C505.4,324.5,512,316.2,512,306.4z M412.9,16.2h40.9l0.9,19.5H412L412.9,16.2z M411.2,51.8h44.3l0.7,14.2h-45.6L411.2,51.8z
				 M303.9,16.2h40.9l0.9,19.5h-42.7L303.9,16.2z M302.2,51.8h44.3l0.7,14.2h-45.6L302.2,51.8z M300.7,82.1h47.1l9.4,199.3h-66
				L300.7,82.1z M262.9,328h138.6c4.5,0,8.1-3.6,8.1-8.1s-3.6-8.1-8.1-8.1H262.9v-14.2h19.9h83h26.1h83h15.5c3,0,5.4,2.4,5.4,5.4
				v3.3c0,3-2.4,5.4-5.4,5.4h-2.1h-59.1c-4.5,0-8.1,3.6-8.1,8.1s3.6,8.1,8.1,8.1h51v137.5H262.9V328z M185.5,318.8l61.2-40.4v11.1
				v30.3v145.6h-61.2V318.8z M108.1,318.8l61.2-40.4v36v151h-61.2V318.8z M30.7,318.8l61.2-40.4v36v151H30.7V318.8z M495.8,490.4
				L495.8,490.4c0,3-2.4,5.4-5.4,5.4H21.6c-3,0-5.4-2.4-5.4-5.4v-3.3c0-3,2.4-5.4,5.4-5.4h1H100h77.4h77.4h233.5h2.1
				c3,0,5.4,2.4,5.4,5.4L495.8,490.4L495.8,490.4z"/>
			<path class="st0" d="M457.9,342.5h-57.3h-57.3H286c-4.5,0-8.1,3.6-8.1,8.1v46.1v46.1c0,4.5,3.6,8.1,8.1,8.1h57.3h57.3h57.3
				c4.5,0,8.1-3.6,8.1-8.1v-46.1v-46.1C466,346.2,462.4,342.5,457.9,342.5z M335.2,434.8h-41.1v-29.9h41.1V434.8z M335.2,388.7
				h-41.1v-29.9h41.1V388.7z M392.5,434.8h-41.1v-29.9h41.1V434.8z M392.5,388.7h-41.1v-29.9h41.1V388.7z M449.8,434.8h-41.1v-29.9
				h41.1V434.8z M449.8,388.7h-41.1v-29.9h41.1V388.7z"/>
			<path class="st0" d="M228.7,342.5h-25.2c-4.5,0-8.1,3.6-8.1,8.1s3.6,8.1,8.1,8.1h25.2c4.5,0,8.1-3.6,8.1-8.1
				C236.8,346.2,233.2,342.5,228.7,342.5z"/>
			<path class="st0" d="M228.7,368.8h-25.2c-4.5,0-8.1,3.6-8.1,8.1c0,4.5,3.6,8.1,8.1,8.1h25.2c4.5,0,8.1-3.6,8.1-8.1
				C236.8,372.4,233.2,368.8,228.7,368.8z"/>
			<path class="st0" d="M151.3,342.5h-25.1c-4.5,0-8.1,3.6-8.1,8.1s3.6,8.1,8.1,8.1h25.1c4.5,0,8.1-3.6,8.1-8.1
				C159.4,346.2,155.8,342.5,151.3,342.5z"/>
			<path class="st0" d="M151.3,368.8h-25.1c-4.5,0-8.1,3.6-8.1,8.1c0,4.5,3.6,8.1,8.1,8.1h25.1c4.5,0,8.1-3.6,8.1-8.1
				C159.4,372.4,155.8,368.8,151.3,368.8z"/>
			<path class="st0" d="M73.9,342.5H48.8c-4.5,0-8.1,3.6-8.1,8.1s3.6,8.1,8.1,8.1h25.2c4.5,0,8.1-3.6,8.1-8.1
				C82,346.2,78.4,342.5,73.9,342.5z"/>
			<path class="st0" d="M73.9,368.8H48.8c-4.5,0-8.1,3.6-8.1,8.1s3.6,8.1,8.1,8.1h25.2c4.5,0,8.1-3.6,8.1-8.1S78.4,368.8,73.9,368.8
				z"/>
		</g>
	</g>
</g>
</svg>
