<?xml version="1.0" encoding="utf-8"?>
<!-- Generator: Adobe Illustrator 21.1.0, SVG Export Plug-In . SVG Version: 6.00 Build 0)  -->
<svg version="1.1" id="Capa_1" xmlns="http://www.w3.org/2000/svg" xmlns:xlink="http://www.w3.org/1999/xlink" x="0px" y="0px"
	 viewBox="0 0 512 512" style="enable-background:new 0 0 512 512;" xml:space="preserve">
<style type="text/css">
	.st0{fill:#004C99;}
</style>
<g>
	<g>
		<path class="st0" d="M496.6,0H26.2c-5.5,0-10,4.5-10,10v376.8C9.4,399,5.4,413,5.4,428v5c0,43.6,35.4,79,79,79h407
			c5.5,0,10-4.5,10-10v-54v-44.5c0-21.8-17.7-39.5-39.5-39.5c-21.8,0-39.5,17.7-39.5,39.5V438h-21.2v-34.5
			c0-21.8-17.7-39.5-39.5-39.5c-21.8,0-39.5,17.7-39.5,39.5V438h-21.2v-34.5c0-21.8-17.7-39.5-39.5-39.5s-39.5,17.7-39.5,39.5V438
			h-48.5v-10c0-46.3-37.7-84-84-84c-20.2,0-38.7,7.1-53.2,19V97.1h168.7v113c0,5.5,4.5,10,10,10h2.2v50.7c0,0.3,0,0.7,0.1,1L195,299
			c-2.8,3.4-3,8.3-0.5,12l27.6,40c1.9,2.8,5.1,4.3,8.2,4.3c2,0,3.9-0.6,5.7-1.8c4.5-3.1,5.7-9.4,2.5-13.9l-23.4-33.8l20.4-25h51.4
			l20.4,25l-23.4,33.8c-3.1,4.5-2,10.8,2.5,13.9c1.7,1.2,3.7,1.8,5.7,1.8c3.2,0,6.3-1.5,8.2-4.3l27.6-40c2.5-3.7,2.3-8.6-0.5-12
			l-22.2-27.2c0-0.3,0.1-0.7,0.1-1v-50.7h2.2c5.5,0,10-4.5,10-10v-113h168.7V199c0,5.5,4.5,10,10,10c5.5,0,10-4.5,10-10V10
			C506.6,4.5,502.1,0,496.6,0z M481.4,492h-51.3l34-34h17.3V492z M442.3,403.5c0-10.8,8.8-19.5,19.5-19.5s19.5,8.8,19.5,19.5V438
			h-39.1V403.5z M435.9,458l-34,34h-68.4l34-34H435.9z M342.1,403.5c0-10.8,8.8-19.5,19.5-19.5s19.5,8.8,19.5,19.5V438h-39.1
			L342.1,403.5L342.1,403.5z M339.2,458l-34,34h-68.4l34-34H339.2z M241.9,403.5c0-10.8,8.8-19.5,19.5-19.5s19.5,8.8,19.5,19.5V438
			h-39.1L241.9,403.5L241.9,403.5z M89.4,364c35.3,0,64,28.7,64,64v20c0,5.5,4.5,10,10,10h79.1l-34,34H84.4c-32.5,0-59-26.5-59-59
			v-5C25.4,392.7,54.1,364,89.4,364z M285.7,260.8h-48.5v-40.7h48.5V260.8z M297.9,200.1h-2.2h-24.2v-54.4h8.7c5.5,0,10-4.5,10-10
			s-4.5-10-10-10h-37.3c-5.5,0-10,4.5-10,10s4.5,10,10,10h8.7v54.4h-24.2h-2.2v-103h73V200.1z M486.6,75v2.1H36.2V75V58.6h375
			c5.5,0,10-4.5,10-10s-4.5-10-10-10h-375V20h450.4V75z"/>
	</g>
</g>
<g>
	<g>
		<path class="st0" d="M89.4,384c-24.3,0-44,19.7-44,44s19.7,44,44,44s44-19.7,44-44S113.7,384,89.4,384z M89.4,452
			c-13.2,0-24-10.8-24-24s10.8-24,24-24s24,10.8,24,24S102.6,452,89.4,452z"/>
	</g>
</g>
<g>
	<g>
		<path class="st0" d="M456.6,46.6c-0.1-0.6-0.3-1.3-0.6-1.9s-0.6-1.2-0.9-1.7c-0.4-0.5-0.8-1.1-1.2-1.5s-1-0.9-1.5-1.2
			c-0.5-0.4-1.1-0.7-1.7-0.9c-0.6-0.3-1.2-0.4-1.9-0.6c-3.3-0.7-6.7,0.4-9,2.7c-1.9,1.9-2.9,4.4-2.9,7.1c0,0.7,0.1,1.3,0.2,2
			c0.1,0.6,0.3,1.3,0.6,1.9s0.6,1.2,0.9,1.7c0.4,0.5,0.8,1,1.3,1.5c0.5,0.5,1,0.9,1.5,1.2c0.5,0.4,1.1,0.7,1.7,0.9
			c0.6,0.3,1.2,0.4,1.9,0.6c0.6,0.1,1.3,0.2,2,0.2c0.6,0,1.3-0.1,2-0.2c0.6-0.1,1.3-0.3,1.9-0.6s1.2-0.6,1.7-0.9
			c0.5-0.4,1.1-0.8,1.5-1.2c0.5-0.5,0.9-1,1.2-1.5c0.4-0.5,0.7-1.1,0.9-1.7s0.4-1.2,0.6-1.9c0.1-0.7,0.2-1.3,0.2-2
			C456.8,47.9,456.8,47.3,456.6,46.6z"/>
	</g>
</g>
</svg>
