<?xml version="1.0" encoding="utf-8"?>
<!-- Generator: Adobe Illustrator 17.1.0, SVG Export Plug-In . SVG Version: 6.00 Build 0)  -->
<!DOCTYPE svg PUBLIC "-//W3C//DTD SVG 1.1//EN" "http://www.w3.org/Graphics/SVG/1.1/DTD/svg11.dtd">
<svg version="1.1" id="Слой_1" xmlns="http://www.w3.org/2000/svg" xmlns:xlink="http://www.w3.org/1999/xlink" x="0px" y="0px"
	 viewBox="0 0 5547.5 1128.3" enable-background="new 0 0 5547.5 1128.3" xml:space="preserve">
<path fill="#194C9B" d="M4000.8,507.1c-1.2,15.4-1.9,31.2-1.9,47.4c0,131.4,57.9,252.9,148.6,341.9
	c91.9,90.2,217.4,146.9,350.4,146.9c8.1,0,10.9,0,11.4,0c112.4-2.7,213.3-45.8,290.7-115.5h116.5c-8.6,10.6-17.5,20.9-26.8,30.8
	c-95.2,101.5-228.1,165.7-378.4,169.3c-8.7,0.2-13.2,0.3-13.4,0.3c-155.8,0-302.6-66.2-409.9-171.5
	c-106.3-104.3-174.2-247.2-174.2-402.3c0-16.2,0.6-32,1.6-47.4H4000.8z M4066.3,162.3c8.2-8.2,16.6-16.1,25.3-23.6
	C4197.5,46.2,4338,0,4478,0c81.1,0,162.3,15.5,237,46.5c75.1,31.2,143.4,78,198.1,140.7c79,90.6,129,213.1,129,367.3h-0.1
	c0.2,8.4,0.3,12.9,0.3,13.4c0,16.8-0.7,33.4-2.1,49.9h-85.4c1.6-16.4,2.4-33,2.4-49.9c0-8.4,0-12.3,0-12.4l-0.2-1
	c0-132.1-41.8-235.9-107.8-311.5c-45.7-52.4-103.2-91.8-166.8-118.1C4618.5,98.3,4548.4,85,4478,85c-97.9,0-195.5,25.7-276.8,77.2
	H4066.3z"/>
<polygon fill-rule="evenodd" clip-rule="evenodd" fill="#D10009" points="3610.8,93.8 3391.9,334.9 3613.4,575.9 3614.5,464.2 
	4114.9,464.9 4286.4,889.7 4552.1,889.7 4299.8,202.1 3614.9,203.7 "/>
<polygon fill-rule="evenodd" clip-rule="evenodd" fill="#194C9B" points="4355.1,202.1 4632.8,201.4 4804.3,657.7 5315.5,657.7 
	5315.5,564.9 5547.5,785.5 5316.9,997 5316.5,893.1 4629.4,889.7 "/>
<path fill-rule="evenodd" clip-rule="evenodd" fill="#004C99" d="M1.3,920L141,204l0.9-4.6h4.6h466.4h6.9l-1.3,6.7l-23.3,120
	l-0.9,4.6h-4.7h-325l-31,159.6h316h6.9l-1.3,6.7l-23.3,120l-0.9,4.6h-4.7H208l-58.5,300.4l-0.9,4.6h-4.6H6.9H0L1.3,920z
	 M723.6,199.4h136.5h6.9l-1.4,6.8l-79.1,389.5v0.1l-20,95.2c-1.1,8.4-2.6,19.2-4.3,30.7c0.1,12,2.5,23,7.3,32.8
	c4.8,10,12.2,19,22,26.9l0,0c9.9,7.9,22.1,13.9,36.5,17.9c14.7,4.1,31.7,6.1,51.2,6.1c17.5,0,33.5-1.6,47.8-4.9
	c14.3-3.2,27-8.1,38.2-14.5l0,0c11.1-6.3,21.1-14.3,29.7-23.8c8.8-9.6,16.2-20.7,22.5-33.4l0,0c6.2-13,12.6-30.6,19-52.8
	c6.4-22.3,12.9-49.2,19.5-80.6l0,0l76.3-391.3l0.9-4.6h4.6h136.9h6.9l-1.3,6.7l-79,405.5l0,0.1c-8.3,39.7-17.3,74.7-26.9,105
	c-9.7,30.6-20,56.7-31,78.1v0c-11.1,21.5-25.1,40.9-41.9,58.4c-16.8,17.4-36.4,32.8-58.8,46.2c-22.5,13.5-47.9,23.6-76.3,30.3
	c-28.3,6.7-59.4,10-93.4,10c-40.8,0-76.8-5.2-108.3-15.7c-31.6-10.5-58.4-26.3-80.3-47.4c-22-21.1-38.4-45.1-49.4-72.2
	c-11-27-16.4-57-16.4-89.9l0-0.3c0.3-6.6,0.9-13.5,1.6-20.7c0.8-7.6,1.8-15.3,2.9-23h0c0.7-5.4,2.5-15.9,5.4-31.4
	c2.9-15.4,6.5-34.6,11.1-57.7l0-0.1L718,203.9l0.9-4.5H723.6z M1782.1,926.7h-127.4h-3.9l-1.4-3.7l-173.1-462.2l-89.9,461.3
	l-0.9,4.6h-4.7h-127.4h-6.9l1.3-6.7l139.7-716l0.9-4.6h4.7h127.4h3.9l1.4,3.7l173.6,460.3l89.4-459.4l0.9-4.6h4.6h127.4h6.9
	l-1.3,6.8l-139.6,716l-0.9,4.6H1782.1z M1915.6,920l139.7-716l0.9-4.6h4.7h136.9h6.9l-1.3,6.7l-55.8,286.4L2442.2,201l1.6-1.6h2.3
	h183.4h14.3l-10.4,9.8l-295.3,277.9l217.3,431.4l4.1,8.2h-9.2H2395h-3.5l-1.6-3.2l-160.5-334l-123.5,116.1l-42.2,216.5l-0.9,4.6
	h-4.6h-137h-6.9L1915.6,920z M2588.8,920l139.7-716l0.9-4.6h4.7h493.4h6.9l-1.3,6.7l-23.3,120l-0.9,4.6h-4.7h-352.1l-30.4,150.7
	h338.8h6.9l-1.3,6.7l-23.3,120l-0.9,4.6h-4.6H2795l-37.1,182.7h380.2h6.9l-1.3,6.7l-23.3,120l-0.9,4.6h-4.6h-520.4h-6.9L2588.8,920z
	"/>
</svg>
