<svg xmlns="http://www.w3.org/2000/svg" viewBox="0 0 72.51 50.58"><defs><style>.cls-1{fill:#fff;}</style></defs><title>бургер</title><g id="Слой_2" data-name="Слой 2"><g id="Слой_1-2" data-name="Слой 1"><path class="cls-1" d="M4.2,8.06h64.1a4.12,4.12,0,0,0,4.2-4,4.12,4.12,0,0,0-4.2-4H4.2A4.12,4.12,0,0,0,0,4,4.12,4.12,0,0,0,4.2,8.06Z"/><path class="cls-1" d="M68.31,21.4H4.2a4,4,0,1,0,0,8.06h64.1a4,4,0,1,0,0-8.06Z"/><path class="cls-1" d="M68.31,42.52H4.2a4,4,0,1,0,0,8.06h64.1a4,4,0,1,0,0-8.06Z"/></g></g></svg>