<svg xmlns="http://www.w3.org/2000/svg" viewBox="0 0 256.81 61.5"><title>Ресурс 13</title><g data-name="Слой 2"><path d="M9.5 61.5c5-2.44 9.08-4.36 9.61-4.56 1.47-.53 22.63-18.23 22.63-18.23l7.94 3.44 30.86-16.92 10.87 3.17S129.82 1.65 132 2.37s-12.34 18-12.93 18.76-6.17 7.66-6.17 7.66l6.47 2.11-21.49 19.83L137 33.43l13.81 2.91 24.1-12.22-2.64 9.18-1.76 14.53-17 6.61s-1.92 2.93-4.44 7.06h107.74l-19-8.91-22.95-13.22-40-17.71-8.82 4.23L132.57 0l-40 24-12.91-1.8-30 16.65-6.47-4.23L10.3 56.55 0 61.5z" fill="#d9e0e9" fill-rule="evenodd" data-name="Слой 1"/></g></svg>