<svg id="Слой_1" xmlns="http://www.w3.org/2000/svg" viewBox="0 0 206.5 50.9"><style>.st0{fill:#1f1a17}.st1{fill:#f4b453}.st2{fill:#fff}</style><g id="Ebene_x0020_1"><g id="_70288352"><path id="_33988232" class="st0" d="M69.6 5.7c0 1.1-.7 2.2-2.2 3.1-1.3.8-2.6 1.2-3.8 1.2-2.1 0-4.5-.6-7-2-3.3-1.7-5.5-2.7-6.5-3.1C45.8 3.7 42 3 38.8 3 33.7 3 30.1 4 28 5.9c.9.5 1.9 1.7 3.1 3.6 1.6 2.6 2.4 5.3 2.4 8.2 0 3.4-1.2 6.7-3.5 9.8-2.5 3.3-5.4 4.9-8.8 4.9-1.9 0-3.7-.7-5.4-2.1-1.7-1.4-2.5-3-2.5-4.9 0-1 .3-2.4.8-4.2.2.3.3.5.3.7-.2 1.1-.4 2.3-.4 3.5 0 1.8.8 3.3 2.4 4.6 1.5 1.2 3.1 1.9 4.9 1.9 3.3 0 6.1-1.6 8.4-4.7 2.2-2.9 3.3-6 3.3-9.4 0-2.7-.7-5.2-2.2-7.6-1-1.7-2.1-3-3.4-3.9-1 .5-2.2 1.8-3.5 4-1.4 2.3-2.1 4.5-2.1 6.5s.5 3.6 1.5 4.9c1 1.2 2.4 1.8 4.1 1.8h1.2v.5c-.6.1-1 .1-1.3.1-1.8 0-3.3-.7-4.4-2-1.1-1.3-1.6-3.1-1.6-5.3 0-2.5.8-5 2.5-7.5 1.3-1.6 2.3-2.7 2.9-3.5-2.2-1.4-4.7-2-7.5-2-4.8 0-8.9 1.9-12.3 5.7-3.2 3.5-4.8 7.7-4.8 12.6 0 5.1 1.5 9.5 4.6 13 3.2 3.6 7.4 5.5 12.4 5.5 4 0 7.6-1.5 10.7-4.6 1.3-1.3 2.4-2.7 3.1-4.1 1-2 3.1-7.3 6.2-15.8l-1.9-.4.2-.7 2 .4c.5-.7 1.5-2 3-3.7 1.5-1.3 3-2.1 4.5-2.5 1.3-.4 3.4-.6 6.2-.7v.2c-.1.2-1 .4-2.5.6-1.6.1-2.8.4-3.4.7-1.5.7-2.9 2.7-4.2 5.9l2.9.5c.7-2.2 1.8-3.3 3.2-3.3 1 0 1.6.6 1.6 1.7 0 .6-.3 1.2-.9 1.7-.6.5-1.3.9-2 1V19c0 4.3-1.4 6.5-4.2 6.5-.6 0-1.1-.3-1.7-.8l.3-.3c.6.2 1 .3 1.4.3.7 0 1.3-.8 1.5-2.3.1-.5.2-2.1.4-4.9l-2.9-.4c-.7 2.5-1.4 4.8-2 6.8-1.6 4.9-3.1 8.2-4.5 9.9-1.8 2.2-4.4 4-7.7 5.4-3.2 1.3-6.2 2-9.3 2-5.5 0-10-1.8-13.4-5.3C2.2 32.3.5 27.8.5 22.3c0-5.3 1.8-9.8 5.3-13.4 3.6-3.7 8-5.5 13.3-5.5 2.5 0 5.2.7 7.9 2C30.8 2.2 34.7.6 38.8.6c3.5 0 6.7.8 9.8 2.3 1.7 1 4.2 2.4 7.6 4.3 2.7 1.6 5.2 2.3 7.4 2.3 2.4 0 4.4-1.2 6-3.8zm-19.8 8.8c0-.4-.2-.5-.7-.5-.3 0-.6.3-.9.9-.3.6-.5 1-.5 1.3 0 .1 0 .1.1.1.5 0 1-.2 1.4-.5.4-.4.6-.8.6-1.3z"/><path id="_339882321" class="st0" d="M59.8 13.7c0 .7-.2 1.4-.7 1.9-.5.6-1 .9-1.7.9-.5 0-1-.2-1.3-.6-.4-.4-.5-.8-.5-1.3 0-.7.3-1.3.8-1.8s1.1-.8 1.7-.8c.5 0 .9.2 1.2.5.3.3.5.7.5 1.2zm2.9 9.6c-6.4 7.5-10.6 11.3-12.8 11.3-2 0-3-1-3-2.9 0-1.5.6-3.3 1.8-5.6.7-1.2 1.7-3 3-5.4.4-.7.8-1 1.3-1s.8.1 1.1.2c.3.1.5.2.5.2.1 0 .4-.2.9-.7.5-.5.8-.7 1-.8l-6.2 11.8c-.3.6-.4 1.2-.4 1.9 0 .8.4 1.3 1.1 1.3.7 0 2.7-1.6 5.9-4.8 2.4-2.4 4.2-4.4 5.4-5.9 0 .1.4.4.4.4z"/><path id="_3398823212" class="st0" d="M77.8 23.3c-1.1 1.9-3 4.1-5.7 6.6-3.4 3.2-6.3 4.7-8.7 4.7-1.2 0-2.3-.4-3-1.2-.8-.8-1.2-1.9-1.2-3.1 0-3.1 1.4-5.8 4.1-8 2.4-2 4.7-2.9 7-2.9.7 0 1.4.3 2 .8.6.5.8 1.2.8 1.9 0 2-1.5 3.8-4.4 5.1-2.2 1-4.1 1.6-5.7 1.6-.7 1.2-1 2.3-1 3.3 0 1.2.4 1.8 1.3 1.8 2.1 0 4.9-1.5 8.2-4.4 2.6-2.3 4.6-4.5 5.8-6.5.1 0 .5.3.5.3zm-7.2-2.2c0-.7-.3-1.1-1-1.1-1.6 0-3.6 2.5-6.1 7.6 1.3 0 2.8-.8 4.6-2.5 1.6-1.7 2.5-3 2.5-4z"/><path id="_33988232123" class="st0" d="M89.8 23.3c-2 3.5-4 5.8-5.9 7.1-1.2.8-2.8 1.4-4.7 1.7-1.5 1.8-3.3 2.6-5.4 2.6-2.6 0-3.9-1.1-3.9-3.4 0-.8.2-1.4.7-2 .4-.5 1-.8 1.7-.8.5 0 1.1.3 1.8.9.8.7 1.4 1.2 1.7 1.3.5-.4 1-1 1.3-1.9.3-.9.5-1.7.5-2.4 0-.4-.2-1.2-.5-2.2-.3-1.1-.5-1.9-.5-2.5 0-1 .2-2 .5-2.9.5-1.2 1.2-1.8 2-1.8s1.2.3 1.2.9c0 .7-.5 2-1.5 3.8 1 2.2 1.5 4 1.5 5.3 0 2-.3 3.5-.9 4.4 2-.4 3.5-1.1 4.6-1.9 1.6-1.2 3.4-3.4 5.3-6.5.2 0 .5.3.5.3zM79.9 18c0-.4-.2-.5-.6-.5-.2 0-.4.2-.6.7-.2.4-.3.9-.3 1.4 0 .7.1 1.2.3 1.6.8-1.3 1.2-2.3 1.2-3.2zm-4.6 13.2c-.2-.1-.7-.4-1.4-1-.6-.5-1-.7-1.3-.7-.6 0-.9.3-.9 1s.5 1.2 1.6 1.4c1.1-.1 1.8-.3 2-.7z"/><path id="_339882321234" class="st0" d="M108.8 23.3c-2.3 3.2-4.8 5.8-7.6 7.8-3.4 2.4-6.7 3.6-10.1 3.6-3.3 0-4.9-1.4-4.9-4.3 0-3.4 1.2-6.2 3.7-8.2 2.2-1.8 4.6-2.7 7.3-2.7.8 0 1.5.3 2.1.8.6.5.9 1.1.9 1.8s-.3 1.4-.9 2c-.6.6-1.3.9-2 .9-1.2 0-1.8-.4-1.8-1.3 0-.7.2-1.2.5-1.7.5.4 1 .6 1.4.6.3 0 .6-.2 1-.6.4-.4.6-.7.6-1 0-.7-.6-1-1.7-1-1.5 0-3.2 1.7-5.3 5-2 3.2-3 5.6-3 7.5 0 1.2.7 1.8 2.2 1.8 3.2 0 6.5-1.2 9.8-3.6 2.8-2 5.3-4.5 7.5-7.5-.1-.2.3.1.3.1z"/><path id="_3398823212345" class="st0" d="M126.8 4.3c0 3-2 6.5-6.1 10.5-2.9 2.8-5.6 4.8-7.9 6-.3.7-.7 1.5-1 2.1 2.6-2.4 4.7-3.7 6.3-3.7 1.3 0 2 .7 2 2 0 1-1.1 3.2-3.2 6.4s-3.2 4.9-3.2 4.9c0 .6.2.9.7.9 1 0 2.7-1.3 5.2-4 .6-.6 2.5-2.8 5.7-6.6l.4.3c-3.3 4.2-5.4 6.7-6.2 7.5-2.4 2.5-4.4 3.8-5.9 3.8-.8 0-1.4-.2-1.9-.6-.5-.4-.8-1-.8-1.7 0-.8 1-2.8 3.1-5.9 2.1-3.2 3.1-4.9 3.1-5.3 0-.3-.1-.5-.4-.5-.8 0-1.8.5-2.9 1.4-1 .8-1.8 1.6-2.2 2.5-.5.9-1.8 3.3-4 7.3-.8 1.6-1.5 2.4-2 2.4-.2 0-.5-.1-1-.2s-.7-.2-.8-.2c-.2 0-.5.1-.8.4-.4.4-.7.7-1.1.9 2.2-4.2 3.9-7.4 5.2-9.8 2.7-4.9 5.3-9.1 7.8-12.8 4.5-6.5 7.9-9.8 10.1-9.8 1.2.3 1.8.8 1.8 1.8zm-2.2.7c0-.8-.2-1.2-.5-1.2-.8 0-2.3 1.6-4.4 4.9-1 1.6-3.2 5.2-6.4 10.8 3.3-2.2 6.1-4.8 8.4-7.9 1.9-2.6 2.9-4.8 2.9-6.6z"/><path id="_33988232123456" class="st0" d="M140.5 23.3c-1.1 1.9-3 4.1-5.7 6.6-3.4 3.2-6.3 4.7-8.7 4.7-1.2 0-2.3-.4-3-1.2-.8-.8-1.2-1.9-1.2-3.1 0-3.1 1.4-5.8 4.1-8 2.4-2 4.7-2.9 7-2.9.7 0 1.4.3 2 .8.6.5.8 1.2.8 1.9 0 2-1.5 3.8-4.4 5.1-2.2 1-4.1 1.6-5.7 1.6-.6 1.3-.9 2.4-.9 3.4 0 1.2.4 1.8 1.3 1.8 2.1 0 4.9-1.5 8.2-4.4 2.6-2.3 4.6-4.5 5.8-6.5 0-.1.4.2.4.2zm-7.2-2.2c0-.7-.3-1.1-1-1.1-1.6 0-3.6 2.5-6.1 7.6 1.3 0 2.8-.8 4.6-2.5 1.7-1.7 2.5-3 2.5-4z"/><path id="_339882321234567" class="st0" d="M154.9 23.3c-2.2 3.4-4 5.8-5.4 7.2-2.6 2.7-5.2 4.1-7.7 4.1-1.7 0-2.6-1.2-2.6-3.6 0-.8.7-2.3 2-4.6s2-3.6 2-3.9c0-.2-.1-.3-.2-.3-.2 0-.6.3-1.2.8s-1.2.8-1.8.8c-.8 0-1.2-.6-1.2-1.9 0-.7.3-1.6.9-2.4.6-.9 1.2-1.3 1.9-1.3.8 0 1.2.4 1.2 1.1 0 .9-.6 2-1.7 3.4 1-.9 2-1.7 3-2.4.8-.6 1.5-.9 2.1-.9.5 0 .9.2 1.2.6.3.4.5.8.5 1.3 0 .4-.3 1.2-1 2.4l-3.9 6.6c-.6 1-.9 1.7-.9 2 0 .9.4 1.3 1.3 1.3 2.6 0 6.3-3.5 11.2-10.5l.3.2zM142 19.4c0-.3-.1-.4-.4-.4-.5 0-.9.4-1.4 1.1-.4.7-.6 1.4-.6 1.9 0 .6.2.8.5.8 1.3-1.7 1.9-2.8 1.9-3.4z"/><path id="_3398823212345678" class="st0" d="M172.8 4.3c0 3-2 6.5-6.1 10.5-2.9 2.8-5.6 4.8-7.9 6-.3.7-.7 1.5-1 2.1 2.6-2.4 4.7-3.7 6.3-3.7 1.3 0 2 .7 2 2 0 1-1.1 3.2-3.2 6.4s-3.2 4.9-3.2 4.9c0 .6.2.9.7.9 1 0 2.7-1.3 5.2-4 .6-.6 2.5-2.8 5.7-6.6l.4.3c-3.3 4.2-5.4 6.7-6.2 7.5-2.4 2.5-4.4 3.8-5.9 3.8-.8 0-1.4-.2-1.9-.6-.5-.4-.8-1-.8-1.7 0-.8 1-2.8 3.1-5.9 2.1-3.2 3.1-4.9 3.1-5.3 0-.3-.1-.5-.4-.5-.8 0-1.8.5-2.9 1.4-1 .8-1.8 1.6-2.2 2.5-.5.9-1.8 3.3-4 7.3-.8 1.6-1.5 2.4-2 2.4-.2 0-.5-.1-1-.2s-.7-.2-.8-.2c-.2 0-.5.1-.8.4-.4.4-.7.7-1.1.9 2.2-4.2 3.9-7.4 5.2-9.8 2.7-4.9 5.3-9.1 7.8-12.8 4.5-6.5 7.9-9.8 10.1-9.8 1.2.3 1.8.8 1.8 1.8zm-2.2.7c0-.8-.2-1.2-.5-1.2-.8 0-2.3 1.6-4.4 4.9-1 1.6-3.2 5.2-6.4 10.8 3.3-2.2 6.1-4.8 8.4-7.9 1.9-2.6 2.9-4.8 2.9-6.6z"/><path id="_33988232123456789" class="st0" d="M189.6 23.3c-1.1 1.4-3.1 2.9-6 4.5-.5.2-1.2.4-2.2.7-1 1.7-2.4 3.1-4.1 4.2-1.9 1.2-3.7 1.9-5.5 1.9-1.1 0-2-.5-2.7-1.5-.7-.9-1-1.9-1-3 0-2.8 1.1-5.3 3.4-7.5s4.8-3.3 7.6-3.3c1.1 0 2.1.4 2.8 1.3.7.9 1.1 2 1.1 3.3 0 .8-.1 1.5-.4 2.2-.1.3-.4.9-.7 1.7.3 0 .7-.2 1.5-.5 1.8-.8 3.7-2.2 5.9-4.3l.3.3zm-9.5-2.2c0-.8-.4-1.2-1.2-1.2-1.5 0-3.3 1.7-5.3 5.1-1.9 3.2-2.8 5.6-2.8 7.4 0 1.1.3 1.6.9 1.6 1.7 0 3.7-2 6-5.9-1.8-.6-2.7-1.4-2.7-2.4s.5-1.6 1.5-1.6c.7 0 1 .3 1 1 0 .6-.4.9-1.3 1 .2.8.8 1.3 1.9 1.5 1.3-2.6 2-4.8 2-6.5z"/><path id="_3398823212345678910" class="st0" d="M206.5 6.3c0 2-1.1 4.4-3.3 7.3-2.4 3.1-5.3 5.6-8.8 7.4h2.7l-.5.9h-3.5c-2.2 4.4-4.4 8.7-6.6 13.1-3.1 5.8-5.7 9.8-7.7 11.9-2.4 2.6-4.8 3.9-7.4 3.9-1.4 0-2.6-.4-3.5-1.3a4.1 4.1 0 0 1-1.4-3.1c0-1.3.5-2.5 1.4-3.5.9-1.1 2-1.6 3.3-1.6.6 0 1.2.3 1.7.8s.7 1.1.7 1.7c0 .6-.3 1.2-.8 1.6-.5.5-1.2.7-1.9.7-.6 0-1.1-.4-1.6-1.3 1-.1 1.5-.4 1.5-.8 0-.8-.3-1.3-1-1.3-.6 0-1.2.5-1.8 1.6-.5.9-.7 1.8-.7 2.5 0 .9.4 1.7 1.2 2.4.8.7 1.8 1 2.9 1 1.9 0 3.7-1.3 5.5-3.9 1.1-1.6 2.9-5 5.3-10.2 3.1-6.6 5.5-11.4 7.1-14.3h-2.9l.5-.9h2.9c2.1-3.7 4.3-6.9 6.5-9.8 3.5-4.5 6.3-6.7 8.2-6.7.5 0 .9.2 1.3.6.5.5.7.9.7 1.3zm-1.9.4c0-.9-.3-1.4-.8-1.4-.8 0-2.5 2.2-5.2 6.6-2.2 3.6-3.9 6.7-5 9.2 3.7-2.8 6.6-5.6 8.6-8.6 1.7-2.4 2.4-4.3 2.4-5.8z"/><path id="_70893656" class="st1" d="M69.1 5.2c0 1.1-.7 2.2-2.2 3.1-1.3.8-2.6 1.2-3.8 1.2-2.1 0-4.5-.6-7-2-3.3-1.7-5.5-2.7-6.5-3.1-4.3-1.3-8.1-2-11.3-2-5.1 0-8.7 1-10.8 2.9.9.5 1.9 1.7 3.1 3.6 1.6 2.6 2.4 5.3 2.4 8.2 0 3.4-1.2 6.7-3.5 9.8-2.5 3.3-5.4 4.9-8.8 4.9-1.9 0-3.7-.7-5.4-2.1-1.7-1.4-2.5-3-2.5-4.9 0-1 .3-2.4.8-4.2.2.3.3.5.3.7-.4 1.2-.6 2.4-.6 3.6 0 1.8.8 3.3 2.4 4.6 1.5 1.2 3.1 1.9 4.9 1.9 3.3 0 6.1-1.6 8.4-4.7 2.2-2.9 3.3-6 3.3-9.4 0-2.7-.7-5.2-2.2-7.6-1-1.7-2.1-3-3.4-3.9-1 .5-2.2 1.8-3.5 4-1.4 2.3-2.1 4.5-2.1 6.5s.5 3.6 1.5 4.9c1 1.2 2.4 1.8 4.1 1.8h1.2v.5c-.6.1-1 .1-1.3.1-1.8 0-3.3-.7-4.4-2s-1.6-3.1-1.6-5.3c0-2.5.8-5 2.5-7.5 1.3-1.6 2.3-2.7 2.9-3.5-2.2-1.4-4.7-2-7.5-2-4.8 0-8.9 1.9-12.3 5.7-3.2 3.6-4.8 7.9-4.8 12.8 0 5.1 1.5 9.5 4.6 13 3.2 3.6 7.4 5.5 12.4 5.5 4 0 7.6-1.5 10.7-4.6 1.3-1.3 2.4-2.7 3.1-4.1 1-2 3.1-7.3 6.2-15.8l-1.9-.4.2-.7 2 .4c.5-.7 1.5-2 3-3.7 1.5-1.3 3-2.1 4.5-2.5 1.3-.4 3.4-.6 6.2-.7V8c-.1.2-1 .4-2.5.6-1.7.3-2.9.5-3.5.8-1.5.7-2.9 2.7-4.2 5.9l2.9.5c.7-2.2 1.8-3.3 3.2-3.3 1 0 1.6.6 1.6 1.7 0 .6-.3 1.2-.9 1.7-.6.5-1.3.9-2 1v1.5c0 4.3-1.4 6.5-4.2 6.5-.6 0-1.1-.3-1.7-.8l.3-.3c.6.2 1 .3 1.4.3.7 0 1.3-.8 1.5-2.3.1-.5.2-2.1.4-4.9l-2.9-.4c-.7 2.5-1.4 4.8-2 6.8-1.6 4.9-3.1 8.2-4.5 9.9-1.8 2.2-4.4 4-7.7 5.4-3.2 1.3-6.2 2-9.3 2-5.5 0-10-1.8-13.4-5.3C1.7 31.7 0 27.1 0 21.7c0-5.3 1.8-9.8 5.3-13.4 3.6-3.7 8-5.5 13.3-5.5 2.5 0 5.2.7 7.9 2C30.3 1.6 34.2 0 38.3 0c3.5 0 6.7.8 9.8 2.3 1.7 1 4.2 2.4 7.6 4.3C58.4 8.2 60.9 9 63.1 9c2.4 0 4.4-1.2 6-3.8zM49.3 14c0-.4-.2-.5-.7-.5-.3 0-.6.3-.9.9-.3.6-.5 1-.5 1.3 0 .1 0 .1.1.1.5 0 1-.2 1.4-.5.4-.4.6-.8.6-1.3z"/><path id="_708936561" class="st1" d="M59.3 13.2c0 .7-.2 1.4-.7 1.9-.5.6-1 .9-1.7.9-.5 0-1-.2-1.3-.6-.4-.4-.5-.8-.5-1.3 0-.7.3-1.3.8-1.8s1.1-.8 1.7-.8c.5 0 .9.2 1.2.5.3.3.5.7.5 1.2zm2.9 9.6c-6.4 7.5-10.6 11.3-12.8 11.3-2 0-3-1-3-2.9 0-1.5.6-3.3 1.8-5.6.7-1.2 1.7-3 3-5.4.4-.7.8-1 1.3-1s.8.1 1.1.2c.3.1.5.2.5.2.1 0 .4-.2.9-.7.5-.5.8-.7 1-.8L49.8 30c-.3.6-.4 1.2-.4 1.9 0 .8.4 1.3 1.1 1.3.7 0 2.7-1.6 5.9-4.8 2.4-2.4 4.2-4.4 5.4-5.9l.4.3z"/><path id="_7089365612" class="st1" d="M77.3 22.8c-1.1 1.9-3 4.1-5.7 6.6-3.4 3.2-6.3 4.7-8.7 4.7-1.2 0-2.3-.4-3-1.2-.8-.8-1.2-1.9-1.2-3.1 0-3.1 1.4-5.8 4.1-8 2.4-2 4.7-2.9 7-2.9.7 0 1.4.3 2 .8.6.5.8 1.2.8 1.9 0 2-1.5 3.8-4.4 5.1-2.2 1-4.1 1.6-5.7 1.6-.6 1.3-.9 2.4-.9 3.4 0 1.2.4 1.8 1.3 1.8 2.1 0 4.9-1.5 8.2-4.4 2.6-2.3 4.6-4.5 5.8-6.5l.4.2zm-7.2-2.2c0-.7-.3-1.1-1-1.1-1.6 0-3.6 2.5-6.1 7.6 1.3 0 2.8-.8 4.6-2.5 1.6-1.7 2.5-3 2.5-4z"/><path id="_70893656123" class="st1" d="M89.3 22.8c-2 3.5-4 5.8-5.9 7.1-1.2.8-2.8 1.4-4.7 1.7-1.5 1.8-3.3 2.6-5.4 2.6-2.6 0-3.9-1.1-3.9-3.4 0-.8.2-1.4.7-2 .4-.5 1-.8 1.7-.8.5 0 1.1.3 1.8.9.8.7 1.4 1.2 1.7 1.3.5-.4 1-1 1.3-1.9.3-.9.5-1.7.5-2.4 0-.4-.2-1.2-.5-2.2-.3-1.1-.5-1.9-.5-2.5 0-1 .2-2 .5-2.9.5-1.2 1.2-1.8 2-1.8s1.2.3 1.2.9c0 .7-.5 2-1.5 3.8 1 2.2 1.5 4 1.5 5.3 0 2-.3 3.5-.9 4.4 2-.4 3.5-1.1 4.6-1.9 1.6-1.2 3.4-3.4 5.3-6.5l.5.3zm-9.9-5.3c0-.4-.2-.5-.6-.5-.2 0-.4.2-.6.7-.2.4-.3.9-.3 1.4 0 .7.1 1.2.3 1.6.8-1.3 1.2-2.3 1.2-3.2zm-4.6 13.2c-.2-.1-.7-.4-1.4-1-.6-.5-1-.7-1.3-.7-.6 0-.9.3-.9 1s.5 1.2 1.6 1.4c1.1-.1 1.8-.3 2-.7z"/><path id="_708936561234" class="st1" d="M108.3 22.8c-2.3 3.2-4.8 5.8-7.6 7.8-3.4 2.4-6.7 3.6-10.1 3.6-3.3 0-4.9-1.4-4.9-4.3 0-3.4 1.2-6.2 3.7-8.2 2.2-1.8 4.6-2.7 7.3-2.7.8 0 1.5.3 2.1.8.6.5.9 1.1.9 1.8s-.3 1.4-.9 2c-.6.6-1.3.9-2 .9-1.2 0-1.8-.4-1.8-1.3 0-.7.2-1.2.5-1.7.5.4 1 .6 1.4.6.3 0 .6-.2 1-.6.4-.4.6-.7.6-1 0-.7-.6-1-1.7-1-1.5 0-3.2 1.7-5.3 5-2 3.2-3 5.6-3 7.5 0 1.2.7 1.8 2.2 1.8 3.2 0 6.5-1.2 9.8-3.6 2.8-2 5.3-4.5 7.5-7.5l.3.1z"/><path id="_7089365612345" class="st1" d="M126.3 3.8c0 3-2 6.5-6.1 10.5-2.9 2.8-5.6 4.8-7.9 6-.3.7-.7 1.5-1 2.1 2.6-2.4 4.7-3.7 6.3-3.7 1.3 0 2 .7 2 2 0 1-1.1 3.2-3.2 6.4s-3.2 4.9-3.2 4.9c0 .6.2.9.7.9 1 0 2.7-1.3 5.2-4 .6-.6 2.5-2.8 5.7-6.6l.4.3c-3.3 4.2-5.4 6.7-6.2 7.5-2.4 2.5-4.4 3.8-5.9 3.8-.8 0-1.4-.2-1.9-.6-.5-.4-.8-1-.8-1.7 0-.8 1-2.8 3.1-5.9s3.1-4.9 3.1-5.3c0-.3-.1-.5-.4-.5-.8 0-1.8.5-2.9 1.4-1 .8-1.8 1.6-2.2 2.5-.5.9-1.8 3.3-4 7.3-.8 1.6-1.5 2.4-2 2.4-.2 0-.5-.1-1-.2s-.7-.2-.8-.2c-.2 0-.5.1-.8.4-.4.4-.7.7-1.1.9 2.2-4.2 3.9-7.4 5.2-9.8 2.7-4.9 5.3-9.1 7.8-12.8 4.5-6.5 7.9-9.8 10.1-9.8 1.2.3 1.8.8 1.8 1.8zm-2.2.7c0-.8-.2-1.2-.5-1.2-.8 0-2.3 1.6-4.4 4.9-1 1.6-3.2 5.2-6.4 10.8 3.3-2.2 6.1-4.8 8.4-7.9 1.9-2.6 2.9-4.8 2.9-6.6z"/><path id="_70893656123456" class="st1" d="M140 22.8c-1.1 1.9-3 4.1-5.7 6.6-3.4 3.2-6.3 4.7-8.7 4.7-1.2 0-2.3-.4-3-1.2-.8-.8-1.2-1.9-1.2-3.1 0-3.1 1.4-5.8 4.1-8 2.4-2 4.7-2.9 7-2.9.7 0 1.4.3 2 .8.6.5.8 1.2.8 1.9 0 2-1.5 3.8-4.4 5.1-2.2 1-4.1 1.6-5.7 1.6-.6 1.3-.9 2.4-.9 3.4 0 1.2.4 1.8 1.3 1.8 2.1 0 4.9-1.5 8.2-4.4 2.6-2.3 4.6-4.5 5.8-6.5l.4.2zm-7.2-2.2c0-.7-.3-1.1-1-1.1-1.6 0-3.6 2.5-6.1 7.6 1.3 0 2.8-.8 4.6-2.5 1.7-1.7 2.5-3 2.5-4z"/><path id="_708936561234567" class="st1" d="M154.4 22.8c-2.2 3.4-4 5.8-5.4 7.2-2.6 2.7-5.2 4.1-7.7 4.1-1.7 0-2.6-1.2-2.6-3.6 0-.8.7-2.3 2-4.6s2-3.6 2-3.9c0-.2-.1-.3-.2-.3-.2 0-.6.3-1.2.8s-1.2.8-1.8.8c-.8 0-1.2-.6-1.2-1.9 0-.7.3-1.6.9-2.4.6-.9 1.2-1.3 1.9-1.3.8 0 1.2.4 1.2 1.1 0 .9-.6 2-1.7 3.4 1-.9 2-1.7 3-2.4.8-.6 1.5-.9 2.1-.9.5 0 .9.2 1.2.6.3.4.5.8.5 1.3 0 .4-.3 1.2-1 2.4l-3.9 6.6c-.6 1-.9 1.7-.9 2 0 .9.4 1.3 1.3 1.3 2.6 0 6.3-3.5 11.2-10.5l.3.2zm-12.9-3.9c0-.3-.1-.4-.4-.4-.5 0-.9.4-1.4 1.1-.4.7-.6 1.4-.6 1.9 0 .6.2.8.5.8 1.3-1.7 1.9-2.8 1.9-3.4z"/><path id="_7089365612345678" class="st1" d="M172.3 3.8c0 3-2 6.5-6.1 10.5-2.9 2.8-5.6 4.8-7.9 6-.3.7-.7 1.5-1 2.1 2.6-2.4 4.7-3.7 6.3-3.7 1.3 0 2 .7 2 2 0 1-1.1 3.2-3.2 6.4s-3.2 4.9-3.2 4.9c0 .6.2.9.7.9 1 0 2.7-1.3 5.2-4 .6-.6 2.5-2.8 5.7-6.6l.4.3c-3.3 4.2-5.4 6.7-6.2 7.5-2.4 2.5-4.4 3.8-5.9 3.8-.8 0-1.4-.2-1.9-.6-.5-.4-.8-1-.8-1.7 0-.8 1-2.8 3.1-5.9 2.1-3.2 3.1-4.9 3.1-5.3 0-.3-.1-.5-.4-.5-.8 0-1.8.5-2.9 1.4-1 .8-1.8 1.6-2.2 2.5-.5.9-1.8 3.3-4 7.3-.8 1.6-1.5 2.4-2 2.4-.2 0-.5-.1-1-.2s-.7-.2-.8-.2c-.2 0-.5.1-.8.4-.4.4-.7.7-1.1.9 2.2-4.2 3.9-7.4 5.2-9.8 2.7-4.9 5.3-9.1 7.8-12.8 4.5-6.5 7.9-9.8 10.1-9.8 1.2.3 1.8.8 1.8 1.8zm-2.2.7c0-.8-.2-1.2-.5-1.2-.8 0-2.3 1.6-4.4 4.9-1 1.6-3.2 5.2-6.4 10.8 3.3-2.2 6.1-4.8 8.4-7.9 1.9-2.6 2.9-4.8 2.9-6.6z"/><path id="_70893656123456789" class="st1" d="M189.1 22.8c-1.1 1.4-3.1 2.9-6 4.5-.5.2-1.2.4-2.2.7-1 1.7-2.4 3.1-4.1 4.2-1.9 1.2-3.7 1.9-5.5 1.9-1.1 0-2-.5-2.7-1.5-.7-.9-1-1.9-1-3 0-2.8 1.1-5.3 3.4-7.5s4.8-3.3 7.6-3.3c1.1 0 2.1.4 2.8 1.3.7.9 1.1 2 1.1 3.3 0 .8-.1 1.5-.4 2.2-.1.3-.4.9-.7 1.7.3 0 .7-.2 1.5-.5 1.8-.8 3.7-2.2 5.9-4.3l.3.3zm-9.5-2.2c0-.8-.4-1.2-1.2-1.2-1.5 0-3.3 1.7-5.3 5.1-1.9 3.2-2.8 5.6-2.8 7.4 0 1.1.3 1.6.9 1.6 1.7 0 3.7-2 6-5.9-1.8-.6-2.7-1.4-2.7-2.4s.5-1.6 1.5-1.6c.7 0 1 .3 1 1 0 .6-.4.9-1.3 1 .2.8.8 1.3 1.9 1.5 1.3-2.6 2-4.8 2-6.5z"/><path id="_7089365612345678910" class="st1" d="M206 5.9c0 2-1.1 4.4-3.3 7.3-2.4 3.1-5.3 5.6-8.8 7.4h2.7l-.5.9h-3.5c-2.2 4.4-4.4 8.7-6.6 13.1-3.1 5.8-5.7 9.8-7.7 11.9-2.4 2.6-4.8 3.9-7.4 3.9-1.4 0-2.6-.4-3.5-1.3A4.1 4.1 0 0 1 166 46c0-1.3.5-2.5 1.4-3.5.9-1.1 2-1.6 3.3-1.6.6 0 1.2.3 1.7.8s.7 1.1.7 1.7c0 .6-.3 1.2-.8 1.6-.5.5-1.2.7-1.9.7-.6 0-1.1-.4-1.6-1.3 1-.1 1.5-.4 1.5-.8 0-.8-.3-1.3-1-1.3-.6 0-1.2.5-1.8 1.6-.5.9-.7 1.8-.7 2.5 0 .9.4 1.7 1.2 2.4.8.7 1.8 1 2.9 1 1.9 0 3.7-1.3 5.5-3.9 1.1-1.6 2.9-5 5.3-10.2 3.1-6.6 5.5-11.4 7.1-14.3h-2.9l.5-.9h2.9c2.1-3.7 4.3-6.9 6.5-9.8 3.5-4.5 6.3-6.7 8.2-6.7.5 0 .9.2 1.3.6.5.4.7.8.7 1.3zm-1.9.3c0-.9-.3-1.4-.8-1.4-.8 0-2.5 2.2-5.2 6.6-2.2 3.6-3.9 6.7-5 9.2 3.7-2.8 6.6-5.6 8.6-8.6 1.7-2.4 2.4-4.3 2.4-5.8z"/><path id="_70893832" class="st0" d="M126.9 44.2l.5 1.5h2.3l-.6.5-1.2.9.5 1.5.2.8-.7-.5-1.2-.9-1.2.9-.7.5.2-.8.5-1.5-1.2-.9-.6-.5h2.3l.5-1.5.3-.8.1.8zm0 1.8l-.3-.8-.3.8-.1.2h-1.1l.7.5.1.1-.1.2-.3.9.7-.5.2-.1.2.1.7.5-.3-.9-.1-.2.1-.1.7-.5h-.9.2l-.1-.2z"/><path id="_70958768" class="st0" d="M118.4 44.2l.5 1.5h2.3l-.6.5-1.2.9.5 1.5.2.8-.7-.5-1.2-.9-1.2.9-.7.5.2-.8.5-1.5-1.2-.9-.6-.5h2.3l.5-1.5.3-.8.1.8zm0 1.8l-.3-.8-.3.8-.1.2h-1.1l.7.5.1.1-.1.2-.3.9.7-.5.2-.1.2.1.7.5-.3-.9-.1-.2.1-.1.7-.5h-1.1l.3-.2z"/><path id="_70962528" class="st0" d="M109.9 44.2l.5 1.5h2.3l-.6.5-1.2.9.5 1.5.2.8-.7-.5-1.2-.9-1.2.9-.7.5.2-.8.5-1.5-1.2-.9-.6-.5h2.3l.5-1.5.3-.8.1.8zm0 1.8l-.3-.8-.3.8-.1.2h-1.1l.7.5.1.1-.1.2-.3.9.7-.5.2-.1.2.1.7.5-.3-.9-.1-.2.1-.1.7-.5h-.9.2l-.1-.2z"/><path id="_71041008" class="st0" d="M135.9 50.1h1.4v-6.7h-1.4V46h-2.3v-2.6h-1.4v6.7h1.4v-3h2.3z"/><path id="_710410081" class="st0" d="M145.4 46.7c0-.5-.1-1-.2-1.4-.1-.4-.3-.8-.6-1.1-.3-.3-.6-.5-1-.7-.4-.2-.9-.3-1.4-.3-1 0-1.8.3-2.3.9-.6.6-.8 1.5-.8 2.5 0 .5.1 1 .2 1.4.1.4.4.8.6 1.1.3.3.6.5 1 .7.4.2.9.2 1.4.2.5 0 1-.1 1.4-.3.4-.2.7-.4 1-.7.3-.3.4-.7.6-1.1 0-.2.1-.7.1-1.2zm-1.6 0v.8c0 .3-.1.5-.2.8-.1.2-.3.4-.5.6-.2.1-.5.2-.8.2-.4 0-.7-.1-.9-.2-.2-.1-.4-.3-.5-.6-.1-.2-.2-.5-.2-.8v-1.7c0-.3.1-.5.2-.8.1-.2.3-.4.5-.6.2-.1.5-.2.8-.2.4 0 .7.1.9.2.2.1.4.3.5.6.1.2.2.5.2.8v.9z"/><path id="_7104100812" class="st0" d="M151 44.5l.2-1.1h-5.3v1.1h1.9v5.6h1.4v-5.6z"/><path id="_71041008123" class="st0" d="M152.1 50.1h4.3v-1.2h-2.9v-1.8h2.2V46h-2.2v-1.5h2.6l.2-1.1h-4.2z"/><path id="_710410081234" class="st0" d="M161.8 50.1l.3-1.2h-2.8v-5.5H158v6.7z"/><path id="_70288088" class="st2" d="M126.6 44.7l.5 1.4h1.3l-1.1.8.4 1.3-1.1-.8-1 .8.4-1.3-1.1-.8h1.3z"/><path id="_70289800" class="st2" d="M118.2 44.7l.4 1.4h1.3l-1.1.8.4 1.3-1-.8-1.1.8.4-1.3-1.1-.8h1.3z"/><path id="_33988504" class="st2" d="M109.7 44.7l.4 1.4h1.3l-1.1.8.4 1.3-1-.8-1.1.8.4-1.3-1.1-.8h1.3z"/></g></g></svg>